<?xml version="1.0" standalone="no"?>
<!DOCTYPE svg PUBLIC "-//W3C//DTD SVG 20010904//EN"
 "http://www.w3.org/TR/2001/REC-SVG-20010904/DTD/svg10.dtd">
<svg version="1.0" xmlns="http://www.w3.org/2000/svg"
 width="700.000000pt" height="700.000000pt" viewBox="0 0 700.000000 700.000000"
 preserveAspectRatio="xMidYMid meet">
<metadata>
Created by potrace 1.14, written by Peter Selinger 2001-2017
</metadata>
<g transform="translate(0.000000,700.000000) scale(0.100000,-0.100000)"
fill="#000000" stroke="none">
<path d="M4322 4550 c-8 -13 -8 -20 -2 -20 6 0 13 7 17 15 9 24 -1 27 -15 5z"/>
<path d="M4372 4524 c14 -14 21 -15 30 -6 8 8 9 12 1 12 -6 0 -20 3 -30 6 -17
7 -17 6 -1 -12z"/>
<path d="M6361 4492 c-14 -12 -14 -13 2 -8 9 3 17 1 17 -4 0 -13 -27 -13 -35
0 -4 6 -17 4 -35 -5 -16 -8 -36 -15 -44 -15 -8 0 -18 -5 -21 -10 -6 -9 40 -7
100 5 11 2 37 4 58 4 26 1 37 5 37 16 0 8 -5 15 -11 15 -5 0 -8 3 -6 8 9 13
-45 8 -62 -6z"/>
<path d="M6110 4488 c-19 -5 -88 -10 -153 -12 -65 -2 -123 -9 -130 -14 -17
-14 -127 -31 -133 -21 -3 5 0 9 7 9 7 0 10 3 7 6 -4 3 -17 -2 -31 -10 -19 -13
-30 -14 -51 -6 -24 9 -179 6 -231 -4 -11 -2 -49 -7 -85 -10 -36 -4 -81 -9
-100 -11 -19 -2 -59 -7 -87 -10 -29 -4 -94 -8 -145 -11 -51 -2 -133 -6 -183
-9 -49 -3 -139 -5 -200 -6 -60 0 -150 -5 -200 -9 -67 -7 -91 -6 -97 3 -6 9 -8
9 -8 0 0 -7 -8 -13 -18 -13 -10 0 -22 -3 -26 -7 -8 -8 -7 -8 -101 -18 -38 -4
-78 -11 -87 -16 -10 -5 -96 -12 -190 -14 -95 -3 -198 -9 -228 -15 -30 -6 -109
-13 -176 -16 -116 -6 -123 -6 -140 15 -20 23 -39 28 -31 8 12 -33 -17 -45
-120 -51 -56 -3 -123 -11 -150 -17 -26 -6 -82 -13 -123 -14 -41 -2 -86 -8
-100 -13 -15 -6 -35 -6 -49 -1 -13 5 -31 7 -40 5 -46 -14 -151 -23 -329 -31
-67 -2 -141 -7 -165 -9 -118 -15 -632 -37 -653 -29 -7 3 -33 -5 -57 -16 -35
-17 -70 -22 -178 -27 -74 -3 -136 -7 -139 -9 -6 -3 -54 -9 -174 -20 -32 -3
-63 -8 -67 -11 -8 -5 -239 -17 -286 -15 -13 0 -23 -4 -23 -9 0 -6 -31 -10 -72
-10 -84 0 -110 -11 -151 -62 -37 -46 -50 -137 -24 -166 8 -9 15 -33 15 -52 0
-34 58 -210 86 -260 7 -14 19 -55 25 -92 6 -36 31 -125 56 -197 25 -72 45
-139 45 -149 0 -10 13 -59 30 -109 16 -49 36 -126 44 -171 25 -141 70 -187
179 -180 l60 3 23 -40 c35 -59 37 -61 64 -75 30 -16 125 -14 290 6 115 14 127
17 153 44 37 38 101 49 184 31 2 -1 -5 -16 -14 -35 -18 -40 -12 -66 16 -66 14
0 23 9 27 26 11 42 44 47 81 12 17 -17 36 -28 41 -24 8 5 19 40 22 74 1 4 -9
10 -22 14 -14 4 -1 7 37 7 59 2 147 20 161 34 12 11 96 8 89 -3 -4 -6 8 -10
30 -10 23 0 38 -5 42 -16 4 -11 14 -14 34 -10 38 7 59 -2 59 -25 0 -10 4 -19
9 -19 14 0 19 23 10 42 -8 14 -4 17 24 16 35 -1 70 -19 105 -55 13 -13 28 -23
35 -23 7 0 3 7 -7 15 -17 13 -17 15 -3 15 9 0 20 -6 24 -13 11 -19 73 -40 73
-25 0 6 9 3 19 -6 11 -10 48 -22 84 -29 61 -10 69 -9 151 21 47 17 86 27 86
21 0 -6 5 -7 13 -2 6 4 23 9 37 9 14 1 38 6 53 13 16 6 34 11 40 11 7 0 49 11
93 24 52 16 95 22 120 19 42 -6 116 -6 234 0 41 2 95 2 121 -1 44 -4 45 -5 43
-35 -3 -39 2 -48 22 -40 13 5 13 8 -2 24 -16 17 -16 19 -1 19 10 0 14 5 11 15
-10 25 22 17 33 -8 8 -18 8 -26 -2 -33 -16 -11 -1 -59 15 -49 8 5 7 11 -1 21
-13 16 -6 30 10 19 6 -3 11 -16 11 -29 0 -23 25 -65 33 -56 8 9 17 60 11 60
-4 0 -13 -8 -20 -17 -12 -17 -13 -17 -14 -1 0 9 4 19 9 22 4 3 6 16 4 30 -7
36 29 56 99 56 32 0 58 -4 58 -10 0 -5 7 -10 16 -10 8 0 13 4 10 9 -3 5 1 12
10 15 13 5 15 1 10 -20 -6 -23 -5 -25 16 -19 31 10 33 12 20 28 -8 10 -6 13
11 14 12 1 37 5 54 8 18 3 43 1 55 -6 20 -11 130 -15 434 -18 l112 -1 -6 -45
c-2 -26 0 -45 5 -45 18 0 22 12 12 31 -8 15 -6 19 7 19 13 0 14 3 5 13 -12 15
-5 27 16 27 7 0 13 -6 13 -14 0 -7 7 -19 15 -26 14 -11 13 -14 -1 -24 -19 -14
-16 -57 5 -64 10 -3 12 3 6 27 -4 20 -3 31 4 31 6 0 11 -13 11 -29 0 -17 5
-33 10 -36 10 -6 12 4 14 63 1 36 43 62 101 62 24 0 46 4 49 9 3 5 15 7 26 4
15 -4 18 -9 10 -18 -8 -9 -6 -14 5 -19 10 -4 15 1 15 14 0 13 5 18 15 13 9 -3
15 -13 13 -23 -2 -9 1 -17 6 -18 5 0 13 -6 17 -14 7 -10 9 -9 9 5 0 9 5 17 10
17 6 0 10 5 10 10 0 6 -8 10 -17 10 -12 0 -14 3 -6 11 12 12 660 13 883 2 69
-4 141 -6 160 -5 19 1 99 2 176 1 147 -1 185 10 117 31 -21 7 -42 16 -48 20
-5 4 -17 7 -25 8 -8 0 -64 3 -125 6 -60 3 -220 8 -355 11 -135 3 -262 8 -282
10 -21 3 -38 2 -38 -2 0 -16 -360 0 -370 17 -5 8 -9 7 -13 -4 -4 -9 -12 -16
-18 -16 -6 0 0 15 13 33 42 56 43 60 9 43 -17 -9 -31 -15 -31 -13 0 10 39 47
50 47 7 0 10 6 7 14 -3 8 0 19 7 25 18 15 40 -31 23 -48 -9 -9 -8 -14 2 -20
17 -11 43 -3 35 11 -4 6 -10 5 -16 -3 -6 -10 -7 -4 -3 17 4 22 1 35 -14 48
-20 18 -60 19 -73 1 -5 -6 -8 -3 -8 7 0 9 5 20 10 23 6 3 10 1 10 -5 0 -6 5
-8 10 -5 6 3 10 12 10 20 0 10 -10 13 -37 11 -34 -3 -37 -6 -36 -32 0 -16 4
-38 9 -48 5 -15 4 -17 -6 -11 -10 6 -12 1 -7 -21 3 -15 1 -38 -4 -50 -6 -19
-15 -23 -49 -22 l-42 0 34 36 c18 19 27 32 21 28 -7 -4 -13 -2 -13 3 0 6 4 11
9 11 13 0 34 67 28 89 -7 27 10 50 32 44 10 -3 22 0 26 7 5 8 10 8 20 0 19
-16 28 5 13 29 -11 18 -10 23 7 37 17 13 17 15 3 10 -22 -7 -22 1 -3 38 8 16
18 42 21 59 3 17 10 37 16 44 7 9 7 13 -1 13 -18 0 -13 21 15 61 23 34 24 40
13 80 -11 44 -18 96 -23 199 -2 30 -8 97 -15 149 -9 74 -9 97 1 109 11 13 11
14 0 8 -10 -6 -12 6 -10 56 l3 63 47 3 c36 2 56 -3 87 -23 23 -14 41 -23 41
-21 0 3 21 -1 48 -9 26 -8 48 -15 49 -15 2 0 12 19 24 41 18 36 20 57 19 153
-2 61 1 135 5 164 8 53 7 54 -16 50 -19 -2 -25 2 -27 20 -4 24 -4 24 -110 18
-280 -17 -446 -33 -502 -51 -13 -4 -20 -2 -20 7 0 9 -3 10 -8 2 -13 -20 -125
-47 -207 -49 -44 -1 -91 -7 -105 -12 -14 -6 -55 -13 -93 -16 -37 -3 -72 -9
-78 -12 -6 -4 -114 -9 -241 -11 -127 -2 -234 -6 -236 -9 -3 -3 17 -5 44 -6 42
-1 34 -4 -66 -25 -63 -13 -123 -25 -132 -27 -10 -2 -21 -6 -24 -10 -4 -4 -41
-7 -81 -7 -50 0 -84 -5 -106 -17 -18 -9 -54 -18 -82 -19 -27 -1 -54 -2 -58 -3
-4 0 -7 -19 -5 -40 1 -22 -4 -46 -10 -54 -10 -11 -9 -20 3 -43 10 -20 13 -44
8 -81 l-6 -53 51 0 c28 0 53 4 57 10 3 6 15 6 29 0 13 -5 26 -7 27 -5 2 2 27
6 55 9 l51 5 18 -62 c9 -34 22 -73 28 -86 10 -19 8 -25 -8 -37 -10 -8 -16 -17
-12 -20 4 -4 13 -2 21 5 10 9 15 8 19 -2 3 -8 -3 -21 -13 -30 -16 -13 -21 -13
-45 -1 -33 17 -35 17 -35 2 1 -20 38 -60 50 -53 6 3 8 11 5 16 -3 5 1 6 10 3
8 -4 22 -1 29 5 11 10 16 5 26 -25 10 -30 10 -38 -1 -46 -8 -5 -57 -34 -109
-65 -52 -31 -114 -70 -138 -86 -24 -16 -44 -27 -46 -25 -1 1 -21 60 -44 130
-23 70 -63 171 -89 224 -50 102 -85 139 -193 205 -30 18 -57 35 -60 38 -3 4
-14 8 -25 9 -11 2 -23 9 -26 14 -4 7 -8 7 -10 0 -4 -11 -97 14 -186 50 -50 20
-59 21 -160 10 l-108 -12 -57 -63 c-31 -34 -61 -62 -65 -63 -10 -1 -39 -13
-133 -56 -73 -34 -76 -37 -115 -109 -81 -148 -94 -189 -85 -264 10 -92 3 -191
-20 -265 -17 -54 -19 -73 -10 -96 14 -37 109 -134 125 -128 13 5 14 -23 2 -43
-8 -13 8 -27 22 -18 15 8 31 -28 21 -45 -5 -9 -5 -19 2 -27 16 -20 -15 -27
-65 -16 -23 6 -73 8 -112 6 -134 -8 -158 -8 -163 5 -2 7 -8 10 -13 6 -17 -10
-9 10 13 33 22 23 56 126 116 350 27 102 27 103 9 150 -25 67 -25 67 0 71 16
2 23 10 23 27 0 34 -10 55 -26 55 -8 0 -19 11 -26 24 -9 21 -7 29 15 56 27 31
27 66 0 56 -8 -3 -23 -1 -34 4 -13 8 -25 7 -39 0 -26 -14 -26 -33 0 -25 25 8
38 -18 20 -40 -6 -8 -9 -23 -5 -35 3 -11 3 -20 -2 -20 -10 0 -59 108 -74 162
-14 53 -68 128 -114 160 -82 58 -122 71 -340 113 -60 11 -101 16 -164 19 -39
2 -66 7 -69 15 -7 20 -33 41 -52 41 -20 0 -36 -33 -25 -50 4 -6 -5 -10 -19
-10 -14 0 -25 3 -24 8 1 4 -9 29 -22 56 -26 54 -32 50 -45 -26 -5 -34 -9 -38
-35 -38 -28 0 -30 2 -30 39 0 39 -10 53 -40 58 -23 4 -70 -18 -70 -32 0 -7 -3
-26 -6 -42 -4 -20 -1 -35 9 -44 16 -16 22 -62 33 -229 4 -58 8 -116 9 -130 2
-14 3 -40 4 -57 1 -22 6 -33 16 -33 8 0 15 -4 15 -10 0 -5 -6 -10 -14 -10 -10
0 -13 -8 -10 -28 4 -22 1 -28 -16 -29 -17 -2 -20 4 -20 38 0 22 -6 52 -14 67
-15 31 -13 60 9 102 13 25 13 33 0 71 -9 24 -13 49 -11 56 3 7 2 13 -2 13 -5
0 -13 12 -19 28 -9 21 -10 -10 -6 -133 3 -88 10 -170 14 -182 5 -12 6 -66 2
-121 -5 -79 -3 -104 10 -127 16 -29 16 -29 10 36 -6 67 2 139 15 139 30 -1 41
-32 46 -137 0 -20 6 -33 14 -33 7 0 10 -5 6 -12 -4 -6 -6 -31 -5 -55 1 -35 -2
-43 -16 -43 -16 0 -16 -2 -3 -11 11 -8 12 -12 3 -16 -7 -2 -13 -11 -13 -18 0
-8 -7 -18 -16 -23 -13 -7 -14 -13 -5 -31 7 -11 19 -21 27 -21 13 0 15 7 10 34
-5 25 -3 35 8 39 20 8 23 2 31 -66 6 -49 11 -60 31 -67 13 -5 24 -14 24 -20 0
-5 5 -10 11 -10 5 0 7 5 4 10 -3 6 -1 10 5 10 7 0 9 -8 5 -22 -11 -35 -22 -42
-39 -26 -8 9 -13 18 -10 20 2 3 -5 13 -16 23 -20 18 -20 18 -17 -15 2 -18 11
-37 21 -42 18 -10 22 -43 5 -54 -6 -3 -16 -1 -22 5 -15 15 -27 14 -27 -4 0 -8
-4 -15 -10 -15 -5 0 -10 6 -10 14 0 8 -7 16 -14 19 -17 7 -40 82 -33 108 6 21
-36 176 -52 192 -6 6 -11 26 -11 43 0 18 -5 36 -10 39 -6 4 -8 11 -5 16 4 5 2
9 -4 9 -11 0 -27 50 -61 190 -12 47 -31 109 -42 139 -14 35 -18 56 -11 58 7 3
4 21 -8 53 -10 27 -16 62 -14 77 3 15 1 42 -4 58 l-9 30 -3 -40 c-1 -27 -3
-32 -6 -15 -2 14 -8 36 -14 50 -5 14 -16 59 -23 100 -8 41 -17 85 -21 97 -5
16 -2 23 14 28 12 3 19 11 16 16 -4 5 0 9 7 10 7 0 22 2 33 4 22 5 121 15 200
21 27 2 61 8 75 14 14 6 100 12 190 14 91 3 181 9 200 15 19 6 49 11 67 11 17
0 34 4 37 9 3 5 22 12 41 15 20 4 33 11 30 15 -5 10 64 23 77 15 20 -12 6 -26
-21 -21 -17 4 -36 0 -47 -8 -17 -13 -16 -14 21 -16 113 -3 199 4 285 26 127
32 190 40 190 26 0 -6 -10 -11 -22 -12 -22 0 -22 -1 -3 -8 21 -9 22 -9 70 2
54 13 218 29 324 32 123 4 253 16 319 31 15 3 21 1 17 -6 -6 -9 33 4 131 45
30 12 39 13 46 3 11 -19 10 -36 -4 -41 -7 -3 -3 -6 10 -6 12 -1 22 -7 22 -15
0 -23 20 -30 46 -15 30 16 31 29 1 29 -14 0 -24 6 -24 15 0 13 11 14 62 9 42
-4 65 -3 69 5 8 13 46 15 46 2 0 -5 20 -3 45 4 30 10 47 11 51 4 10 -16 117
-3 213 26 95 28 112 30 109 13 -5 -23 32 -19 94 10 35 16 79 34 98 40 36 11
144 22 136 15 -2 -3 -53 -22 -113 -43 l-108 -38 68 -7 c37 -4 77 -5 90 -2 12
3 44 11 70 17 27 7 46 14 44 16 -2 3 -24 0 -48 -5 -24 -6 -55 -10 -69 -10 -44
0 1 18 80 31 65 11 73 11 81 -5 6 -10 14 -15 20 -12 13 9 144 18 224 16 67 -2
69 -1 47 15 -15 10 -22 24 -20 37 2 18 10 22 41 23 25 1 41 -4 47 -15 6 -10
10 -11 10 -3 0 7 15 12 42 12 39 0 40 -1 25 -18 -19 -21 -23 -37 -6 -27 6 4
27 8 47 10 99 6 171 19 207 35 33 15 77 20 244 24 112 3 209 10 215 15 26 21
128 43 221 47 54 2 124 11 155 19 59 15 86 18 139 16 26 -1 32 -4 27 -17 -6
-15 3 -16 81 -11 49 4 106 7 128 7 28 0 36 3 26 9 -26 17 68 35 181 35 58 1
104 4 102 8 -6 9 27 18 99 27 38 5 45 8 27 12 -14 3 -41 1 -60 -3z m-1710
-649 c0 -5 -4 -9 -10 -9 -5 0 -10 7 -10 16 0 8 5 12 10 9 6 -3 10 -10 10 -16z
m333 -96 c-2 -32 -6 -64 -8 -71 -3 -7 0 -10 6 -6 6 3 5 -3 -2 -14 -17 -27 -2
-43 17 -18 15 21 16 21 33 -12 10 -18 9 -23 -4 -28 -9 -4 -26 -2 -38 4 -43 20
-57 22 -57 7 0 -8 -4 -15 -10 -15 -5 0 -10 7 -10 15 0 9 -11 48 -25 87 -36
104 -42 96 71 106 l31 2 -4 -57z m-114 -55 c16 -48 26 -89 23 -93 -4 -3 -2 -9
4 -13 6 -4 14 -17 18 -28 5 -17 2 -23 -15 -27 -14 -4 -18 -10 -13 -18 4 -7 -8
-3 -28 9 -38 23 -53 28 -44 13 4 -5 3 -11 -1 -14 -5 -2 -3 -2 4 -1 6 2 15 -10
18 -27 7 -31 22 -38 31 -14 4 8 14 15 24 15 11 0 22 5 26 12 5 8 14 -2 26 -27
21 -48 37 -34 -172 -160 -85 -52 -216 -132 -290 -179 -139 -87 -176 -97 -126
-31 25 32 26 38 16 71 -12 36 -18 82 -24 189 -5 83 -17 188 -23 198 -2 4 1 14
7 22 9 11 9 15 1 15 -7 0 -11 21 -11 55 l0 55 48 0 c29 0 59 -7 78 -19 l31
-19 52 29 c28 16 51 27 51 23 0 -4 6 -2 13 4 18 14 114 33 134 25 11 -4 15 -2
10 3 -10 10 84 35 95 25 5 -4 21 -46 37 -93z m-1209 42 c0 -5 -4 -10 -10 -10
-5 0 -10 5 -10 10 0 6 5 10 10 10 6 0 10 -4 10 -10z m297 -114 c-6 -82 -12
-100 -33 -92 -9 3 -14 -1 -14 -12 -1 -15 -2 -14 -12 3 -7 11 -13 27 -14 35 0
8 -8 31 -16 50 -9 19 -19 45 -22 57 -7 23 -2 26 77 31 l38 3 -4 -75z m-1153 8
c3 -8 2 -12 -4 -9 -6 3 -10 10 -10 16 0 14 7 11 14 -7z m2166 -60 c-7 -17 -7
-23 0 -19 17 10 40 -19 28 -36 -7 -11 -11 -11 -15 -1 -8 20 -23 14 -24 -10 0
-16 -5 -9 -16 20 -14 40 -14 45 2 62 23 25 37 16 25 -16z m-2455 -24 c3 -5 1
-10 -4 -10 -6 0 -11 5 -11 10 0 6 2 10 4 10 3 0 8 -4 11 -10z m1483 -18 c3
-16 -2 -22 -16 -22 -24 0 -33 19 -18 37 15 17 30 10 34 -15z m-2796 -17 c3
-13 1 -22 -3 -19 -9 5 -13 44 -5 44 2 0 6 -11 8 -25z m334 -3 c10 -5 37 -13
58 -17 22 -3 62 -18 88 -31 39 -20 48 -29 48 -50 0 -17 7 -28 19 -31 13 -3 23
-20 31 -51 18 -71 47 -128 77 -150 l27 -20 -17 -93 c-13 -76 -21 -98 -40 -114
-14 -11 -28 -34 -32 -52 -7 -34 -17 -38 -100 -45 -24 -3 -30 -7 -28 -25 4 -32
-28 -45 -106 -45 -88 0 -117 12 -126 54 -15 66 -22 208 -21 438 l1 234 24 12
c23 12 57 7 97 -14z m1614 -20 l75 -48 3 -61 c2 -51 6 -63 22 -68 11 -4 20
-12 20 -20 0 -7 16 -32 35 -55 40 -48 42 -54 17 -48 -16 4 -18 -1 -17 -41 1
-26 4 -51 8 -57 4 -7 -9 -32 -29 -58 -20 -27 -29 -46 -22 -46 8 -1 7 -6 -5
-14 -11 -8 -20 -32 -23 -57 -3 -35 -12 -51 -40 -76 -41 -37 -103 -67 -155 -77
-20 -3 -44 -15 -55 -27 -13 -15 -28 -19 -61 -17 -40 2 -48 7 -91 56 -34 41
-63 63 -112 85 -97 43 -120 69 -120 134 0 41 -5 58 -22 75 -13 13 -23 38 -26
65 -4 46 15 146 27 138 4 -2 22 8 38 23 23 20 36 45 48 94 24 90 36 100 127
100 90 0 185 15 212 34 34 23 67 15 146 -34z m795 7 c-4 -6 2 -17 14 -25 27
-19 27 -37 1 -29 -13 4 -20 2 -20 -6 0 -19 -29 23 -30 43 0 15 12 25 33 27 5
1 5 -4 2 -10z m1315 -70 c0 -6 -4 -7 -10 -4 -5 3 -10 11 -10 16 0 6 5 7 10 4
6 -3 10 -11 10 -16z m-305 -47 c-7 -56 -16 -150 -21 -237 -5 -79 -4 -88 9 -71
8 11 19 16 26 12 17 -11 8 -29 -15 -31 -10 -1 -29 -5 -41 -9 -14 -5 -23 -3
-23 3 0 6 -12 11 -26 11 -22 0 -25 -2 -14 -15 7 -8 19 -15 26 -15 19 0 18 -36
-1 -44 -17 -6 -20 -26 -4 -26 6 0 18 8 27 17 23 22 24 11 14 -104 -4 -51 -4
-93 0 -93 4 0 8 -16 8 -36 0 -21 -4 -33 -10 -29 -6 4 -10 -5 -10 -19 0 -18 -5
-26 -17 -26 -9 0 -24 -7 -33 -15 -14 -12 -64 -16 -278 -20 -239 -4 -262 -3
-271 13 -6 10 -11 12 -11 5 0 -17 -20 -17 -20 0 0 8 9 22 20 32 26 24 26 39
-1 24 -17 -9 -20 -8 -17 3 3 7 13 18 24 23 10 6 19 16 19 23 0 6 3 12 8 12 4
0 11 0 17 0 6 0 6 -10 -1 -27 -7 -19 -7 -28 3 -34 14 -9 28 -2 28 14 0 7 -4 6
-11 -3 -8 -11 -9 -8 -4 14 4 21 1 33 -15 48 -11 10 -25 16 -31 13 -6 -4 -9 0
-7 11 2 15 -4 19 -30 19 -32 0 -33 -1 -31 -35 2 -20 0 -41 -5 -48 -4 -7 -4
-17 -1 -23 4 -5 4 -21 1 -35 -5 -17 -13 -24 -32 -24 -14 0 -22 -4 -19 -10 6
-9 -42 -27 -50 -18 -2 2 12 21 32 41 19 21 33 41 29 44 -3 3 1 15 9 27 8 11
15 34 15 51 0 17 9 49 19 70 10 22 16 46 13 54 -3 9 -1 12 5 8 6 -4 14 -1 16
5 4 9 6 8 6 -2 0 -8 -6 -26 -14 -40 -20 -34 -18 -42 5 -35 13 4 20 2 20 -7 0
-8 4 -7 11 4 7 12 6 24 -1 37 -14 26 -13 31 5 25 8 -4 15 -2 15 4 0 6 -6 12
-12 15 -10 3 -10 9 0 27 8 12 16 34 19 49 5 30 23 44 39 30 9 -8 11 -5 7 10
-4 17 0 22 26 27 18 4 29 9 26 12 -5 5 184 132 198 132 4 0 13 5 20 11 24 22
302 187 309 183 3 -2 5 -16 3 -32z m-3057 -57 c-3 -3 -9 2 -12 12 -6 14 -5 15
5 6 7 -7 10 -15 7 -18z m2026 -87 c-5 -62 -8 -138 -9 -169 0 -45 -3 -55 -17
-56 -10 -1 -20 2 -23 8 -4 5 -15 9 -25 9 -14 0 -21 10 -26 35 -7 37 -24 48
-24 15 0 -11 5 -20 11 -20 5 0 8 -4 5 -8 -8 -14 34 -54 50 -48 19 7 18 -13 -3
-36 -12 -14 -14 -21 -5 -30 8 -8 13 -7 18 5 14 39 20 10 20 -107 0 -69 -3
-123 -7 -120 -4 2 -9 -6 -11 -18 -2 -13 -8 -23 -15 -23 -6 0 -25 -12 -42 -27
-34 -31 -89 -36 -166 -18 -22 5 -65 12 -95 16 -30 3 -57 7 -59 10 -7 6 28 113
50 154 30 57 57 82 87 83 15 0 21 2 15 4 -7 3 -13 11 -13 19 0 9 3 13 8 11 10
-7 5 106 -8 166 -14 65 -13 77 6 77 8 0 13 4 10 9 -3 4 6 13 19 19 19 9 25 9
25 -1 0 -15 58 -39 65 -27 3 4 2 16 -1 25 -5 13 -8 14 -15 3 -7 -11 -11 -10
-24 3 -15 15 -8 22 92 83 59 36 109 66 111 66 2 0 0 -51 -4 -112z m-2717 48
c-2 -6 -14 -11 -26 -11 -12 0 -30 -10 -39 -22 -13 -17 -21 -20 -32 -13 -12 8
-11 11 8 16 12 4 22 14 22 23 0 10 2 20 5 23 10 9 66 -5 62 -16z m4108 14 c3
-6 3 -20 0 -31 -6 -17 -9 -19 -16 -8 -12 19 -11 49 0 49 6 0 13 -5 16 -10z
m-1055 -70 c0 -11 -6 -20 -14 -20 -9 0 -12 7 -9 20 3 11 9 20 14 20 5 0 9 -9
9 -20z m-3100 -20 c0 -5 -5 -10 -11 -10 -5 0 -7 5 -4 10 3 6 8 10 11 10 2 0 4
-4 4 -10z m3920 -25 c0 -9 -6 -12 -15 -9 -8 4 -12 10 -9 15 8 14 24 10 24 -6z
m-1740 -21 c0 -8 -5 -12 -10 -9 -6 4 -8 11 -5 16 9 14 15 11 15 -7z m710 -35
c0 -6 -4 -7 -10 -4 -5 3 -10 11 -10 16 0 6 5 7 10 4 6 -3 10 -11 10 -16z m957
-30 c-14 -20 -17 -20 -23 -6 -8 21 15 52 29 38 6 -6 4 -17 -6 -32z m57 -22
c-7 -20 -34 -23 -34 -4 0 19 22 39 32 29 5 -5 6 -16 2 -25z m220 -3 c10 -25 7
-29 -19 -29 -27 0 -32 14 -13 33 16 16 25 15 32 -4z m-1254 -25 c0 -10 -7 -19
-15 -19 -9 0 -14 9 -13 24 3 28 28 24 28 -5z m200 -20 c0 -4 -9 -9 -20 -12
-22 -6 -27 12 -8 31 9 9 14 9 20 -1 4 -6 8 -15 8 -18z m851 1 c5 0 9 -10 9
-21 0 -18 -2 -19 -15 -9 -10 9 -15 9 -15 1 0 -6 -9 -11 -20 -11 -17 0 -18 3
-8 25 7 16 17 24 26 20 7 -3 18 -5 23 -5z m-3911 -26 c0 -18 -24 -18 -39 0
-10 11 -8 15 6 18 23 6 33 0 33 -18z m4110 19 c0 -14 -19 -38 -25 -32 -8 8 5
39 16 39 5 0 9 -3 9 -7z m-4035 -19 c20 -21 13 -29 -13 -15 -11 6 -21 8 -24 6
-3 -3 -5 2 -5 10 0 20 21 19 42 -1z m2812 -18 c-3 -6 -10 -10 -17 -8 -7 2 -17
-3 -21 -10 -6 -10 -11 -10 -20 -1 -9 9 -8 15 2 25 15 16 62 11 56 -6z m1293
14 c0 -5 -5 -10 -11 -10 -5 0 -7 5 -4 10 3 6 8 10 11 10 2 0 4 -4 4 -10z
m-3319 -27 c-12 -20 -14 -14 -5 12 4 9 9 14 11 11 3 -2 0 -13 -6 -23z m2183 3
c-6 -16 -24 -23 -24 -8 0 10 22 33 27 28 2 -2 1 -11 -3 -20z m-1843 -29 c-22
-23 -37 -18 -27 9 3 9 12 14 21 10 10 -3 15 1 16 12 0 12 2 13 6 3 3 -7 -4
-22 -16 -34z m1076 37 c-3 -3 -12 -4 -19 -1 -8 3 -5 6 6 6 11 1 17 -2 13 -5z
m1721 -59 c6 -14 10 -25 7 -25 -7 0 -35 32 -35 41 0 18 17 9 28 -16z m172 9
c0 -16 -39 -63 -40 -47 0 6 5 15 10 18 6 4 8 15 5 24 -3 12 0 18 10 18 8 0 15
-6 15 -13z m-3317 -14 c-3 -11 -9 -20 -15 -20 -5 0 -4 9 2 20 6 11 12 20 14
20 2 0 2 -9 -1 -20z m2100 -10 c3 -11 1 -20 -4 -20 -5 0 -9 2 -9 4 0 2 -3 11
-6 20 -3 9 -2 16 4 16 5 0 12 -9 15 -20z m1156 7 c6 -8 8 -16 5 -20 -10 -9
-34 4 -34 19 0 18 14 18 29 1z m-2784 -46 c-10 -9 -24 21 -17 37 4 12 7 10 14
-8 5 -13 6 -25 3 -29z m1731 29 c0 -11 -6 -20 -13 -20 -17 0 -17 27 0 33 6 3
12 6 12 6 1 1 1 -8 1 -19z m-816 -11 c-7 -11 -14 -18 -17 -15 -8 8 5 36 17 36
7 0 7 -6 0 -21z m1544 -14 c-4 -8 -10 -12 -15 -9 -14 8 -10 24 6 24 9 0 12 -6
9 -15z m-2561 -24 c3 -11 3 -22 0 -25 -10 -9 -41 18 -36 31 8 20 30 16 36 -6z
m237 -1 c0 -10 -38 -25 -71 -29 -5 0 -7 -6 -3 -13 4 -7 3 -8 -4 -4 -22 13 -12
31 26 47 37 16 52 16 52 -1z m1300 10 c0 -5 -4 -10 -10 -10 -5 0 -10 5 -10 10
0 6 5 10 10 10 6 0 10 -4 10 -10z m1140 -10 c12 -8 13 -13 3 -29 -14 -23 1
-81 20 -81 8 0 7 -4 -2 -9 -17 -11 -51 -2 -51 13 -1 6 -9 1 -19 -11 -23 -28
-31 -20 -31 29 0 39 13 51 24 22 10 -27 26 -5 26 37 0 41 5 45 30 29z m-1020
-29 c0 -5 -7 -12 -16 -15 -11 -4 -13 -10 -7 -19 6 -6 13 -22 16 -34 4 -18 1
-23 -14 -23 -10 0 -19 6 -19 13 0 6 -9 1 -19 -12 -16 -21 -19 -21 -24 -6 -12
30 -8 65 8 65 8 0 15 -5 15 -12 0 -26 19 9 22 39 2 27 5 30 20 22 10 -5 18
-14 18 -18z m924 20 c3 -5 0 -11 -8 -14 -8 -3 -17 1 -20 9 -6 15 19 20 28 5z
m-1031 -15 c4 -10 1 -13 -9 -9 -7 3 -14 9 -14 14 0 14 17 10 23 -5z m344 -31
c0 -8 -4 -12 -9 -9 -4 3 -8 9 -8 15 0 5 4 9 8 9 5 0 9 -7 9 -15z m-87 -11 c0
-8 -5 -12 -10 -9 -6 4 -8 11 -5 16 9 14 15 11 15 -7z m1060 1 c0 -8 -4 -15 -9
-15 -13 0 -22 16 -14 24 11 11 23 6 23 -9z m-298 -28 c-9 -10 -9 -21 0 -45 15
-38 -1 -64 -25 -43 -12 9 -13 20 -5 54 16 69 17 72 30 59 8 -8 8 -15 0 -25z
m-1024 -38 c2 -60 1 -61 -17 -45 -16 14 -17 22 -8 61 6 25 13 45 17 45 3 0 7
-28 8 -61z m-1452 14 c-4 -4 -11 -1 -16 7 -16 25 -11 35 7 17 9 -9 13 -20 9
-24z m1572 -52 c-2 -9 -11 -17 -21 -19 -12 -2 -15 1 -11 12 3 9 1 16 -6 16 -6
0 -9 4 -6 9 10 15 47 0 44 -18z m-1525 -2 c4 -15 1 -19 -11 -17 -21 4 -29 38
-9 38 8 0 17 -9 20 -21z m2551 15 c28 -11 12 -44 -21 -44 -3 0 -3 9 0 20 3 11
1 18 -4 14 -5 -3 -9 0 -9 5 0 12 11 14 34 5z m-2624 -19 c-7 -8 -17 -15 -22
-15 -6 0 -5 7 2 15 7 8 17 15 22 15 6 0 5 -7 -2 -15z m1440 -15 c0 -5 -4 -10
-10 -10 -5 0 -10 5 -10 10 0 6 5 10 10 10 6 0 10 -4 10 -10z m1020 -4 c0 -3
-4 -8 -10 -11 -5 -3 -10 -1 -10 4 0 6 5 11 10 11 6 0 10 -2 10 -4z m-1966
-158 c-19 -34 -25 -37 -45 -25 -10 6 -19 16 -19 21 0 4 6 3 14 -3 10 -9 16 -8
26 4 15 18 34 20 24 3z"/>
<path d="M4572 3684 c-7 -8 -8 -14 -3 -14 10 0 25 19 20 25 -2 1 -10 -3 -17
-11z"/>
<path d="M4557 3629 c6 -22 23 -26 23 -5 0 8 -6 16 -14 19 -10 4 -12 0 -9 -14z"/>
<path d="M4360 3584 c-13 -13 -21 -24 -17 -24 11 0 52 39 46 44 -2 2 -15 -7
-29 -20z"/>
<path d="M4411 3574 c0 -11 3 -14 6 -6 3 7 2 16 -1 19 -3 4 -6 -2 -5 -13z"/>
<path d="M4525 3579 c-11 -16 -1 -19 13 -3 7 8 8 14 3 14 -5 0 -13 -5 -16 -11z"/>
<path d="M4610 3573 c0 -5 4 -15 10 -23 11 -18 25 -7 17 15 -6 15 -27 21 -27
8z"/>
<path d="M4375 3427 c-4 -10 -5 -21 -1 -24 10 -10 18 4 13 24 -4 17 -4 17 -12
0z"/>
<path d="M4470 3401 c0 -10 19 -25 25 -20 1 2 -3 10 -11 17 -8 7 -14 8 -14 3z"/>
<path d="M4200 3200 c-13 -8 -12 -10 3 -10 9 0 17 5 17 10 0 12 -1 12 -20 0z"/>
<path d="M2505 3320 c-3 -5 -1 -10 4 -10 6 0 11 5 11 10 0 6 -2 10 -4 10 -3 0
-8 -4 -11 -10z"/>
<path d="M2577 3271 c18 -16 30 -31 28 -33 -2 -2 4 -4 15 -4 19 0 17 9 -8 38
-8 10 -18 15 -23 13 -4 -3 -10 -1 -14 5 -3 5 -11 10 -18 10 -6 0 3 -13 20 -29z"/>
<path d="M2950 3281 c0 -23 15 -35 36 -27 12 5 12 9 -3 26 -22 25 -33 26 -33
1z"/>
<path d="M2915 3220 c3 -5 8 -10 11 -10 2 0 4 5 4 10 0 6 -5 10 -11 10 -5 0
-7 -4 -4 -10z"/>
<path d="M2520 3176 c0 -8 5 -18 10 -21 6 -3 10 3 10 14 0 12 -4 21 -10 21 -5
0 -10 -6 -10 -14z"/>
<path d="M2750 3141 c0 -6 5 -13 10 -16 6 -3 10 1 10 9 0 9 -4 16 -10 16 -5 0
-10 -4 -10 -9z"/>
<path d="M3025 3139 c-11 -17 1 -21 15 -4 8 9 8 15 2 15 -6 0 -14 -5 -17 -11z"/>
<path d="M2456 3064 c-5 -14 -4 -15 9 -4 17 14 19 20 6 20 -5 0 -12 -7 -15
-16z"/>
<path d="M2550 3066 c0 -9 5 -16 10 -16 6 0 10 4 10 9 0 6 -4 13 -10 16 -5 3
-10 -1 -10 -9z"/>
<path d="M2670 3072 c0 -12 19 -26 26 -19 2 2 -2 10 -11 17 -9 8 -15 8 -15 2z"/>
<path d="M2610 3050 c0 -5 5 -10 10 -10 6 0 10 5 10 10 0 6 -4 10 -10 10 -5 0
-10 -4 -10 -10z"/>
<path d="M2520 3036 c0 -9 5 -16 10 -16 6 0 10 4 10 9 0 6 -4 13 -10 16 -5 3
-10 -1 -10 -9z"/>
<path d="M4540 3246 c0 -9 5 -16 10 -16 6 0 10 4 10 9 0 6 -4 13 -10 16 -5 3
-10 -1 -10 -9z"/>
<path d="M4450 3237 c0 -12 65 -38 74 -30 7 7 -6 43 -15 43 -5 0 -9 -7 -9 -17
0 -15 -1 -15 -18 0 -22 20 -32 21 -32 4z"/>
<path d="M4535 3170 c-3 -5 -3 -15 1 -21 6 -11 23 6 24 24 0 10 -18 9 -25 -3z"/>
<path d="M4497 3119 c6 -22 23 -26 23 -5 0 8 -6 16 -14 19 -10 4 -12 0 -9 -14z"/>
<path d="M4557 3123 c-2 -4 -1 -17 3 -28 7 -19 8 -19 15 -2 8 18 -9 46 -18 30z"/>
<path d="M4440 3085 c0 -16 27 -32 37 -21 7 7 -16 36 -28 36 -5 0 -9 -7 -9
-15z"/>
<path d="M4474 3016 c-3 -8 -19 -19 -36 -25 -16 -6 -27 -15 -23 -21 7 -11 39
2 50 20 3 5 20 7 37 3 34 -7 33 8 -3 27 -15 8 -21 7 -25 -4z"/>
<path d="M4530 3020 c0 -10 52 -40 70 -40 5 0 10 5 10 11 0 6 -6 9 -14 6 -8
-3 -16 2 -19 14 -5 19 -47 28 -47 9z"/>
<path d="M4190 2969 c0 -6 -7 -9 -15 -6 -8 4 -17 2 -20 -2 -8 -15 44 -22 67
-10 16 9 18 13 7 20 -19 12 -39 11 -39 -2z"/>
<path d="M4434 2955 c-14 -10 -16 -17 -8 -25 7 -7 15 -5 28 9 21 23 6 36 -20
16z"/>
<path d="M4550 2956 c0 -8 6 -19 14 -23 8 -4 16 -18 18 -31 5 -34 23 -27 23 9
0 24 -6 34 -27 45 -25 13 -28 13 -28 0z"/>
<path d="M4502 2926 c1 -10 8 -17 13 -17 15 1 12 24 -3 29 -9 3 -13 -2 -10
-12z"/>
<path d="M4537 2913 c-2 -4 -8 -29 -11 -55 -6 -39 -4 -48 8 -48 18 0 26 24 22
68 -3 34 -11 49 -19 35z"/>
<path d="M4107 2838 c-8 -30 -5 -30 16 -2 14 19 15 24 4 24 -8 0 -17 -10 -20
-22z"/>
<path d="M4572 2813 c-20 -24 -20 -28 -7 -31 10 -2 14 -10 11 -18 -3 -8 -2
-29 1 -47 7 -31 7 -31 13 -7 4 14 3 37 -1 53 -6 21 -4 27 8 27 9 0 13 6 10 14
-4 11 -1 13 11 9 15 -6 15 -5 3 10 -18 23 -24 22 -49 -10z"/>
<path d="M4136 2712 c-3 -6 -1 -14 5 -17 15 -10 25 3 12 16 -7 7 -13 7 -17 1z"/>
<path d="M4105 2660 c-3 -6 1 -7 9 -4 18 7 21 14 7 14 -6 0 -13 -4 -16 -10z"/>
<path d="M3532 3191 c2 -7 7 -12 11 -12 12 1 9 15 -3 20 -7 2 -11 -2 -8 -8z"/>
<path d="M3522 3118 c6 -18 28 -21 28 -4 0 9 -7 16 -16 16 -9 0 -14 -5 -12
-12z"/>
<path d="M3490 3085 c0 -20 17 -28 23 -11 3 8 -1 17 -9 20 -8 3 -14 -1 -14 -9z"/>
<path d="M3450 3046 c0 -15 18 -31 26 -23 7 7 -7 37 -17 37 -5 0 -9 -6 -9 -14z"/>
<path d="M3473 2988 c2 -8 21 -13 46 -13 26 -1 46 -6 51 -15 7 -11 12 -12 20
-4 18 18 -38 50 -61 36 -12 -8 -20 -8 -24 -2 -9 15 -37 12 -32 -2z"/>
<path d="M3434 2966 c-10 -8 -16 -17 -12 -21 8 -8 48 13 48 25 0 14 -13 12
-36 -4z"/>
<path d="M3431 2927 c-11 -14 -6 -27 10 -27 5 0 13 9 19 20 8 16 8 20 -3 20
-8 0 -20 -6 -26 -13z"/>
<path d="M3540 2931 c0 -5 7 -14 15 -21 8 -7 15 -21 15 -31 0 -11 7 -19 16
-19 11 0 14 5 9 18 -4 9 -8 24 -8 32 0 24 -47 45 -47 21z"/>
<path d="M3500 2905 c0 -8 6 -15 14 -15 11 0 12 -8 6 -37 -10 -41 -6 -53 16
-53 11 0 13 12 12 50 -2 33 -7 50 -15 50 -7 0 -13 5 -13 10 0 6 -4 10 -10 10
-5 0 -10 -7 -10 -15z"/>
<path d="M3615 2880 c3 -5 8 -10 11 -10 2 0 4 5 4 10 0 6 -5 10 -11 10 -5 0
-7 -4 -4 -10z"/>
<path d="M3566 2811 c-16 -17 -16 -23 -2 -72 l15 -54 -2 48 c-1 39 3 51 18 59
30 16 31 18 15 28 -21 13 -25 13 -44 -9z"/>
<path d="M3625 2730 c3 -5 8 -10 11 -10 2 0 4 5 4 10 0 6 -5 10 -11 10 -5 0
-7 -4 -4 -10z"/>
<path d="M3475 2630 c27 -12 43 -12 25 0 -8 5 -22 9 -30 9 -10 0 -8 -3 5 -9z"/>
<path d="M4272 4476 c1 -10 8 -17 13 -17 15 1 12 24 -3 29 -9 3 -13 -2 -10
-12z"/>
<path d="M6586 4470 c5 -8 9 -19 9 -25 1 -17 46 -97 52 -91 13 13 -10 75 -39
102 -17 16 -27 22 -22 14z"/>
<path d="M6104 4459 c-3 -6 -1 -16 6 -22 10 -9 12 -8 7 5 -4 13 1 18 21 21
l27 4 -27 2 c-15 0 -30 -4 -34 -10z"/>
<path d="M6500 4466 c0 -2 7 -7 16 -10 8 -3 12 -2 9 4 -6 10 -25 14 -25 6z"/>
<path d="M4311 4441 c-8 -6 -9 -11 -3 -15 6 -3 14 -1 17 5 9 14 2 20 -14 10z"/>
<path d="M5423 4383 c15 -2 37 -2 50 0 12 2 0 4 -28 4 -27 0 -38 -2 -22 -4z"/>
<path d="M3336 4371 c-4 -7 -5 -15 -2 -18 9 -9 19 4 14 18 -4 11 -6 11 -12 0z"/>
<path d="M3375 4350 c3 -5 14 -10 23 -10 15 0 15 2 2 10 -20 13 -33 13 -25 0z"/>
<path d="M5040 4339 c-22 -6 -21 -7 10 -7 19 0 44 3 55 8 17 8 15 9 -10 7 -16
0 -41 -4 -55 -8z"/>
<path d="M5168 4333 c7 -3 16 -2 19 1 4 3 -2 6 -13 5 -11 0 -14 -3 -6 -6z"/>
<path d="M6259 4296 c-2 -2 -62 -7 -134 -10 -71 -4 -191 -11 -265 -16 -74 -5
-184 -12 -245 -15 -60 -3 -144 -7 -185 -10 -41 -2 -131 -7 -200 -10 -119 -5
-151 -7 -350 -20 -47 -3 -245 -14 -440 -25 -331 -19 -508 -35 -520 -47 -5 -4
110 1 250 12 30 3 134 9 230 15 96 5 202 12 235 15 33 3 116 7 185 10 69 3
159 8 200 10 78 5 212 11 410 20 158 7 305 15 365 20 28 2 93 7 145 11 52 3
102 8 111 9 9 2 58 6 110 10 51 4 114 11 139 15 l45 8 -41 1 c-22 0 -43 -1
-45 -3z"/>
<path d="M6672 4258 c-1 -20 -5 -45 -8 -55 -5 -14 -4 -15 5 -7 7 7 11 29 8 55
-3 42 -4 42 -5 7z"/>
<path d="M6644 4255 c0 -13 3 -22 7 -19 8 4 6 30 -2 38 -3 3 -5 -5 -5 -19z"/>
<path d="M6611 4198 c1 -7 5 -24 9 -38 7 -22 8 -20 7 13 -1 20 -5 37 -9 37 -4
0 -8 -6 -7 -12z"/>
<path d="M1106 4192 c-9 -14 12 -35 28 -29 23 9 20 37 -3 37 -11 0 -22 -4 -25
-8z"/>
<path d="M5930 4178 c0 -9 -6 -19 -12 -21 -10 -4 -10 -6 0 -6 14 -1 28 26 18
36 -3 4 -6 -1 -6 -9z"/>
<path d="M3325 4170 c-7 -12 22 -12 50 0 17 7 15 9 -12 9 -17 1 -35 -3 -38 -9z"/>
<path d="M5870 4169 c0 -5 5 -7 10 -4 6 3 10 8 10 11 0 2 -4 4 -10 4 -5 0 -10
-5 -10 -11z"/>
<path d="M5555 4158 c-30 -16 -30 -16 -10 -38 11 -12 31 -20 50 -20 17 0 35
-4 41 -9 18 -18 80 -23 95 -8 8 7 25 12 37 11 12 -2 22 1 22 6 0 6 -4 10 -10
10 -5 0 -10 5 -10 10 0 6 10 10 22 10 21 0 21 0 2 15 -26 20 -48 19 -40 -1 5
-14 4 -15 -9 -4 -11 9 -29 10 -71 2 -49 -8 -57 -7 -67 9 -13 22 -24 23 -52 7z
m159 -51 c3 3 6 -1 6 -10 0 -20 -9 -21 -32 -3 -24 18 -23 29 1 17 10 -6 21 -7
25 -4z"/>
<path d="M5973 4147 c5 -15 37 -22 37 -9 0 5 -9 12 -21 15 -13 3 -19 1 -16 -6z"/>
<path d="M2683 4143 c-24 -9 -13 -20 17 -15 16 2 27 8 24 13 -6 10 -21 11 -41
2z"/>
<path d="M5872 4088 c6 -18 28 -21 28 -4 0 9 -7 16 -16 16 -9 0 -14 -5 -12
-12z"/>
<path d="M727 4079 c7 -7 15 -10 18 -7 3 3 -2 9 -12 12 -14 6 -15 5 -6 -5z"/>
<path d="M5980 4080 c0 -5 5 -10 11 -10 5 0 7 5 4 10 -3 6 -8 10 -11 10 -2 0
-4 -4 -4 -10z"/>
<path d="M5757 4066 c-4 -9 -14 -12 -26 -9 -12 3 -21 1 -21 -6 0 -6 14 -11 30
-11 17 0 30 2 30 4 0 2 3 11 6 20 3 9 2 16 -4 16 -5 0 -12 -6 -15 -14z"/>
<path d="M1798 4063 c6 -2 18 -2 25 0 6 3 1 5 -13 5 -14 0 -19 -2 -12 -5z"/>
<path d="M5615 4060 c-3 -5 1 -10 9 -10 8 0 18 5 21 10 3 6 -1 10 -9 10 -8 0
-18 -4 -21 -10z"/>
<path d="M1748 4053 c7 -3 16 -2 19 1 4 3 -2 6 -13 5 -11 0 -14 -3 -6 -6z"/>
<path d="M5870 4050 c0 -5 5 -10 11 -10 5 0 7 5 4 10 -3 6 -8 10 -11 10 -2 0
-4 -4 -4 -10z"/>
<path d="M5900 4050 c0 -5 7 -10 15 -10 8 0 15 5 15 10 0 6 -7 10 -15 10 -8 0
-15 -4 -15 -10z"/>
<path d="M6070 4050 c0 -5 5 -10 10 -10 6 0 10 5 10 10 0 6 -4 10 -10 10 -5 0
-10 -4 -10 -10z"/>
<path d="M3020 4040 c0 -5 5 -10 11 -10 5 0 7 5 4 10 -3 6 -8 10 -11 10 -2 0
-4 -4 -4 -10z"/>
<path d="M3497 4030 c-65 -5 -121 -11 -125 -15 -7 -7 144 0 308 15 l85 7 -75
0 c-41 0 -128 -3 -193 -7z"/>
<path d="M5722 4019 c10 -5 15 -16 12 -24 -4 -8 -1 -15 5 -15 12 0 14 11 5 34
-3 9 -14 16 -23 16 -14 -1 -14 -2 1 -11z"/>
<path d="M6010 4020 c0 -5 5 -10 11 -10 5 0 7 5 4 10 -3 6 -8 10 -11 10 -2 0
-4 -4 -4 -10z"/>
<path d="M5660 4010 c0 -7 24 -20 36 -20 13 0 1 19 -16 23 -11 3 -20 2 -20 -3z"/>
<path d="M6651 4004 c0 -11 3 -14 6 -6 3 7 2 16 -1 19 -3 4 -6 -2 -5 -13z"/>
<path d="M5770 3990 c0 -5 5 -10 10 -10 6 0 10 5 10 10 0 6 -4 10 -10 10 -5 0
-10 -4 -10 -10z"/>
<path d="M5612 3978 c-7 -7 -12 -18 -12 -25 0 -7 -4 -21 -9 -31 -6 -9 -16 -37
-23 -62 -10 -34 -18 -46 -35 -48 -19 -3 -23 -10 -23 -38 0 -21 5 -34 13 -34
17 0 57 29 57 41 0 5 16 25 35 45 33 33 50 68 23 47 -7 -6 -22 -13 -32 -17
-19 -7 -19 -6 -1 14 10 11 24 20 32 20 7 0 13 11 13 25 0 29 15 33 28 8 7 -11
6 -23 -1 -35 -18 -27 7 -48 30 -25 11 11 13 17 5 17 -7 0 -12 -4 -12 -10 0 -5
-4 -10 -9 -10 -5 0 -4 13 2 30 10 26 8 32 -11 51 -13 11 -30 18 -38 15 -12 -4
-14 -1 -9 14 7 22 -5 26 -23 8z"/>
<path d="M2640 3940 c0 -5 5 -10 11 -10 5 0 7 5 4 10 -3 6 -8 10 -11 10 -2 0
-4 -4 -4 -10z"/>
<path d="M2900 3940 c0 -5 5 -10 10 -10 6 0 10 5 10 10 0 6 -4 10 -10 10 -5 0
-10 -4 -10 -10z"/>
<path d="M6614 3916 c-3 -13 -4 -33 -1 -43 3 -10 5 -3 6 16 1 29 3 32 16 21
19 -16 20 -3 0 16 -13 13 -15 12 -21 -10z"/>
<path d="M2593 3913 c9 -9 20 -13 24 -9 4 4 1 11 -7 16 -25 16 -35 11 -17 -7z"/>
<path d="M5745 3900 c4 -6 11 -8 16 -5 14 9 11 15 -7 15 -8 0 -12 -5 -9 -10z"/>
<path d="M2960 3880 c0 -5 5 -10 11 -10 5 0 7 5 4 10 -3 6 -8 10 -11 10 -2 0
-4 -4 -4 -10z"/>
<path d="M5730 3870 c0 -5 5 -10 10 -10 6 0 10 5 10 10 0 6 -4 10 -10 10 -5 0
-10 -4 -10 -10z"/>
<path d="M6650 3846 c0 -15 4 -25 9 -22 10 7 9 31 -2 42 -4 4 -7 -5 -7 -20z"/>
<path d="M6600 3841 c0 -6 5 -13 10 -16 6 -3 10 1 10 9 0 9 -4 16 -10 16 -5 0
-10 -4 -10 -9z"/>
<path d="M1502 3828 c2 -6 17 -13 33 -15 15 -2 45 -13 66 -24 21 -10 43 -19
49 -19 20 0 141 -114 159 -150 10 -19 22 -50 26 -68 3 -18 11 -30 16 -26 15 9
10 47 -11 79 -12 17 -27 44 -34 60 -17 39 -59 80 -99 96 -17 7 -38 22 -46 32
-7 11 -29 25 -47 33 -42 17 -117 19 -112 2z"/>
<path d="M3108 3827 c6 -7 9 -22 6 -33 -4 -14 9 -39 40 -80 83 -107 136 -165
136 -148 0 9 -11 29 -25 46 -14 16 -25 38 -25 49 0 12 -7 19 -19 19 -12 0 -23
11 -29 29 -6 16 -19 34 -30 40 -14 7 -18 17 -15 31 4 14 -2 28 -15 41 -24 21
-40 26 -24 6z"/>
<path d="M5695 3819 c-11 -16 -1 -19 13 -3 7 8 8 14 3 14 -5 0 -13 -5 -16 -11z"/>
<path d="M2183 3765 c-28 -27 -60 -70 -71 -95 -11 -25 -31 -56 -46 -69 -14
-14 -26 -31 -26 -39 0 -21 44 20 76 70 31 48 63 78 97 90 15 6 27 14 27 20 0
5 15 9 33 8 47 -3 52 -1 39 12 -16 16 -15 28 2 28 8 0 18 5 22 11 4 8 -1 9
-17 4 -13 -4 -25 -12 -27 -16 -6 -16 -43 -9 -50 9 -6 15 -14 11 -59 -33z"/>
<path d="M5620 3801 c0 -12 5 -21 10 -21 6 0 10 6 10 14 0 8 -4 18 -10 21 -5
3 -10 -3 -10 -14z"/>
<path d="M6626 3801 c-4 -7 -5 -15 -2 -18 9 -9 19 4 14 18 -4 11 -6 11 -12 0z"/>
<path d="M3565 3589 c-4 -6 -5 -12 -2 -15 2 -3 7 2 10 11 7 17 1 20 -8 4z"/>
<path d="M6659 3578 c-6 -12 -4 -48 2 -48 5 0 9 11 9 25 0 21 -6 33 -11 23z"/>
<path d="M3550 3536 c0 -9 5 -16 10 -16 6 0 10 4 10 9 0 6 -4 13 -10 16 -5 3
-10 -1 -10 -9z"/>
<path d="M3300 3509 c0 -5 11 -32 25 -59 14 -28 25 -52 25 -55 -1 -28 1 -35 8
-31 5 3 9 29 11 57 1 29 4 56 6 59 3 4 -13 14 -35 23 -22 8 -40 11 -40 6z"/>
<path d="M3415 3490 c3 -5 8 -10 11 -10 2 0 4 5 4 10 0 6 -5 10 -11 10 -5 0
-7 -4 -4 -10z"/>
<path d="M3520 3490 c-9 -6 -10 -10 -3 -10 6 0 15 5 18 10 8 12 4 12 -15 0z"/>
<path d="M6640 3455 c0 -8 4 -15 8 -15 5 0 9 7 9 15 0 8 -4 15 -9 15 -4 0 -8
-7 -8 -15z"/>
<path d="M5432 3448 c-9 -9 -12 -101 -12 -355 0 -316 1 -343 18 -351 20 -10
142 -9 160 2 8 5 12 42 12 120 l0 113 79 2 c43 1 94 6 112 11 18 5 34 9 35 7
1 -1 15 -29 32 -62 78 -155 234 -231 391 -191 109 28 218 120 209 177 -2 15
-20 31 -58 50 -70 36 -85 36 -117 -1 -37 -45 -79 -63 -129 -57 -118 13 -181
159 -121 277 55 109 178 122 251 26 15 -20 31 -36 35 -36 4 0 36 19 69 41 80
54 81 71 8 144 -44 45 -65 57 -124 75 -116 35 -232 13 -324 -60 -20 -17 -39
-30 -41 -30 -2 0 -24 20 -49 43 -30 30 -60 48 -91 55 -63 16 -329 16 -345 0z
m309 -175 c6 -6 14 -29 16 -51 7 -58 -17 -78 -88 -77 l-54 1 -3 58 c-2 32 -1
65 2 72 6 17 110 14 127 -3z"/>
<path d="M3377 3354 c-8 -8 1 -24 14 -24 5 0 9 7 9 15 0 15 -12 20 -23 9z"/>
<path d="M3477 3324 c3 -7 9 -14 14 -14 14 0 10 17 -5 23 -10 4 -13 1 -9 -9z"/>
<path d="M1980 3290 c0 -5 4 -10 9 -10 6 0 13 5 16 10 3 6 -1 10 -9 10 -9 0
-16 -4 -16 -10z"/>
<path d="M6611 3235 c0 -11 3 -26 8 -33 7 -11 9 -11 14 2 4 9 2 16 -3 16 -5 0
-11 8 -13 18 -4 14 -5 14 -6 -3z"/>
<path d="M6633 3080 c0 -30 2 -43 4 -27 2 15 2 39 0 55 -2 15 -4 2 -4 -28z"/>
<path d="M5220 3020 c-9 -6 -10 -10 -3 -10 6 0 15 5 18 10 8 12 4 12 -15 0z"/>
<path d="M5265 2990 c-3 -5 -13 -7 -23 -3 -11 4 -10 0 5 -11 18 -13 26 -14 48
-4 18 8 22 14 13 20 -17 11 -36 10 -43 -2z"/>
<path d="M5180 2894 c0 -8 5 -12 10 -9 6 3 10 10 10 16 0 5 -4 9 -10 9 -5 0
-10 -7 -10 -16z"/>
<path d="M5177 2848 c-8 -30 -5 -30 16 -2 14 19 15 24 4 24 -8 0 -17 -10 -20
-22z"/>
<path d="M801 2754 c0 -11 3 -14 6 -6 3 7 2 16 -1 19 -3 4 -6 -2 -5 -13z"/>
<path d="M2090 2716 c0 -2 7 -9 15 -16 13 -11 14 -10 9 4 -5 14 -24 23 -24 12z"/>
<path d="M5215 2700 c4 -6 11 -8 16 -5 14 9 11 15 -7 15 -8 0 -12 -5 -9 -10z"/>
<path d="M5175 2650 c-3 -6 1 -7 9 -4 18 7 21 14 7 14 -6 0 -13 -4 -16 -10z"/>
<path d="M840 2566 c0 -2 7 -7 16 -10 8 -3 12 -2 9 4 -6 10 -25 14 -25 6z"/>
<path d="M3765 2521 c-3 -5 -1 -12 5 -16 12 -7 30 2 30 16 0 12 -27 12 -35 0z"/>
<path d="M4896 2513 c-6 -14 -5 -15 5 -6 7 7 10 15 7 18 -3 3 -9 -2 -12 -12z"/>
<path d="M3040 2495 c0 -8 5 -15 10 -15 6 0 10 7 10 15 0 8 -4 15 -10 15 -5 0
-10 -7 -10 -15z"/>
<path d="M3850 2496 c0 -9 7 -19 15 -23 25 -9 27 2 5 22 -18 17 -20 17 -20 1z"/>
<path d="M4796 2495 c-4 -12 -1 -16 14 -13 24 3 28 22 7 26 -8 2 -17 -4 -21
-13z"/>
<path d="M2340 2489 c0 -5 5 -7 10 -4 6 3 10 8 10 11 0 2 -4 4 -10 4 -5 0 -10
-5 -10 -11z"/>
<path d="M2367 2485 c-4 -8 -2 -17 3 -20 6 -4 10 -4 10 -1 0 2 3 11 6 20 3 9
2 16 -4 16 -5 0 -12 -7 -15 -15z"/>
<path d="M3567 2486 c-11 -28 -8 -36 9 -29 10 4 17 -1 21 -16 3 -11 12 -21 21
-21 12 0 12 4 -4 23 -10 12 -22 24 -25 27 -3 3 -8 12 -11 19 -3 12 -6 11 -11
-3z"/>
<path d="M886 2475 c4 -8 10 -15 15 -15 4 0 6 7 3 15 -4 8 -10 15 -15 15 -4 0
-6 -7 -3 -15z"/>
<path d="M3940 2479 c0 -5 5 -7 10 -4 6 3 10 8 10 11 0 2 -4 4 -10 4 -5 0 -10
-5 -10 -11z"/>
<path d="M2980 2466 c0 -9 5 -16 10 -16 6 0 10 4 10 9 0 6 -4 13 -10 16 -5 3
-10 -1 -10 -9z"/>
<path d="M4577 2466 c-12 -30 -8 -46 9 -39 10 4 17 -1 21 -15 3 -11 12 -23 20
-27 28 -10 26 3 -4 32 -16 15 -29 31 -30 36 -5 25 -10 29 -16 13z"/>
<path d="M4894 2465 c3 -9 6 -19 6 -21 0 -2 7 -4 16 -4 22 0 13 34 -10 38 -14
3 -17 0 -12 -13z"/>
<path d="M4990 2461 c0 -6 5 -13 10 -16 6 -3 10 1 10 9 0 9 -4 16 -10 16 -5 0
-10 -4 -10 -9z"/>
<path d="M2495 2450 c-3 -5 -1 -10 4 -10 6 0 11 5 11 10 0 6 -2 10 -4 10 -3 0
-8 -4 -11 -10z"/>
<path d="M2950 2445 c0 -18 19 -40 26 -32 4 4 0 15 -9 24 -9 10 -17 13 -17 8z"/>
<path d="M2860 2426 c0 -9 5 -16 10 -16 6 0 10 4 10 9 0 6 -4 13 -10 16 -5 3
-10 -1 -10 -9z"/>
<path d="M4760 2419 c-13 -22 -5 -58 9 -43 14 15 22 64 12 64 -6 0 -15 -9 -21
-21z"/>
<path d="M4670 2380 c0 -5 5 -10 10 -10 6 0 10 5 10 10 0 6 -4 10 -10 10 -5 0
-10 -4 -10 -10z"/>
<path d="M6991 2024 c0 -11 3 -14 6 -6 3 7 2 16 -1 19 -3 4 -6 -2 -5 -13z"/>
</g>
</svg>
