<?xml version="1.0" standalone="no"?>
<!DOCTYPE svg PUBLIC "-//W3C//DTD SVG 20010904//EN"
 "http://www.w3.org/TR/2001/REC-SVG-20010904/DTD/svg10.dtd">
<svg version="1.0" xmlns="http://www.w3.org/2000/svg"
 width="1414.000000pt" height="721.000000pt" viewBox="0 0 1414.000000 721.000000"
 preserveAspectRatio="xMidYMid meet">

<g transform="translate(0.000000,721.000000) scale(0.100000,-0.100000)"
fill="#000000" stroke="none">
<path d="M0 3605 l0 -3605 7070 0 7070 0 0 3605 0 3605 -7070 0 -7070 0 0
-3605z m8770 2157 c0 -19 -26 -62 -37 -62 -18 0 -16 19 2 26 8 4 15 15 15 25
0 10 5 19 10 19 6 0 10 -4 10 -8z m-120 -17 c0 -8 -4 -15 -10 -15 -5 0 -10 7
-10 15 0 8 5 15 10 15 6 0 10 -7 10 -15z m190 -34 c0 -5 12 -11 28 -13 15 -2
27 -9 27 -17 0 -23 -22 -24 -44 -2 -12 12 -26 21 -32 21 -5 0 -7 5 -4 10 8 13
25 13 25 1z m4044 -51 c-5 -5 -25 -12 -44 -15 l-35 -5 35 14 c42 18 58 20 44
6z m255 -6 c2 -2 -36 -4 -85 -4 -49 0 -99 -3 -112 -6 -21 -6 -19 -8 20 -26 90
-40 70 -63 -64 -71 -95 -6 -132 -12 -182 -33 -14 -5 -17 -4 -11 5 5 10 2 12
-11 8 -11 -3 -39 -9 -64 -12 -35 -6 -42 -4 -33 5 23 25 147 52 247 55 130 4
155 25 31 26 l-90 1 48 13 c26 7 54 19 62 25 26 21 77 29 160 23 44 -3 82 -7
84 -9z m-4329 -4 c0 -5 -4 -10 -9 -10 -6 0 -13 5 -16 10 -3 6 1 10 9 10 9 0
16 -4 16 -10z m3813 -17 c-7 -2 -19 -2 -25 0 -7 3 -2 5 12 5 14 0 19 -2 13 -5z
m-148 -24 c27 -1 15 -4 -35 -10 -41 -5 -122 -19 -180 -31 -84 -19 -98 -24 -67
-26 51 -4 47 -18 -9 -26 -63 -8 -190 -6 -149 3 26 6 27 8 11 14 -42 16 -298
-23 -406 -63 l-55 -20 54 5 c38 3 51 1 44 -6 -6 -6 -55 -15 -109 -20 -113 -10
-744 -50 -759 -48 -25 4 101 21 206 27 114 7 149 18 149 47 0 35 -137 29 -330
-16 -131 -30 -300 -51 -300 -37 0 30 -359 -35 -452 -83 -21 -11 -36 -24 -33
-29 3 -6 -20 -7 -58 -3 -35 3 -191 0 -348 -7 -156 -7 -293 -11 -304 -10 -75
11 -218 -23 -255 -60 -17 -17 -34 -20 -127 -20 -63 0 -102 -4 -95 -9 17 -10
-57 -23 -148 -26 -93 -2 -102 -4 -95 -15 3 -6 -1 -7 -9 -4 -25 10 -19 22 26
50 33 21 38 28 26 35 -16 9 -325 28 -346 21 -19 -7 -26 -49 -12 -82 7 -16 26
-38 44 -49 l31 -20 -140 6 c-109 4 -157 2 -219 -11 -91 -19 -129 -21 -106 -6
16 10 -11 7 -119 -11 -75 -12 -77 -12 -47 12 43 34 33 42 -41 34 -143 -14
-329 -62 -352 -89 -8 -10 24 -7 122 9 194 33 210 35 203 28 -6 -7 -184 -50
-261 -63 -56 -10 -214 -11 -175 -1 15 3 -10 8 -60 11 l-85 5 147 48 c184 60
367 130 313 121 -22 -4 -74 -8 -115 -10 -52 -1 -104 -11 -173 -33 -122 -40
-262 -104 -270 -123 -4 -12 -15 -14 -52 -8 -57 9 -74 23 -54 46 12 15 9 16
-41 9 -30 -4 -102 -23 -160 -42 -58 -19 -127 -37 -153 -40 -27 -3 -43 -9 -37
-13 6 -4 -45 -10 -114 -14 -108 -6 -130 -5 -154 10 -26 15 -32 15 -96 -5 -84
-26 -86 -26 -86 -1 0 13 -7 20 -20 20 -27 0 -80 -27 -80 -42 0 -10 -85 -7
-212 9 -34 4 -48 2 -48 -7 0 -6 9 -14 20 -17 24 -6 16 -23 -11 -23 -10 0 -19
-5 -19 -11 0 -7 12 -9 33 -6 17 3 41 7 52 9 32 5 25 -32 -10 -54 -63 -38 -77
-35 -104 20 -15 29 -20 32 -66 32 l-50 1 37 16 c41 16 47 36 25 76 -6 12 -13
23 -13 25 -1 2 -78 -26 -170 -62 -93 -35 -178 -68 -189 -72 l-20 -7 20 23 20
23 -25 -6 c-122 -33 -460 -66 -715 -71 -153 -3 -210 -7 -244 -20 -48 -18 -74
-21 -51 -6 21 13 12 13 -135 -4 -140 -17 -175 -24 -175 -38 0 -6 -29 -8 -78
-6 -48 3 -118 -2 -187 -13 -60 -11 -119 -16 -130 -12 -25 8 186 42 266 43 56
0 56 0 55 30 -1 28 -2 29 -41 24 -88 -13 -297 -57 -420 -89 -156 -40 -311 -53
-513 -41 -34 2 -65 0 -68 -5 -9 -15 -24 -10 -17 6 3 9 20 23 37 32 17 9 34 21
38 26 5 8 15 7 32 -3 19 -10 36 -11 62 -4 41 11 42 30 1 27 -26 -1 -27 0 -10
13 17 13 16 14 -7 9 -14 -3 -54 -9 -89 -15 -73 -11 -90 -20 -40 -21 42 -1 27
-8 -78 -39 -40 -11 -73 -25 -73 -30 0 -4 -35 -10 -78 -12 -42 -2 -133 -16
-202 -30 -156 -33 -220 -42 -202 -30 9 6 -40 8 -130 6 -310 -9 -324 -10 -369
-33 -23 -12 -48 -20 -55 -17 -8 3 -32 -1 -55 -9 -49 -17 -70 -19 -49 -4 11 8
-3 9 -52 5 -37 -4 -75 -9 -83 -12 -19 -8 -19 -24 0 -24 8 0 15 -5 15 -10 0
-11 -40 6 -50 20 -3 5 -28 4 -56 0 -27 -5 -93 -11 -145 -15 -52 -4 -102 -12
-112 -17 -18 -9 -18 -10 0 -23 14 -12 15 -15 3 -16 -78 -7 -91 -33 -53 -106
22 -42 25 -55 15 -62 -10 -6 -9 -22 7 -82 10 -41 19 -81 19 -89 0 -8 11 -55
26 -104 14 -48 26 -99 26 -111 0 -26 17 -76 28 -85 15 -11 82 -230 81 -266 -1
-37 -2 -35 -26 34 -13 39 -29 72 -33 72 -5 0 2 -30 16 -66 14 -37 23 -69 20
-71 -3 -3 10 -35 28 -72 18 -36 45 -113 60 -171 15 -58 36 -134 48 -169 12
-36 23 -86 25 -113 6 -72 37 -162 79 -231 28 -46 39 -75 42 -116 2 -31 10 -63
17 -71 20 -23 39 -75 84 -229 23 -78 44 -150 47 -159 3 -9 -1 -6 -10 8 -15 25
-15 24 -10 -15 3 -30 2 -35 -5 -20 -16 33 -12 5 12 -85 19 -73 27 -88 54 -105
20 -13 32 -28 33 -42 0 -13 4 -23 9 -23 5 0 16 -3 25 -6 12 -5 16 1 16 24 0
44 16 48 49 11 16 -17 35 -29 43 -26 9 4 6 8 -9 12 -32 10 -28 25 6 25 l28 0
-10 45 c-8 37 -14 45 -33 45 -12 0 -25 8 -29 18 -13 31 -11 87 3 104 12 14 11
36 -9 152 -24 140 -28 148 -69 126 -18 -9 -18 -13 -5 -56 18 -61 4 -98 -34
-89 -14 4 -27 7 -27 8 -1 1 -11 21 -23 45 l-22 42 23 9 c13 5 30 22 38 37 8
16 22 37 32 47 21 21 15 37 -13 37 -12 0 -17 4 -13 11 3 6 22 9 40 7 39 -5 38
-11 20 114 -6 48 -9 85 -5 82 10 -6 32 23 27 37 -3 8 -9 6 -21 -5 -15 -15 -17
-15 -17 -2 0 9 -8 16 -17 16 -13 0 -14 3 -5 12 7 7 12 33 12 59 0 26 3 49 8
52 4 2 2 3 -4 1 -6 -1 -17 3 -23 9 -14 14 -15 47 -1 47 6 0 7 19 4 48 -10 88
-12 92 -44 92 -34 0 -34 0 -17 32 11 23 14 23 27 9 14 -14 15 -13 18 8 2 13
-1 28 -7 34 -14 14 -14 30 -1 22 5 -3 8 0 5 7 -7 18 -42 457 -55 683 -16 276
-15 275 -51 282 -29 5 -29 6 -29 72 0 102 14 137 62 162 22 11 61 22 85 24 39
2 49 -1 75 -29 27 -28 30 -36 25 -81 -3 -27 -7 -57 -9 -65 -2 -12 10 -16 59
-18 71 -3 63 -15 82 121 17 123 24 124 81 5 22 -44 44 -86 50 -93 7 -8 9 -18
7 -22 -3 -5 12 -7 34 -5 30 3 39 8 39 23 0 11 -7 19 -17 20 -17 1 -17 2 0 6
10 3 17 14 17 27 0 51 53 61 107 20 26 -20 33 -32 33 -60 l0 -34 129 0 c144 0
351 -31 643 -95 176 -39 235 -62 363 -146 160 -105 246 -219 286 -379 28 -109
128 -320 141 -297 6 12 5 29 -3 52 -12 31 -11 37 9 58 24 26 27 39 12 66 -8
16 -14 17 -49 8 -57 -15 -63 -1 -17 39 46 40 57 41 102 13 27 -16 37 -18 54
-9 18 9 25 8 41 -6 19 -17 27 -50 9 -39 -6 3 -10 -4 -10 -17 0 -14 -16 -37
-40 -59 -24 -22 -40 -46 -40 -59 0 -14 23 -44 61 -82 58 -57 61 -61 61 -109
-1 -27 -4 -54 -7 -59 -3 -6 -24 -10 -46 -10 -26 0 -39 -4 -39 -14 0 -7 18 -52
40 -99 22 -47 40 -94 40 -105 0 -33 -58 -265 -110 -437 -26 -88 -65 -222 -85
-297 -35 -128 -41 -141 -86 -192 -27 -30 -49 -57 -49 -60 0 -3 42 -6 93 -6
112 0 101 -19 -13 -21 -41 -1 -61 -4 -45 -6 17 -2 40 -9 52 -15 28 -14 144 -3
158 15 11 13 327 18 318 4 -2 -4 17 -8 44 -8 26 -1 39 -3 28 -6 -11 -3 -24 -9
-29 -14 -16 -15 61 -10 100 6 31 13 34 17 24 35 -6 12 -9 28 -6 35 3 8 1 17
-4 20 -15 10 -12 33 5 37 12 2 9 11 -14 38 -17 19 -30 29 -31 23 0 -18 -20
-16 -42 4 -25 23 -22 36 7 31 21 -4 23 -3 14 9 -7 7 -12 28 -13 45 -1 17 -7
33 -15 36 -10 3 -12 -1 -8 -18 8 -32 -209 184 -234 233 -32 61 -35 122 -9 192
65 178 78 297 60 543 l-12 167 37 100 c43 114 146 322 203 408 l38 59 190 79
c104 44 194 85 199 92 6 7 17 11 25 10 9 -2 60 46 120 112 57 64 114 118 125
120 11 2 109 15 218 29 l197 25 86 -30 c46 -16 89 -27 95 -23 6 3 16 -1 22
-10 7 -8 74 -34 150 -56 133 -40 139 -41 153 -23 13 17 14 17 20 -4 4 -14 17
-23 37 -27 43 -9 152 -68 153 -83 3 -26 4 -28 13 -15 6 11 25 2 82 -39 185
-132 202 -149 284 -300 111 -201 242 -536 286 -732 11 -44 17 -56 29 -52 8 4
71 41 140 82 323 197 460 285 460 295 0 7 -10 42 -22 79 l-22 68 -24 -24 c-14
-14 -35 -25 -48 -25 -27 0 -32 17 -9 26 12 5 13 10 4 20 -15 18 -3 34 26 34
13 0 26 4 29 9 7 11 -13 73 -28 86 -7 6 -12 27 -12 49 0 25 -6 43 -17 51 -10
7 -15 19 -12 26 3 8 -12 66 -33 129 -36 105 -41 115 -63 113 -13 -1 -63 -5
-112 -8 -48 -4 -85 -11 -81 -16 3 -5 1 -9 -5 -9 -5 0 -11 4 -13 8 -1 5 -66 3
-143 -4 -77 -6 -142 -9 -145 -7 -10 10 -4 167 7 170 15 5 2 49 -32 106 l-26
46 27 40 c20 32 25 49 21 75 -3 19 -3 52 0 75 l6 41 98 0 c89 0 104 3 163 31
62 29 64 32 55 56 -5 14 -7 28 -5 31 3 2 8 -8 12 -23 l7 -27 96 4 c53 3 106 0
117 -5 16 -7 46 -2 110 17 49 14 119 33 156 42 49 12 65 20 61 30 -3 8 1 14
10 14 8 0 17 -4 19 -9 2 -5 89 8 193 29 173 36 183 39 110 35 -44 -3 -129 -7
-190 -10 -60 -3 -291 -17 -513 -31 -222 -14 -408 -23 -415 -21 -30 10 234 30
804 62 618 35 697 38 604 24 -63 -9 285 0 419 11 54 5 102 13 105 18 3 5 60
12 126 16 83 5 131 13 157 25 20 10 36 14 35 8 -1 -5 4 -12 10 -14 9 -3 9 6
-2 38 -8 23 -13 44 -11 47 3 2 8 -8 12 -23 l7 -28 110 6 c68 4 118 2 130 -4
14 -8 54 -2 161 25 342 86 718 130 1384 160 111 5 112 5 112 -17 0 -56 10 -67
56 -67 l44 0 0 -65 c0 -41 -7 -84 -20 -117 -22 -59 -25 -101 -9 -168 6 -25 11
-103 11 -175 l1 -130 -41 -88 -41 -87 -52 20 c-49 20 -164 50 -201 53 -9 1
-15 4 -12 8 2 4 -20 21 -50 38 -57 33 -84 36 -195 25 l-61 -7 0 -123 0 -124
131 80 c71 44 128 76 125 72 -3 -5 -61 -46 -130 -91 -121 -80 -124 -84 -120
-114 2 -18 11 -98 19 -179 9 -80 23 -170 31 -199 13 -43 14 -60 4 -95 -7 -24
-9 -61 -6 -86 4 -24 11 -88 15 -143 5 -59 19 -132 34 -178 l26 -79 -60 -86
c-59 -85 -60 -87 -40 -101 27 -17 27 -51 1 -58 -17 -5 -20 -14 -20 -67 0 -48
-5 -69 -23 -96 -31 -46 -57 -124 -57 -172 0 -31 4 -38 19 -38 31 0 33 -16 6
-56 l-25 -37 0 32 c0 33 -25 44 -36 16 -4 -8 -13 -15 -22 -15 -20 0 -52 -29
-52 -47 0 -12 33 -19 70 -14 56 7 97 -2 74 -17 -6 -4 -14 -17 -18 -29 -4 -13
-10 -23 -14 -23 -4 0 -18 -9 -32 -20 l-25 -20 25 9 c14 5 42 16 62 25 47 20
48 20 48 -5 0 -11 -4 -17 -10 -14 -5 3 -10 -1 -10 -9 0 -8 -8 -20 -17 -25 -17
-10 -17 -12 1 -25 24 -19 11 -38 -22 -34 -15 2 -27 -1 -27 -7 -1 -5 -20 -30
-43 -55 -23 -25 -42 -48 -42 -52 0 -5 32 12 72 37 39 24 74 43 76 41 7 -8 -77
-114 -108 -136 -32 -22 -40 -50 -15 -50 9 0 12 6 9 15 -4 8 -1 15 5 15 6 0 11
-4 11 -8 0 -4 9 -8 20 -9 15 -1 20 4 20 23 0 14 4 22 10 19 6 -3 10 -15 10
-25 0 -24 20 -37 30 -20 10 16 47 16 121 2 58 -11 419 -19 435 -10 15 8 394 2
737 -11 175 -7 363 -11 417 -9 55 2 95 1 91 -2 -5 -3 59 -5 142 -5 241 -1 406
-14 447 -35 19 -9 59 -25 88 -35 50 -16 73 -37 57 -53 -15 -15 -282 -18 -410
-5 -119 12 -131 12 -142 -3 -15 -21 -78 -22 -313 -5 -106 8 -452 14 -875 16
-385 2 -745 6 -799 11 -59 4 -97 3 -93 -2 3 -5 -11 -8 -33 -6 -44 4 -113 -15
-105 -29 4 -5 17 -9 31 -9 28 0 33 -28 7 -36 -10 -3 -33 -13 -50 -22 -45 -22
-60 -6 -36 36 10 17 15 33 13 35 -3 3 -23 9 -45 13 -35 6 -38 5 -27 -8 12 -15
7 -48 -8 -48 -38 0 -55 41 -24 58 13 7 9 11 -21 16 -23 5 -42 3 -48 -3 -6 -6
-45 -11 -87 -11 -68 0 -84 -4 -159 -40 -77 -38 -82 -42 -65 -55 15 -10 16 -16
7 -26 -8 -8 -9 -16 -1 -29 11 -17 9 -28 -11 -60 -6 -8 -12 -28 -16 -43 -9 -43
-22 -24 -28 42 -6 71 -11 81 -37 74 -24 -6 -26 -38 -5 -59 19 -20 19 -43 -1
-51 -22 -8 -36 10 -43 54 -5 29 -11 38 -25 36 -29 -2 -7 12 69 46 39 17 64 31
57 31 -7 0 -23 -5 -34 -11 -17 -9 -24 -7 -44 17 -13 16 -26 41 -29 57 -8 32
-24 34 -56 7 l-24 -20 23 -6 c26 -7 30 -34 5 -34 -9 0 -25 7 -35 17 -17 15
-18 15 -18 -9 0 -14 6 -28 14 -31 8 -3 21 -19 29 -35 13 -27 13 -31 -2 -35 -9
-3 -24 -8 -35 -12 -17 -8 -18 -5 -12 38 5 31 4 47 -3 47 -14 0 -14 47 -1 55 6
3 10 15 10 26 0 18 -9 19 -220 19 -187 0 -222 2 -226 15 -7 17 -31 20 -36 5
-4 -13 -348 -15 -492 -3 -89 8 -123 15 -132 27 -17 24 -113 19 -98 -5 3 -5
-54 -9 -132 -9 -120 0 -135 -2 -124 -15 12 -15 7 -45 -8 -45 -4 0 -17 6 -27
14 -15 11 -17 17 -7 28 10 12 -4 14 -101 10 -101 -3 -118 -7 -173 -35 -55 -27
-60 -33 -50 -49 8 -14 8 -21 -3 -27 -9 -6 -10 -11 -2 -15 16 -10 14 -41 -4
-56 -8 -7 -15 -26 -15 -42 0 -50 -17 -22 -23 38 -7 66 -16 79 -42 61 -17 -14
-17 -15 1 -45 14 -24 15 -35 7 -43 -18 -18 -43 7 -43 43 0 22 -6 31 -21 35
-17 5 -9 11 37 30 32 13 63 28 69 34 7 8 4 8 -12 0 -34 -17 -41 -14 -65 29
-15 26 -30 40 -44 40 -32 0 -37 -13 -12 -32 l23 -18 -32 0 c-17 0 -34 6 -36
13 -3 6 -6 0 -6 -15 -1 -17 4 -28 12 -28 7 0 17 -13 23 -28 10 -27 9 -30 -18
-40 -29 -11 -29 -11 -27 26 1 20 -2 45 -6 56 -5 11 -3 27 4 38 7 11 10 23 6
26 -9 9 -337 20 -429 14 -74 -5 -77 -6 -50 -18 25 -12 13 -13 -96 -8 -69 3
-147 10 -174 16 -73 16 -175 3 -326 -40 -74 -22 -166 -45 -204 -53 -51 -10
-70 -18 -74 -31 -2 -10 -11 -18 -19 -18 -10 0 -13 6 -9 16 5 13 1 14 -27 9
-17 -4 -36 -10 -42 -13 -13 -8 -47 -3 -62 10 -9 7 -13 7 -13 0 0 -6 6 -12 13
-15 6 -2 -4 -5 -23 -5 -19 0 -74 -19 -123 -42 -157 -74 -261 -84 -433 -40 -42
11 -92 20 -110 20 -18 0 -37 6 -41 14 -4 8 -34 26 -66 40 -31 13 -57 31 -57
39 0 8 -12 17 -28 20 -38 7 -39 1 -3 -18 32 -16 34 -35 3 -35 -25 0 -64 30
-58 45 2 7 -6 17 -20 23 -15 8 -22 17 -18 27 3 8 1 15 -6 15 -6 0 -8 -4 -5
-10 11 -17 -6 -11 -65 25 -67 41 -83 43 -98 13 l-11 -23 -7 22 c-8 30 -56 31
-84 3 -24 -24 -28 -25 -52 -3 -17 15 -19 15 -36 0 -10 -10 -35 -17 -56 -17
-32 0 -38 4 -47 30 -10 28 -14 30 -62 30 -68 0 -127 10 -127 21 0 5 11 7 25 3
14 -3 25 -2 25 4 0 15 -118 26 -144 14 -11 -6 -30 -14 -41 -18 -16 -6 -12 -9
20 -14 35 -5 31 -7 -40 -14 -44 -4 -102 -15 -128 -23 -39 -13 -85 -15 -244
-11 -108 2 -188 1 -177 -3 10 -4 47 -8 82 -8 66 -1 149 -18 157 -32 3 -4 -4
-31 -15 -59 -11 -28 -20 -62 -20 -76 0 -34 -26 -41 -58 -15 -15 12 -39 29 -53
38 -14 9 -30 26 -35 37 -12 28 -52 31 -91 6 -23 -14 -33 -27 -33 -44 0 -14 -5
-37 -12 -51 -13 -28 -49 -33 -94 -13 -23 11 -26 16 -21 54 2 22 14 54 25 70
12 16 24 41 28 57 l6 27 -83 1 c-175 3 -225 -11 -294 -86 l-41 -45 -144 -24
c-255 -43 -610 -68 -673 -47 -49 16 -110 86 -154 175 -43 88 -52 92 -160 76
-98 -14 -160 -1 -232 46 -49 33 -108 125 -122 192 -6 31 -17 77 -24 102 -7 25
-10 59 -8 75 3 20 -18 98 -62 230 -48 142 -69 220 -72 270 -3 39 -10 79 -16
90 -16 31 -119 318 -120 337 -1 9 -5 15 -9 12 -4 -2 -6 4 -6 13 1 10 -6 42
-15 71 -9 29 -28 115 -42 189 -26 138 -50 212 -62 199 -4 -3 -15 26 -25 65
-10 39 -44 137 -74 216 -59 157 -75 230 -54 243 16 10 -5 80 -25 80 -18 0 -31
24 -39 75 -5 28 -4 35 3 25 7 -10 8 3 4 41 -8 80 16 145 80 216 29 31 45 53
37 48 -10 -5 -8 -1 4 13 43 49 92 62 238 62 151 0 175 4 157 27 -11 12 -5 13
39 7 44 -6 52 -4 52 10 0 17 16 22 22 7 5 -16 488 3 523 21 20 10 91 19 206
27 97 6 190 16 208 21 55 16 413 43 391 30 -26 -16 25 -20 74 -5 27 8 78 15
113 15 56 0 67 3 86 26 15 17 42 30 82 40 73 17 108 19 85 4 -10 -6 -3 -7 24
-3 24 4 37 2 33 -3 -3 -6 24 -5 66 2 58 10 259 19 372 16 121 -3 205 0 205 7
0 4 66 11 147 15 82 4 272 16 423 27 151 11 357 22 458 24 101 3 210 9 244 15
33 6 66 9 73 6 10 -4 110 11 317 48 24 4 28 4 13 -3 -16 -7 -17 -10 -5 -14 44
-15 82 -13 154 10 54 17 82 21 89 14 13 -13 184 -4 252 15 90 24 267 45 410
50 165 5 196 10 188 30 -3 9 2 14 15 14 20 0 23 14 8 38 -13 21 0 41 23 35 14
-3 21 -14 21 -29 0 -20 5 -24 33 -25 17 -1 24 -3 15 -6 -10 -2 -18 -9 -18 -15
0 -7 19 -8 58 -3 31 4 68 7 82 7 69 -4 371 21 485 39 99 16 206 23 455 29 312
7 385 13 375 30 -6 9 28 15 226 36 88 10 159 21 159 25 0 5 23 11 50 15 39 5
48 9 40 19 -8 9 -8 15 0 20 15 9 32 -5 26 -21 -3 -8 -4 -14 -2 -14 2 0 66 7
143 16 131 14 243 19 738 28 148 3 227 9 268 20 32 9 75 15 95 15 l37 -1 -30
-8 c-27 -7 -26 -8 15 -9 78 -2 183 11 168 21 -8 5 13 6 52 3 38 -4 117 0 190
9 69 8 181 20 250 25 69 6 188 19 265 30 156 23 470 38 461 23 -9 -15 94 -24
134 -12 43 12 43 12 34 -1 -4 -8 5 -9 32 -5 22 3 90 13 152 22 106 15 134 27
95 37 -10 3 3 5 30 6 26 0 47 6 47 12 0 5 4 8 8 5 29 -17 478 4 512 25 8 5 24
7 35 4 11 -3 38 -5 60 -6z m-302 -6 c-7 -2 -19 -2 -25 0 -7 3 -2 5 12 5 14 0
19 -2 13 -5z m1147 -32 c19 -14 38 -26 42 -26 3 0 10 -4 15 -9 5 -5 2 -6 -6
-1 -9 5 -12 3 -9 -6 3 -8 11 -13 17 -11 7 1 10 -2 7 -7 -4 -5 -1 -11 4 -13 13
-4 40 -103 39 -138 -2 -23 -2 -24 -6 -2 -5 26 -23 30 -23 5 0 -10 -12 7 -26
37 -14 30 -37 70 -50 88 -37 48 -24 60 21 21 28 -25 35 -28 27 -13 -6 12 -35
43 -64 70 -54 49 -50 51 12 5z m-4633 9 c2 -8 -1 -22 -7 -30 -13 -20 -44 -1
-48 29 -3 19 0 22 25 19 15 -2 29 -10 30 -18z m-127 -28 c0 -15 -2 -15 -10 -2
-13 20 -13 33 0 25 6 -3 10 -14 10 -23z m310 1 c0 -13 -3 -13 -15 -3 -8 7 -12
16 -9 21 8 13 24 1 24 -18z m3570 8 c0 -10 -110 -22 -124 -13 -6 4 5 10 24 13
54 10 100 10 100 0z m97 3 c-3 -3 -12 -4 -19 -1 -8 3 -5 6 6 6 11 1 17 -2 13
-5z m-1006 -20 c-18 -8 -48 -14 -65 -12 -30 4 -29 4 14 15 66 16 92 14 51 -3z
m1654 6 l20 -9 -20 1 c-11 0 -31 4 -45 8 l-25 8 25 0 c14 0 34 -3 45 -8z
m-830 -40 c4 -6 -7 -10 -27 -10 -25 0 -29 3 -18 10 19 13 37 13 45 0z m-3705
-15 c0 -8 -4 -15 -10 -15 -5 0 -10 7 -10 15 0 8 5 15 10 15 6 0 10 -7 10 -15z
m100 6 c0 -16 -19 -23 -40 -16 -30 10 -24 25 10 25 17 0 30 -4 30 -9z m310 -7
c0 -17 -22 -14 -28 4 -2 7 3 12 12 12 9 0 16 -7 16 -16z m2803 -21 c-18 -2
-48 -2 -65 0 -18 2 -4 4 32 4 36 0 50 -2 33 -4z m-2928 -32 c7 -12 -12 -24
-25 -16 -11 7 -4 25 10 25 5 0 11 -4 15 -9z m-2170 -82 c-9 -16 -20 -29 -25
-29 -16 0 -12 20 5 26 8 4 15 15 15 26 0 10 4 16 10 13 6 -4 4 -17 -5 -36z
m-95 16 c0 -8 -4 -15 -10 -15 -5 0 -10 7 -10 15 0 8 5 15 10 15 6 0 10 -7 10
-15z m3755 -15 c-16 -4 -48 -8 -70 -8 l-40 1 35 7 c19 4 51 7 70 8 l35 0 -30
-8z m410 -9 c17 -7 17 -8 -8 -13 -19 -4 -27 -1 -27 8 0 15 6 16 35 5z m-3995
-11 c0 -5 11 -10 25 -10 16 0 25 -6 25 -15 0 -20 -20 -18 -47 4 -25 21 -29 31
-13 31 6 0 10 -4 10 -10z m3425 -40 c-111 -21 -141 -23 -110 -10 l20 9 -20 2
c-39 4 61 16 135 16 l75 1 -100 -18z m225 0 c-14 -4 -41 -8 -60 -8 -32 0 -33
1 -10 8 14 4 41 8 60 8 32 0 33 -1 10 -8z m-3680 -10 c0 -5 -4 -10 -10 -10 -5
0 -10 5 -10 10 0 6 5 10 10 10 6 0 10 -4 10 -10z m3301 -21 c-16 -6 -28 -6
-35 1 -7 7 1 10 25 9 32 0 33 -1 10 -10z m3323 -101 c5 -52 3 -78 -4 -78 -6 0
-10 32 -10 82 0 45 2 79 4 77 2 -2 6 -39 10 -81z m-3824 56 c0 -2 -12 -4 -27
-4 -21 0 -24 3 -14 9 13 8 41 5 41 -5z m-1110 -14 c0 -11 -7 -20 -15 -20 -13
0 -14 4 -5 20 6 11 13 20 15 20 3 0 5 -9 5 -20z m748 9 c-2 -6 -8 -10 -13 -10
-5 0 -11 4 -13 10 -2 6 4 11 13 11 9 0 15 -5 13 -11z m3632 5 c-93 -13 -949
-87 -1195 -104 -165 -11 -734 -40 -1265 -65 -531 -25 -1318 -68 -1749 -95
-431 -28 -786 -49 -788 -47 -2 2 88 16 199 31 162 22 435 40 1348 92 630 36
1323 74 1540 85 217 11 717 40 1110 63 630 38 882 51 800 40z m-6290 -19 c0
-8 -2 -15 -4 -15 -2 0 -6 7 -10 15 -3 8 -1 15 4 15 6 0 10 -7 10 -15z m280 -1
c0 -17 -22 -14 -28 4 -2 7 3 12 12 12 9 0 16 -7 16 -16z m-950 -24 c0 -5 -4
-10 -10 -10 -5 0 -10 5 -10 10 0 6 5 10 10 10 6 0 10 -4 10 -10z m7560 -148
c-6 -14 -12 -23 -14 -21 -3 2 -1 45 2 94 l6 90 9 -69 c6 -48 5 -77 -3 -94z
m-7385 88 c-3 -5 -10 -10 -16 -10 -5 0 -9 5 -9 10 0 6 7 10 16 10 8 0 12 -4 9
-10z m60 0 c-3 -5 -10 -10 -16 -10 -5 0 -9 5 -9 10 0 6 7 10 16 10 8 0 12 -4
9 -10z m7225 -144 c0 -77 -6 -69 -14 19 -5 49 -4 66 3 55 6 -8 11 -42 11 -74z
m-11066 48 c40 -15 -10 -74 -63 -74 -17 0 -21 6 -21 33 0 19 3 37 7 40 8 9 56
9 77 1z m9682 -61 c-11 -11 -19 6 -11 24 8 17 8 17 12 0 3 -10 2 -21 -1 -24z
m-5131 20 c-16 -2 -40 -9 -53 -15 -28 -15 -106 -17 -110 -3 -4 13 48 22 128
22 36 0 52 -2 35 -4z m5022 -19 c-9 -9 -28 6 -21 18 4 6 10 6 17 -1 6 -6 8
-13 4 -17z m-573 -24 c18 -46 16 -45 141 -25 50 8 100 15 112 15 12 0 46 -23
78 -52 50 -45 54 -53 39 -61 -12 -7 -19 -7 -22 1 -2 6 -10 8 -18 5 -8 -3 -21
0 -29 7 -12 10 -15 9 -15 -9 0 -28 -36 -29 -45 -1 -3 11 -14 20 -24 20 -9 0
-21 4 -26 9 -10 8 -97 32 -102 28 -1 -2 33 -27 75 -56 61 -42 71 -52 47 -47
-16 3 -48 8 -70 12 -22 4 -57 15 -77 25 -22 12 -58 19 -90 19 -51 0 -55 2 -92
45 l-37 45 63 29 c35 16 66 30 69 30 4 1 14 -17 23 -39z m-1634 -6 c0 -17 -22
-14 -28 4 -2 7 3 12 12 12 9 0 16 -7 16 -16z m2003 -1 c56 -31 62 -51 15 -46
-74 9 -105 49 -50 62 2 1 18 -7 35 -16z m302 7 c-3 -5 -13 -10 -21 -10 -8 0
-12 5 -9 10 3 6 13 10 21 10 8 0 12 -4 9 -10z m85 0 c0 -5 -5 -10 -11 -10 -5
0 -7 5 -4 10 3 6 8 10 11 10 2 0 4 -4 4 -10z m-6580 -25 l34 -25 -40 0 c-23 0
-62 -6 -87 -14 -26 -8 -47 -12 -47 -10 0 3 101 74 105 74 1 0 16 -11 35 -25z
m6632 7 c12 -5 15 -11 8 -21 -7 -12 -13 -13 -35 -3 -42 19 -17 41 27 24z
m1315 -14 c-3 -8 -6 -5 -6 6 -1 11 2 17 5 13 3 -3 4 -12 1 -19z m-5912 2 c3
-6 -4 -10 -17 -10 -18 0 -20 2 -8 10 19 12 18 12 25 0z m-655 -10 c0 -5 -7
-10 -15 -10 -8 0 -15 5 -15 10 0 6 7 10 15 10 8 0 15 -4 15 -10z m340 0 c0 -5
-7 -10 -15 -10 -8 0 -15 5 -15 10 0 6 7 10 15 10 8 0 15 -4 15 -10z m4835 -19
c10 -17 -12 -21 -25 -6 -10 12 -10 15 3 15 9 0 18 -4 22 -9z m-141 -57 c24 -9
21 -54 -4 -54 -21 0 -45 34 -35 50 7 12 17 12 39 4z m-10424 -24 c0 -5 -4 -10
-10 -10 -5 0 -10 5 -10 10 0 6 5 10 10 10 6 0 10 -4 10 -10z m420 -10 c0 -5
-4 -10 -10 -10 -5 0 -10 5 -10 10 0 6 5 10 10 10 6 0 10 -4 10 -10z m2293 3
c-7 -2 -19 -2 -25 0 -7 3 -2 5 12 5 14 0 19 -2 13 -5z m7477 -27 c-14 -14 -24
0 -16 21 6 15 8 15 16 3 6 -9 5 -19 0 -24z m130 19 c0 -8 -4 -15 -10 -15 -5 0
-10 7 -10 15 0 8 5 15 10 15 6 0 10 -7 10 -15z m310 0 c0 -8 -7 -15 -15 -15
-8 0 -15 7 -15 15 0 8 7 15 15 15 8 0 15 -7 15 -15z m-10598 -21 c-4 -23 -6
-24 -20 -11 -16 16 -9 37 12 37 9 0 12 -9 8 -26z m2626 19 c-10 -2 -26 -2 -35
0 -10 3 -2 5 17 5 19 0 27 -2 18 -5z m-2723 -23 c0 -7 -6 -15 -12 -17 -8 -3
-13 4 -13 17 0 13 5 20 13 18 6 -3 12 -11 12 -18z m9995 10 c0 -15 -47 -42
-67 -38 -14 3 -11 9 17 26 39 24 50 27 50 12z m175 -30 c6 -10 -41 -37 -50
-28 -3 3 -3 13 1 22 7 18 39 22 49 6z m65 -10 c-11 -20 -50 -28 -50 -10 0 11
29 29 48 30 10 0 10 -5 2 -20z m-10160 0 c0 -5 -4 -10 -10 -10 -5 0 -10 5 -10
10 0 6 5 10 10 10 6 0 10 -4 10 -10z m10400 -6 c0 -17 -22 -14 -28 4 -2 7 3
12 12 12 9 0 16 -7 16 -16z m93 9 c4 -3 2 -12 -4 -19 -8 -10 -16 -10 -34 -2
-14 6 -22 15 -19 19 6 11 48 12 57 2z m310 1 c3 -3 3 -12 0 -20 -4 -11 -9 -12
-19 -3 -8 6 -11 15 -8 20 6 10 18 12 27 3z m-6165 -33 c3 -8 -1 -12 -9 -9 -7
2 -15 10 -17 17 -3 8 1 12 9 9 7 -2 15 -10 17 -17z m5212 -12 c0 -5 -7 -9 -15
-9 -15 0 -20 12 -9 23 8 8 24 -1 24 -14z m200 1 c0 -5 -4 -10 -10 -10 -5 0
-10 5 -10 10 0 6 5 10 10 10 6 0 10 -4 10 -10z m-5178 -15 c0 -5 -5 -11 -11
-13 -6 -2 -11 4 -11 13 0 9 5 15 11 13 6 -2 11 -8 11 -13z m5223 4 c10 -15 -1
-23 -20 -15 -9 3 -13 10 -10 16 8 13 22 13 30 -1z m583 -22 c2 -12 -1 -15 -12
-11 -19 7 -22 38 -3 32 6 -3 13 -12 15 -21z m1273 -39 c-9 -31 -9 -31 -10 -6
-1 30 11 67 16 51 2 -6 0 -26 -6 -45z m-1983 30 c-6 -18 -28 -21 -28 -4 0 9 7
16 16 16 9 0 14 -5 12 -12z m42 -47 c-1 -13 -3 -13 -15 3 -19 26 -19 42 0 26
8 -7 15 -20 15 -29z m115 4 c0 -13 -8 -21 -24 -23 -19 -3 -22 0 -17 13 3 9 6
21 6 27 0 5 8 8 18 6 9 -2 17 -12 17 -23z m74 1 c8 -10 8 -16 -3 -25 -11 -9
-15 -8 -20 5 -13 34 1 47 23 20z m231 -12 c0 -16 -16 -19 -25 -4 -8 13 4 32
16 25 5 -4 9 -13 9 -21z m-537 -27 c-22 -47 -83 -72 -83 -34 0 16 61 66 81 67
15 0 15 -3 2 -33z m877 3 c0 -5 -4 -10 -10 -10 -5 0 -10 5 -10 10 0 6 5 10 10
10 6 0 10 -4 10 -10z m-10450 -20 c0 -5 -4 -10 -9 -10 -6 0 -13 5 -16 10 -3 6
1 10 9 10 9 0 16 -4 16 -10z m9628 -26 c1 -14 -2 -23 -8 -19 -6 3 -10 -1 -10
-9 0 -8 -8 -20 -17 -26 -17 -9 -17 -11 -1 -20 25 -15 11 -43 -19 -37 -15 3
-27 -1 -30 -8 -2 -7 -22 -32 -44 -56 -21 -23 -37 -44 -35 -46 2 -2 34 14 71
37 37 23 69 39 71 37 8 -7 -75 -114 -101 -131 -15 -10 -38 -41 -51 -70 -22
-49 -27 -53 -80 -70 -31 -10 -57 -16 -58 -14 -1 2 0 36 2 76 l4 72 38 0 c20 0
42 6 47 13 6 6 23 58 38 114 15 56 31 106 34 110 3 5 38 23 76 40 39 17 70 32
70 32 0 1 2 -10 3 -25z m-6318 -30 c0 -17 -22 -14 -28 4 -2 7 3 12 12 12 9 0
16 -7 16 -16z m240 0 c0 -17 -22 -14 -28 4 -2 7 3 12 12 12 9 0 16 -7 16 -16z
m88 5 c-2 -6 -8 -10 -13 -10 -5 0 -11 4 -13 10 -2 6 4 11 13 11 9 0 15 -5 13
-11z m442 -5 c0 -17 -22 -14 -28 4 -2 7 3 12 12 12 9 0 16 -7 16 -16z m580 0
c0 -8 -5 -12 -10 -9 -6 4 -8 11 -5 16 9 14 15 11 15 -7z m5008 -5 c-2 -6 -8
-10 -13 -10 -5 0 -11 4 -13 10 -2 6 4 11 13 11 9 0 15 -5 13 -11z m-6247 -22
c-1 -12 -15 -9 -19 4 -3 6 1 10 8 8 6 -3 11 -8 11 -12z m8143 -39 c-8 -68 -23
-97 -24 -47 0 34 17 99 26 99 3 0 2 -24 -2 -52z m43 5 c-3 -10 -5 -2 -5 17 0
19 2 27 5 18 2 -10 2 -26 0 -35z m-1912 7 c0 -13 -6 -25 -12 -27 -9 -3 -13 6
-13 27 0 21 4 30 13 28 6 -3 12 -15 12 -28z m-6205 0 c0 -19 -31 -23 -48 -6
-15 15 -14 16 16 16 18 0 32 -5 32 -10z m6350 -15 c0 -16 -9 -19 -34 -9 -20 8
-11 24 15 24 10 0 19 -7 19 -15z m-10250 -5 c0 -5 -4 -10 -9 -10 -6 0 -13 5
-16 10 -3 6 1 10 9 10 9 0 16 -4 16 -10z m10080 -46 c0 -14 -6 -24 -14 -24
-22 0 -28 17 -16 40 14 26 30 17 30 -16z m-6240 0 c0 -17 -22 -14 -28 4 -2 7
3 12 12 12 9 0 16 -7 16 -16z m770 0 c0 -17 -22 -14 -28 4 -2 7 3 12 12 12 9
0 16 -7 16 -16z m5528 -6 c-6 -18 -28 -21 -28 -4 0 9 7 16 16 16 9 0 14 -5 12
-12z m74 -13 c-5 -28 -9 -30 -27 -15 -23 19 -19 42 8 38 16 -2 21 -9 19 -23z
m-112 -15 c0 -5 -5 -10 -11 -10 -5 0 -7 5 -4 10 3 6 8 10 11 10 2 0 4 -4 4
-10z m1952 -19 c7 10 8 7 4 -11 -3 -14 -6 -34 -7 -45 -2 -27 -17 32 -16 65 l0
25 4 -24 c4 -19 7 -21 15 -10z m-7159 -21 c10 0 17 -5 15 -12 -2 -6 11 -25 29
-42 32 -29 33 -33 22 -65 -11 -32 -10 -34 22 -60 57 -44 66 -56 73 -99 6 -41
7 -42 46 -42 37 0 40 -2 49 -37 6 -21 11 -46 11 -55 0 -10 20 -32 44 -50 42
-32 44 -35 50 -101 l7 -67 80 -41 80 -40 -7 -57 c-4 -31 -12 -95 -18 -142
l-12 -85 -13 60 c-6 33 -32 103 -56 155 -24 52 -51 121 -60 153 -19 68 -101
177 -190 253 -56 48 -131 148 -174 232 -20 39 -20 44 -6 66 15 22 14 25 -10
54 -25 30 -35 56 -13 34 7 -7 20 -12 31 -12z m7067 -12 c0 -25 -3 -29 -10 -18
-13 20 -13 50 0 50 6 0 10 -15 10 -32z m-10106 -9 c22 -7 61 -35 87 -61 28
-28 82 -65 135 -91 72 -37 97 -55 130 -99 22 -29 46 -68 52 -86 6 -19 32 -65
58 -104 45 -68 46 -71 40 -126 -4 -31 -8 -58 -11 -60 -10 -10 -25 12 -30 46
-22 130 -85 238 -172 298 -32 21 -85 64 -118 96 -43 40 -78 63 -125 81 -36 13
-89 36 -118 51 -32 16 -68 26 -96 26 -35 0 -47 5 -60 25 -9 13 -16 26 -16 27
0 9 211 -11 244 -23z m1304 -92 c22 -21 74 -14 66 8 -4 9 20 21 73 39 84 28
79 13 -10 -29 l-48 -23 32 -36 32 -37 -93 7 -92 7 7 -24 c4 -13 14 -39 21 -58
20 -48 12 -48 -15 -1 -24 43 -19 42 -101 7 -45 -20 -107 -86 -153 -162 -20
-33 -67 -91 -106 -129 l-70 -70 10 39 c7 24 35 67 71 107 44 50 67 88 89 145
24 61 43 91 87 136 31 33 74 70 94 83 22 14 40 35 44 51 l7 26 17 -34 c10 -19
27 -42 38 -52z m7000 76 c-10 -2 -26 -2 -35 0 -10 3 -2 5 17 5 19 0 27 -2 18
-5z m-53 -33 c-5 -8 -11 -8 -17 -2 -6 6 -7 16 -3 22 5 8 11 8 17 2 6 -6 7 -16
3 -22z m-10468 -12 c-3 -7 -5 -2 -5 12 0 14 2 19 5 13 2 -7 2 -19 0 -25z
m10343 -14 c0 -19 -4 -34 -10 -34 -5 0 -10 18 -10 41 0 24 4 38 10 34 6 -3 10
-22 10 -41z m-5370 26 c0 -5 -4 -10 -9 -10 -6 0 -13 5 -16 10 -3 6 1 10 9 10
9 0 16 -4 16 -10z m7390 -14 c0 -13 3 -33 7 -43 6 -17 6 -17 -10 -1 -18 18
-23 68 -7 68 6 0 10 -11 10 -24z m-7270 -46 c0 -5 -7 -10 -15 -10 -8 0 -15 5
-15 10 0 6 7 10 15 10 8 0 15 -4 15 -10z m5281 -23 c-1 -12 -15 -9 -19 4 -3 6
1 10 8 8 6 -3 11 -8 11 -12z m-10286 -246 c9 -51 14 -95 12 -98 -3 -2 -16 20
-29 49 -22 46 -24 63 -20 133 6 90 8 86 37 -84z m330 110 c3 -5 1 -12 -5 -16
-5 -3 -10 1 -10 9 0 18 6 21 15 7z m51 -138 c9 -7 14 -19 11 -27 -4 -9 9 -57
28 -108 19 -51 35 -99 35 -106 0 -7 -21 -53 -46 -103 l-45 -91 36 -60 c51 -82
58 -175 25 -303 -25 -91 -24 -107 6 -320 l6 -40 -30 44 c-28 40 -30 52 -37
161 -6 97 -4 132 11 194 l17 75 -27 70 c-25 65 -27 77 -26 222 1 85 -3 178 -9
208 -12 61 -14 155 -4 227 l6 48 14 -39 c7 -22 21 -45 29 -52z m5534 47 c0 -5
-7 -10 -15 -10 -8 0 -15 5 -15 10 0 6 7 10 15 10 8 0 15 -4 15 -10z m-260 -56
c0 -8 -4 -12 -10 -9 -5 3 -10 10 -10 16 0 5 5 9 10 9 6 0 10 -7 10 -16z m428
-2 c2 -7 -3 -12 -12 -12 -9 0 -16 7 -16 16 0 17 22 14 28 -4z m22 -49 c-1 -26
-50 -58 -50 -33 0 6 7 10 15 10 8 0 15 7 15 15 0 8 5 15 10 15 6 0 10 -3 10
-7z m6238 -125 l-4 -33 -8 37 c-5 21 -5 50 0 65 l8 28 4 -32 c2 -18 2 -48 0
-65z m-9513 72 c3 -5 1 -10 -4 -10 -6 0 -11 5 -11 10 0 6 2 10 4 10 3 0 8 -4
11 -10z m2912 -16 c-9 -9 -28 6 -21 18 4 6 10 6 17 -1 6 -6 8 -13 4 -17z
m6570 -21 c-3 -10 -5 -4 -5 12 0 17 2 24 5 18 2 -7 2 -21 0 -30z m-9499 5 c-6
-18 -28 -21 -28 -4 0 9 7 16 16 16 9 0 14 -5 12 -12z m3237 -8 c-3 -5 -11 -10
-16 -10 -6 0 -7 5 -4 10 3 6 11 10 16 10 6 0 7 -4 4 -10z m30 -20 c3 -6 3 -20
0 -31 -6 -17 -9 -19 -16 -8 -12 19 -11 49 0 49 6 0 13 -5 16 -10z m-337 -61
c-2 -6 -8 -10 -13 -10 -5 0 -11 4 -13 10 -2 6 4 11 13 11 9 0 15 -5 13 -11z
m-28 -29 c0 -5 -2 -10 -4 -10 -3 0 -8 5 -11 10 -3 6 -1 10 4 10 6 0 11 -4 11
-10z m85 -13 c0 -26 -20 -25 -23 2 -3 16 1 22 10 19 7 -3 13 -12 13 -21z m225
13 c0 -5 -7 -10 -15 -10 -8 0 -15 -7 -15 -15 0 -8 -4 -15 -10 -15 -15 0 -12
11 7 32 18 20 33 24 33 8z m159 -19 c14 -9 7 -51 -9 -51 -13 0 -40 42 -34 52
7 10 25 10 43 -1z m6131 -61 c0 -33 -4 -60 -10 -60 -11 0 -13 42 -4 89 10 47
14 38 14 -29z m-6235 0 c3 -6 -1 -13 -9 -16 -9 -3 -16 -15 -16 -25 0 -10 -4
-19 -10 -19 -5 0 -10 9 -10 20 0 11 5 20 10 20 6 0 10 7 10 15 0 17 16 20 25
5z m4436 -10 c93 -17 170 -63 247 -145 l69 -74 29 30 c43 46 165 124 231 149
196 74 417 61 598 -33 72 -38 192 -154 224 -218 37 -70 28 -84 -99 -173 -61
-42 -118 -80 -126 -83 -22 -8 -70 16 -82 41 -35 78 -137 145 -232 153 -245 23
-412 -264 -310 -532 32 -83 123 -174 199 -198 132 -42 261 4 338 120 54 81 65
81 217 -6 146 -84 152 -93 110 -180 -37 -76 -140 -176 -229 -223 -117 -61
-209 -82 -355 -82 -110 0 -135 4 -205 28 -194 67 -329 193 -425 399 -22 47
-40 93 -40 102 0 19 2 19 -95 -16 -48 -17 -90 -22 -217 -27 l-158 -5 0 -216
c0 -180 -3 -220 -16 -239 -15 -21 -21 -22 -170 -22 -141 0 -156 2 -174 20 -20
20 -20 33 -20 707 l0 687 22 23 21 23 297 0 c164 0 322 -5 351 -10z m-4383
-29 c33 -13 40 -25 22 -36 -8 -5 -7 -11 1 -21 9 -11 8 -19 -6 -34 -27 -29 -40
-25 -53 19 -13 43 -16 95 -4 89 4 -3 22 -10 40 -17z m6199 -83 c-2 -13 -4 -3
-4 22 0 25 2 35 4 23 2 -13 2 -33 0 -45z m-2756 39 c-1 -12 -15 -9 -19 4 -3 6
1 10 8 8 6 -3 11 -8 11 -12z m-6739 -39 c-16 -16 -35 3 -26 26 6 16 8 16 22 2
13 -12 14 -18 4 -28z m93 11 c-6 -9 -35 -1 -35 10 0 4 3 11 7 14 8 9 34 -13
28 -24z m25 -19 c0 -5 -4 -10 -10 -10 -5 0 -10 5 -10 10 0 6 5 10 10 10 6 0
10 -4 10 -10z m-20 -33 c0 -24 -19 -42 -31 -30 -8 8 -8 16 1 32 11 22 30 20
30 -2z m2810 -56 c0 -32 -13 -46 -35 -37 -11 4 -12 11 -4 36 14 39 39 40 39 1z
m450 19 c0 -5 -4 -10 -9 -10 -6 0 -13 5 -16 10 -3 6 1 10 9 10 9 0 16 -4 16
-10z m3195 -20 c-6 -9 -9 -9 -16 1 -10 17 0 34 13 21 6 -6 7 -16 3 -22z
m-6555 5 c0 -8 -4 -15 -10 -15 -5 0 -10 7 -10 15 0 8 5 15 10 15 6 0 10 -7 10
-15z m55 -25 c3 -5 1 -10 -4 -10 -6 0 -11 5 -11 10 0 6 2 10 4 10 3 0 8 -4 11
-10z m3016 -13 c-1 -12 -15 -9 -19 4 -3 6 1 10 8 8 6 -3 11 -8 11 -12z m3677
-18 c-2 -6 -8 -10 -13 -10 -5 0 -11 4 -13 10 -2 6 4 11 13 11 9 0 15 -5 13
-11z m-3640 -10 c-2 -6 -8 -10 -13 -10 -5 0 -11 4 -13 10 -2 6 4 11 13 11 9 0
15 -5 13 -11z m-3014 -35 c17 -44 -26 -73 -55 -38 -11 14 -10 19 10 35 28 23
37 24 45 3z m6736 -35 c0 -17 -4 -28 -10 -24 -5 3 -10 17 -10 31 0 13 5 24 10
24 6 0 10 -14 10 -31z m-3790 -19 c0 -5 -4 -10 -10 -10 -5 0 -10 5 -10 10 0 6
5 10 10 10 6 0 10 -4 10 -10z m3702 -25 c0 -5 -5 -11 -11 -13 -6 -2 -11 4 -11
13 0 9 5 15 11 13 6 -2 11 -8 11 -13z m2665 -82 c-2 -16 -4 -3 -4 27 0 30 2
43 4 28 2 -16 2 -40 0 -55z m-2687 47 c0 -5 -7 -10 -15 -10 -8 0 -15 5 -15 10
0 6 7 10 15 10 8 0 15 -4 15 -10z m-40 -32 c0 -16 -3 -19 -11 -11 -6 6 -8 16
-5 22 11 17 16 13 16 -11z m2763 -303 c4 -76 3 -114 -3 -104 -5 9 -11 104 -13
210 -4 198 5 144 16 -106z m-6533 266 c0 -6 -4 -13 -10 -16 -5 -3 -10 1 -10 9
0 9 5 16 10 16 6 0 10 -4 10 -9z m-5280 -91 c0 -5 -2 -10 -4 -10 -3 0 -8 5
-11 10 -3 6 -1 10 4 10 6 0 11 -4 11 -10z m-213 -32 c-3 -8 -6 -5 -6 6 -1 11
2 17 5 13 3 -3 4 -12 1 -19z m243 -14 c0 -8 -4 -12 -10 -9 -5 3 -10 10 -10 16
0 5 5 9 10 9 6 0 10 -7 10 -16z m8870 -140 c0 -17 -22 -14 -28 4 -2 7 3 12 12
12 9 0 16 -7 16 -16z m-35 -24 c-3 -5 -10 -10 -16 -10 -5 0 -9 5 -9 10 0 6 7
10 16 10 8 0 12 -4 9 -10z m65 6 c0 -3 -4 -8 -10 -11 -5 -3 -10 -1 -10 4 0 6
5 11 10 11 6 0 10 -2 10 -4z m50 -72 c0 -8 -5 -12 -10 -9 -6 4 -8 11 -5 16 9
14 15 11 15 -7z m-20 -30 c0 -17 -22 -14 -28 4 -2 7 3 12 12 12 9 0 16 -7 16
-16z m157 -29 c12 -8 29 -12 39 -8 16 6 16 4 -2 -20 -10 -14 -29 -27 -40 -27
-12 0 -27 -7 -34 -15 -14 -17 -20 -18 -40 -5 -11 7 -12 14 -3 32 6 13 14 31
17 41 7 21 34 22 63 2z m-106 -26 c25 -13 14 -32 -14 -23 -28 8 -30 11 -22 23
8 14 11 14 36 0z m-231 -113 c0 -29 -19 -44 -30 -25 -9 14 5 49 20 49 6 0 10
-11 10 -24z m310 14 c0 -5 -7 -10 -15 -10 -8 0 -15 5 -15 10 0 6 7 10 15 10 8
0 15 -4 15 -10z m-6800 -31 c0 -5 -4 -9 -10 -9 -5 0 -10 7 -10 16 0 8 5 12 10
9 6 -3 10 -10 10 -16z m60 -26 c0 -31 -16 -46 -40 -38 l-22 7 23 24 c27 28 39
31 39 7z m9457 -15 c-3 -7 -5 -2 -5 12 0 14 2 19 5 13 2 -7 2 -19 0 -25z
m-2969 11 c-2 -6 -8 -10 -13 -10 -5 0 -11 4 -13 10 -2 6 4 11 13 11 9 0 15 -5
13 -11z m75 4 c-7 -2 -13 -13 -13 -23 0 -25 -18 -36 -26 -16 -8 20 13 46 35
45 10 0 11 -2 4 -6z m17 -88 c0 -5 -50 -55 -55 -55 -8 0 -6 46 2 53 7 8 53 10
53 2z m-65 -85 c-5 -8 -11 -8 -17 -2 -6 6 -7 16 -3 22 5 8 11 8 17 2 6 -6 7
-16 3 -22z m-8816 -163 c0 -28 -3 -23 -24 33 -14 36 -25 67 -25 69 0 2 11 -13
25 -33 14 -21 25 -51 24 -69z m8791 53 c0 -5 9 -19 20 -30 20 -20 17 -50 -5
-50 -8 0 -15 -14 -17 -32 -2 -18 -7 -32 -13 -31 -17 4 -17 39 0 53 19 16 20
66 0 74 -8 3 -15 10 -15 16 0 5 7 10 15 10 8 0 15 -4 15 -10z m-6170 -10 c0
-15 -27 -23 -47 -16 -15 6 -15 8 -3 16 20 13 50 12 50 0z m6344 -55 c4 -11 -1
-15 -19 -15 -24 0 -32 10 -18 23 11 12 31 8 37 -8z m-8864 -35 c0 -5 -4 -10
-10 -10 -5 0 -10 5 -10 10 0 6 5 10 10 10 6 0 10 -4 10 -10z m46 -47 c-7 -7
-36 23 -36 38 0 7 9 3 21 -10 12 -12 19 -25 15 -28z m2477 18 c-2 -13 3 -21
12 -21 8 0 15 -4 15 -10 0 -16 -14 -12 -38 10 -23 22 -27 32 -15 44 13 12 28
-1 26 -23z m6227 4 c0 -8 -7 -15 -15 -15 -8 0 -15 7 -15 15 0 8 7 15 15 15 8
0 15 -7 15 -15z m64 9 c18 -7 21 -30 6 -39 -13 -8 -40 13 -40 31 0 15 10 17
34 8z m-8854 -34 c0 -5 -2 -10 -4 -10 -3 0 -8 5 -11 10 -3 6 -1 10 4 10 6 0
11 -4 11 -10z m8757 -6 c-3 -3 -12 -4 -19 -1 -8 3 -5 6 6 6 11 1 17 -2 13 -5z
m53 -74 c-20 -13 -40 -13 -40 0 0 6 12 10 28 10 21 0 24 -2 12 -10z m-50 -18
c0 -13 -12 -22 -22 -16 -10 6 -1 24 13 24 5 0 9 -4 9 -8z m-8691 -167 c2 -3
-2 -11 -10 -19 -12 -10 -18 -8 -39 12 l-25 25 34 -7 c19 -3 37 -9 40 -11z
m2825 -19 c14 -22 14 -27 -1 -58 -21 -43 -18 -41 -42 -33 -25 8 -26 17 -5 72
19 50 26 52 48 19z m3411 0 c22 -8 40 -18 40 -23 0 -10 -65 -42 -87 -43 -19 0
-25 25 -8 35 6 3 10 15 10 26 0 10 1 19 3 19 1 0 20 -7 42 -14z m-190 -36 c-5
-8 -11 -8 -17 -2 -6 6 -7 16 -3 22 5 8 11 8 17 2 6 -6 7 -16 3 -22z m5138 23
c-7 -2 -21 -2 -30 0 -10 3 -4 5 12 5 17 0 24 -2 18 -5z m115 -24 c12 0 10 -3
-6 -10 -25 -10 -42 -5 -42 13 0 5 7 7 16 4 9 -3 23 -6 32 -7z m-5400 -11 c7
-7 12 -20 12 -30 0 -10 7 -18 15 -18 8 0 15 -4 15 -10 0 -5 -7 -10 -15 -10 -8
0 -15 5 -15 10 0 6 -18 10 -40 10 -46 0 -54 19 -18 44 27 19 31 19 46 4z
m-5888 -8 c0 -5 -7 -10 -16 -10 -8 0 -12 5 -9 10 3 6 10 10 16 10 5 0 9 -4 9
-10z m5820 0 c0 -5 -7 -10 -15 -10 -8 0 -15 5 -15 10 0 6 7 10 15 10 8 0 15
-4 15 -10z m190 0 c0 -5 -2 -10 -4 -10 -3 0 -8 5 -11 10 -3 6 -1 10 4 10 6 0
11 -4 11 -10z m2132 -22 c-15 -15 -26 -4 -18 18 5 13 9 15 18 6 9 -9 9 -15 0
-24z m2971 15 c-7 -2 -21 -2 -30 0 -10 3 -4 5 12 5 17 0 24 -2 18 -5z m262 -3
c-3 -5 -17 -10 -31 -10 -14 0 -22 4 -19 10 3 6 17 10 31 10 14 0 22 -4 19 -10z
m-8365 -11 c0 -6 9 -18 21 -28 16 -12 19 -23 14 -43 -10 -38 -29 -52 -44 -34
-9 11 -9 20 -2 35 14 25 14 51 1 51 -5 0 -10 -6 -10 -14 0 -8 -7 -16 -15 -20
-8 -3 -15 -12 -15 -21 0 -8 -4 -15 -10 -15 -5 0 -10 7 -10 16 0 24 19 54 35
54 8 0 15 7 15 15 0 8 5 15 10 15 6 0 10 -5 10 -11z m3221 -2 c-1 -12 -15 -9
-19 4 -3 6 1 10 8 8 6 -3 11 -8 11 -12z m-1827 -34 c-8 -46 -5 -43 -32 -36
-27 7 -28 23 -2 51 31 33 42 28 34 -15z m3574 25 c7 -7 12 -22 12 -35 0 -20
-5 -23 -39 -23 -51 0 -59 13 -27 45 28 28 37 30 54 13z m-80 -17 c3 -8 -1 -12
-9 -9 -7 2 -15 10 -17 17 -3 8 1 12 9 9 7 -2 15 -10 17 -17z m217 9 c3 -5 1
-10 -4 -10 -6 0 -11 5 -11 10 0 6 2 10 4 10 3 0 8 -4 11 -10z m-2665 -41 c0
-34 -16 -69 -30 -69 -13 0 -13 40 1 78 13 38 29 33 29 -9z m600 19 c17 -19 29
-68 15 -68 -23 0 -54 28 -63 56 -9 30 -8 34 9 34 10 0 27 -10 39 -22z m-6011
-28 c15 -21 19 -35 13 -46 -7 -12 -14 -7 -35 25 -31 46 -32 51 -14 51 7 0 23
-14 36 -30z m8329 19 c-2 -6 -8 -10 -13 -10 -5 0 -11 4 -13 10 -2 6 4 11 13
11 9 0 15 -5 13 -11z m-4321 -25 c-9 -9 -28 6 -21 18 4 6 10 6 17 -1 6 -6 8
-13 4 -17z m181 7 c3 -8 -1 -12 -9 -9 -7 2 -15 10 -17 17 -3 8 1 12 9 9 7 -2
15 -10 17 -17z m1980 -3 c-2 -13 -7 -23 -13 -23 -5 0 -11 10 -13 23 -2 15 2
22 13 22 11 0 15 -7 13 -22z m1287 -37 c7 -41 -9 -81 -32 -81 -18 0 -20 51 -3
87 20 42 27 41 35 -6z m526 26 c-1 -12 -15 -9 -19 4 -3 6 1 10 8 8 6 -3 11 -8
11 -12z m136 -9 c13 -12 23 -33 23 -49 0 -26 -1 -27 -30 -16 -17 6 -33 21 -36
32 -3 11 -8 28 -10 38 -7 25 24 22 53 -5z m-3872 2 c9 -15 -4 -50 -20 -50 -16
0 -29 35 -20 50 3 5 12 10 20 10 8 0 17 -5 20 -10z m1195 -26 c0 -17 -22 -14
-28 4 -2 7 3 12 12 12 9 0 16 -7 16 -16z m340 4 c0 -7 -7 -22 -15 -32 -8 -11
-15 -34 -15 -52 0 -46 -15 -50 -38 -11 l-19 33 29 37 c30 37 58 49 58 25z
m2515 2 c9 -14 -4 -52 -16 -45 -12 8 -12 55 0 55 6 0 13 -5 16 -10z m-5059
-58 c-4 -3 -11 -1 -17 5 -8 8 -7 18 3 34 l13 24 3 -28 c2 -16 1 -31 -2 -35z
m2284 -36 c-13 -13 -62 9 -71 31 -16 43 2 47 39 9 20 -19 34 -37 32 -40z
m-1354 42 c25 -24 31 -52 14 -63 -6 -4 -13 7 -16 24 -4 16 -12 32 -20 35 -14
5 -20 26 -8 26 3 0 17 -10 30 -22z m1664 -14 c0 -17 -22 -14 -28 4 -2 7 3 12
12 12 9 0 16 -7 16 -16z m1660 0 c0 -17 -22 -14 -28 4 -2 7 3 12 12 12 9 0 16
-7 16 -16z m370 7 c0 -5 -7 -22 -15 -37 -8 -16 -15 -41 -15 -56 0 -54 -10 -60
-36 -22 -13 19 -24 39 -24 43 0 15 63 81 77 81 7 0 13 -4 13 -9z m-4590 -11
c0 -5 -4 -10 -10 -10 -5 0 -10 5 -10 10 0 6 5 10 10 10 6 0 10 -4 10 -10z
m735 0 c9 -15 -14 -40 -36 -40 -19 0 -27 29 -12 43 10 11 41 8 48 -3z m61 -5
c4 -8 12 -15 20 -15 8 0 14 -7 14 -15 0 -8 -2 -15 -4 -15 -8 0 -56 47 -56 54
0 12 21 6 26 -9z m1521 -22 c2 -6 -5 -13 -17 -16 -12 -3 -20 0 -20 7 0 26 29
33 37 9z m78 7 c-3 -5 -15 -10 -25 -10 -10 0 -22 5 -25 10 -4 6 7 10 25 10 18
0 29 -4 25 -10z m-2279 -15 c4 -8 12 -15 20 -15 8 0 14 -7 14 -15 0 -8 -3 -15
-7 -15 -9 0 -53 45 -53 54 0 12 21 5 26 -9z m94 -1 c0 -17 -22 -14 -28 4 -2 7
3 12 12 12 9 0 16 -7 16 -16z m4070 -24 l32 -40 -34 6 c-36 7 -58 28 -58 56 0
30 26 20 60 -22z m375 -11 c-6 -9 -35 -1 -35 10 0 4 3 11 7 14 8 9 34 -13 28
-24z m-3885 17 c0 -3 -4 -8 -10 -11 -5 -3 -10 -1 -10 4 0 6 5 11 10 11 6 0 10
-2 10 -4z m3607 -43 c4 -11 -26 -27 -35 -19 -2 3 -2 12 2 21 6 18 27 16 33 -2z
m88 7 c-3 -5 -15 -10 -25 -10 -10 0 -22 5 -25 10 -4 6 7 10 25 10 18 0 29 -4
25 -10z"/>
<path d="M3068 4743 c7 -3 16 -2 19 1 4 3 -2 6 -13 5 -11 0 -14 -3 -6 -6z"/>
<path d="M9410 4691 c0 -6 5 -13 10 -16 6 -3 10 1 10 9 0 9 -4 16 -10 16 -5 0
-10 -4 -10 -9z"/>
<path d="M7350 4541 c0 -6 5 -13 10 -16 6 -3 10 1 10 9 0 9 -4 16 -10 16 -5 0
-10 -4 -10 -9z"/>
<path d="M7015 4530 c3 -5 8 -10 11 -10 2 0 4 5 4 10 0 6 -5 10 -11 10 -5 0
-7 -4 -4 -10z"/>
<path d="M1660 4420 c0 -5 5 -10 11 -10 5 0 7 5 4 10 -3 6 -8 10 -11 10 -2 0
-4 -4 -4 -10z"/>
<path d="M7355 4420 c3 -5 8 -10 11 -10 2 0 4 5 4 10 0 6 -5 10 -11 10 -5 0
-7 -4 -4 -10z"/>
<path d="M8820 4380 c0 -5 5 -10 10 -10 6 0 10 5 10 10 0 6 -4 10 -10 10 -5 0
-10 -4 -10 -10z"/>
<path d="M9035 4350 c-3 -5 1 -10 10 -10 9 0 13 5 10 10 -3 6 -8 10 -10 10 -2
0 -7 -4 -10 -10z"/>
<path d="M9780 4350 c0 -5 7 -10 16 -10 8 0 12 5 9 10 -3 6 -10 10 -16 10 -5
0 -9 -4 -9 -10z"/>
<path d="M8844 4315 c-4 -9 0 -24 10 -33 15 -15 17 -15 31 3 18 25 14 39 -13
43 -14 2 -25 -3 -28 -13z"/>
<path d="M1530 4290 c0 -5 5 -10 10 -10 6 0 10 5 10 10 0 6 -4 10 -10 10 -5 0
-10 -4 -10 -10z"/>
<path d="M5323 4273 c-21 -8 -15 -23 10 -23 22 0 62 20 40 20 -6 0 -17 2 -25
4 -7 3 -19 2 -25 -1z"/>
<path d="M5595 4270 c3 -5 10 -10 16 -10 5 0 9 5 9 10 0 6 -7 10 -16 10 -8 0
-12 -4 -9 -10z"/>
<path d="M2070 4240 c0 -5 5 -10 10 -10 6 0 10 5 10 10 0 6 -4 10 -10 10 -5 0
-10 -4 -10 -10z"/>
<path d="M9423 4207 c-82 -6 -123 -14 -123 -21 0 -29 72 -221 85 -229 10 -5
14 -16 10 -27 -8 -26 25 -130 41 -130 18 0 27 17 12 23 -10 3 -10 7 -1 17 15
16 62 5 70 -17 8 -19 -33 -52 -64 -53 l-22 0 20 -57 c11 -32 26 -61 35 -66 9
-5 13 -16 9 -27 -3 -10 -3 -31 1 -47 l8 -28 7 25 c4 14 8 43 8 65 l2 40 24
-27 c29 -33 36 -34 53 -7 12 18 9 24 -25 55 -37 34 -37 34 -49 13 -6 -12 -14
-17 -17 -11 -4 5 0 15 8 22 8 7 15 23 15 36 0 13 4 23 9 22 5 -2 9 2 9 7 0 6
-4 9 -9 7 -6 -1 -7 27 -3 74 5 60 4 78 -7 85 -12 7 -11 10 3 21 13 10 18 38
23 131 4 65 4 116 -1 115 -5 0 -64 -6 -131 -11z m67 -297 c-36 -11 -50 -11
-50 0 0 6 17 10 38 9 33 -1 34 -2 12 -9z"/>
<path d="M5330 4198 c0 -7 4 -19 9 -27 11 -17 25 3 17 24 -7 18 -26 20 -26 3z"/>
<path d="M1820 4180 c0 -5 5 -10 11 -10 5 0 7 5 4 10 -3 6 -8 10 -11 10 -2 0
-4 -4 -4 -10z"/>
<path d="M9215 4185 c-5 -2 -44 -11 -86 -20 -68 -14 -76 -18 -72 -35 6 -24
-12 -27 -25 -4 -8 14 -21 13 -134 -12 -108 -24 -124 -31 -120 -46 5 -20 -8
-24 -25 -7 -8 8 -38 -4 -112 -45 l-100 -56 -66 40 -66 40 -94 -6 -95 -7 0
-103 c0 -56 4 -105 8 -108 5 -3 40 14 78 37 126 78 144 89 144 84 0 -2 -49
-37 -110 -77 -60 -40 -110 -78 -110 -85 0 -53 33 -311 46 -353 12 -43 13 -61
4 -88 -7 -20 -9 -54 -5 -77 3 -23 9 -82 13 -132 4 -49 18 -122 31 -161 l24
-70 -52 -73 c-79 -110 -57 -130 63 -57 39 24 269 164 511 311 395 241 624 381
633 390 2 2 -9 42 -24 90 -21 64 -31 83 -39 73 -19 -26 -56 -46 -76 -41 -24 7
-24 12 -1 29 14 11 15 15 3 23 -20 13 -6 28 34 35 19 4 35 11 35 15 0 21 -24
77 -37 88 -9 7 -16 31 -17 59 -1 31 -8 50 -20 59 -10 8 -15 19 -11 24 3 6 -13
70 -37 141 -43 133 -49 140 -93 125z m-255 -85 c0 -5 -4 -10 -10 -10 -5 0 -10
5 -10 10 0 6 5 10 10 10 6 0 10 -4 10 -10z m288 -32 c-6 -18 -28 -21 -28 -4 0
9 7 16 16 16 9 0 14 -5 12 -12z m24 -63 c0 -5 -5 -11 -11 -13 -6 -2 -11 4 -11
13 0 9 5 15 11 13 6 -2 11 -8 11 -13z m-22 -36 c0 -5 -7 -9 -15 -9 -15 0 -20
12 -9 23 8 8 24 -1 24 -14z m-380 -30 c0 -18 -2 -19 -15 -9 -15 12 -12 30 6
30 5 0 9 -10 9 -21z m340 -29 c0 -5 -5 -10 -11 -10 -5 0 -7 5 -4 10 3 6 8 10
11 10 2 0 4 -4 4 -10z m36 -34 c3 -8 1 -23 -4 -33 -10 -16 -12 -15 -21 10 -14
36 -14 37 4 37 9 0 18 -6 21 -14z m-376 -61 c0 -8 -7 -15 -15 -15 -8 0 -15 7
-15 15 0 8 7 15 15 15 8 0 15 -7 15 -15z m-30 -36 c0 -6 -4 -7 -10 -4 -5 3
-10 11 -10 16 0 6 5 7 10 4 6 -3 10 -11 10 -16z m94 5 c3 -9 2 -22 -2 -30 -7
-13 -10 -13 -21 0 -14 16 -9 46 8 46 5 0 12 -7 15 -16z m248 -6 c-6 -6 -16 -7
-22 -3 -9 6 -9 9 1 16 17 10 34 0 21 -13z m-372 -23 c0 -8 -7 -15 -15 -15 -16
0 -20 12 -8 23 11 12 23 8 23 -8z m340 0 c0 -8 -4 -15 -10 -15 -5 0 -10 7 -10
15 0 8 5 15 10 15 6 0 10 -7 10 -15z m218 -9 c6 -30 -15 -42 -38 -21 -29 26
-26 47 7 43 18 -2 29 -10 31 -22z m-123 -67 c-9 -14 -34 2 -28 17 4 11 9 12
19 3 8 -6 11 -15 9 -20z m-415 -19 c0 -5 -4 -10 -10 -10 -5 0 -10 5 -10 10 0
6 5 10 10 10 6 0 10 -4 10 -10z m390 -10 c0 -11 -4 -20 -10 -20 -5 0 -10 9
-10 20 0 11 5 20 10 20 6 0 10 -9 10 -20z m60 10 c0 -5 8 -10 18 -10 9 0 23
-4 31 -9 12 -8 12 -12 2 -25 -11 -13 -11 -19 -1 -31 11 -13 9 -20 -10 -40 -28
-29 -40 -22 -59 34 -16 49 -14 91 4 91 8 0 15 -4 15 -10z m-415 -211 c0 -28
-4 -35 -22 -37 -26 -4 -27 0 -11 45 15 42 33 37 33 -8z m505 25 c0 -9 -5 -14
-12 -12 -18 6 -21 28 -4 28 9 0 16 -7 16 -16z m-310 -64 c0 -5 -7 -10 -15 -10
-8 0 -15 5 -15 10 0 6 7 10 15 10 8 0 15 -4 15 -10z m27 -36 c-9 -9 -28 6 -21
18 4 6 10 6 17 -1 6 -6 8 -13 4 -17z m-570 -80 c-9 -9 -28 6 -21 18 4 6 10 6
17 -1 6 -6 8 -13 4 -17z m503 -9 c0 -8 -4 -15 -10 -15 -5 0 -10 7 -10 15 0 8
5 15 10 15 6 0 10 -7 10 -15z m-670 -96 c0 -5 -4 -9 -10 -9 -5 0 -10 7 -10 16
0 8 5 12 10 9 6 -3 10 -10 10 -16z m610 -19 c0 -5 -4 -10 -10 -10 -5 0 -10 5
-10 10 0 6 5 10 10 10 6 0 10 -4 10 -10z m-440 -35 c0 -8 -4 -15 -10 -15 -5 0
-10 7 -10 15 0 8 5 15 10 15 6 0 10 -7 10 -15z m350 0 c0 -8 -4 -15 -10 -15
-5 0 -10 7 -10 15 0 8 5 15 10 15 6 0 10 -7 10 -15z m-280 -62 c0 -21 -3 -24
-9 -14 -5 8 -7 20 -4 28 8 21 13 15 13 -14z m-70 -43 c0 -6 -7 -13 -15 -16 -8
-4 -15 -12 -15 -20 0 -7 -6 -11 -14 -8 -10 4 -9 11 8 29 22 26 36 32 36 15z
m-60 -65 c0 -8 -4 -15 -10 -15 -5 0 -10 7 -10 15 0 8 5 15 10 15 6 0 10 -7 10
-15z m-20 -95 c0 -5 -7 -10 -15 -10 -8 0 -15 5 -15 10 0 6 7 10 15 10 8 0 15
-4 15 -10z"/>
<path d="M6820 4151 c0 -5 5 -13 10 -16 6 -3 10 -2 10 4 0 5 -4 13 -10 16 -5
3 -10 2 -10 -4z"/>
<path d="M7015 4120 c-3 -5 1 -10 10 -10 9 0 13 5 10 10 -3 6 -8 10 -10 10 -2
0 -7 -4 -10 -10z"/>
<path d="M7690 4120 c0 -5 5 -10 11 -10 5 0 7 5 4 10 -3 6 -8 10 -11 10 -2 0
-4 -4 -4 -10z"/>
<path d="M5810 4110 c0 -5 5 -10 10 -10 6 0 10 5 10 10 0 6 -4 10 -10 10 -5 0
-10 -4 -10 -10z"/>
<path d="M6846 4091 c-9 -14 4 -41 19 -41 12 0 25 21 25 41 0 12 -37 12 -44 0z"/>
<path d="M2068 4083 c7 -3 16 -2 19 1 4 3 -2 6 -13 5 -11 0 -14 -3 -6 -6z"/>
<path d="M5985 4050 c3 -5 10 -10 16 -10 5 0 9 5 9 10 0 6 -7 10 -16 10 -8 0
-12 -4 -9 -10z"/>
<path d="M1830 4040 c0 -5 5 -10 10 -10 6 0 10 5 10 10 0 6 -4 10 -10 10 -5 0
-10 -4 -10 -10z"/>
<path d="M5806 4032 c-3 -6 -1 -14 5 -17 15 -10 25 3 12 16 -7 7 -13 7 -17 1z"/>
<path d="M5270 4020 c0 -5 7 -10 16 -10 8 0 12 5 9 10 -3 6 -10 10 -16 10 -5
0 -9 -4 -9 -10z"/>
<path d="M5310 4000 c0 -5 7 -10 15 -10 8 0 15 5 15 10 0 6 -7 10 -15 10 -8 0
-15 -4 -15 -10z"/>
<path d="M7351 3988 c-52 -5 -96 -10 -98 -12 -1 -1 13 -50 33 -109 22 -67 40
-105 46 -100 7 4 9 -2 5 -16 -5 -19 1 -45 28 -118 2 -7 12 -10 20 -6 12 4 13
8 5 13 -22 14 0 32 29 25 14 -4 31 -8 37 -9 7 -1 18 -7 26 -14 28 -23 77 -26
98 -7 20 18 20 19 2 39 -11 12 -22 29 -25 39 -8 23 -33 22 -40 -2 -2 -10 -14
-24 -26 -30 -20 -11 -21 -9 -21 33 0 40 2 44 22 38 15 -4 19 -2 13 7 -4 8 -17
10 -31 7 -27 -7 -31 1 -10 18 9 7 16 45 21 114 l7 102 -24 -1 c-13 -1 -66 -6
-117 -11z m89 -262 c0 -2 -13 -6 -30 -8 -16 -3 -30 -1 -30 4 0 4 14 8 30 8 17
0 30 -2 30 -4z"/>
<path d="M6902 3981 c4 -13 18 -16 19 -4 0 4 -5 9 -11 12 -7 2 -11 -2 -8 -8z"/>
<path d="M2000 3959 c0 -5 5 -7 10 -4 6 3 10 8 10 11 0 2 -4 4 -10 4 -5 0 -10
-5 -10 -11z"/>
<path d="M9545 3960 c-3 -5 4 -14 15 -20 16 -8 20 -8 20 4 0 16 -27 29 -35 16z"/>
<path d="M5452 3911 c4 -13 18 -16 19 -4 0 4 -5 9 -11 12 -7 2 -11 -2 -8 -8z"/>
<path d="M9594 3903 c-4 -10 -18 -28 -32 -40 -26 -22 -26 -22 -7 -42 26 -30
100 -29 116 1 9 18 8 24 -6 34 -10 7 -23 23 -29 35 -15 30 -34 35 -42 12z"/>
<path d="M5122 3888 c6 -18 28 -21 28 -4 0 9 -7 16 -16 16 -9 0 -14 -5 -12
-12z"/>
<path d="M1835 3850 c3 -5 10 -10 16 -10 5 0 9 5 9 10 0 6 -7 10 -16 10 -8 0
-12 -4 -9 -10z"/>
<path d="M4745 3849 c-10 -15 3 -25 16 -12 7 7 7 13 1 17 -6 3 -14 1 -17 -5z"/>
<path d="M5160 3844 c0 -8 5 -12 10 -9 6 4 8 11 5 16 -9 14 -15 11 -15 -7z"/>
<path d="M5690 3820 c0 -5 5 -10 11 -10 5 0 7 5 4 10 -3 6 -8 10 -11 10 -2 0
-4 -4 -4 -10z"/>
<path d="M9397 3800 c3 -11 12 -20 21 -20 13 0 12 3 -3 20 -10 11 -19 20 -21
20 -1 0 0 -9 3 -20z"/>
<path d="M5480 3791 c0 -6 5 -13 10 -16 6 -3 10 1 10 9 0 9 -4 16 -10 16 -5 0
-10 -4 -10 -9z"/>
<path d="M4590 3730 c0 -5 5 -10 10 -10 6 0 10 5 10 10 0 6 -4 10 -10 10 -5 0
-10 -4 -10 -10z"/>
<path d="M4550 3695 c0 -8 4 -15 9 -15 5 0 14 7 21 15 10 13 9 15 -9 15 -12 0
-21 -6 -21 -15z"/>
<path d="M2918 3693 c6 -2 18 -2 25 0 6 3 1 5 -13 5 -14 0 -19 -2 -12 -5z"/>
<path d="M1895 3670 c3 -14 8 -44 11 -67 4 -24 10 -43 15 -43 11 0 -1 68 -17
105 -12 25 -13 26 -9 5z"/>
<path d="M5635 3681 c-11 -3 -41 -18 -66 -33 -83 -50 -183 -70 -394 -77 -117
-4 -198 -11 -211 -18 -28 -16 -58 -89 -94 -225 -16 -61 -30 -111 -32 -113 -2
-1 -25 -17 -53 -36 -27 -18 -62 -47 -78 -64 -15 -16 -32 -31 -37 -31 -21 -3
-22 -4 -11 -18 8 -9 8 -28 1 -66 -13 -71 -13 -180 1 -180 6 0 8 -8 5 -18 -4
-13 5 -28 29 -51 47 -43 55 -67 54 -164 0 -45 3 -91 7 -102 25 -68 119 -136
264 -190 78 -29 135 -77 250 -212 l45 -53 82 -8 83 -8 46 47 c44 45 51 48 112
55 113 12 301 118 362 205 17 23 22 47 24 112 4 98 21 139 100 227 62 69 74
101 51 136 -19 29 -19 51 0 87 13 26 13 31 0 50 -17 25 -20 67 -5 67 6 0 13
-7 16 -15 6 -14 54 -22 54 -9 0 4 -35 49 -77 100 -157 189 -143 163 -143 267
0 118 -4 130 -50 156 -21 11 -89 55 -151 97 -119 80 -151 94 -184 85z m-575
-366 c0 -8 -4 -15 -9 -15 -13 0 -22 16 -14 24 11 11 23 6 23 -9z m25 -83 c-22
-5 -29 3 -21 25 7 17 8 17 22 -2 13 -18 13 -20 -1 -23z m415 -2 c0 -5 -4 -10
-10 -10 -5 0 -10 5 -10 10 0 6 5 10 10 10 6 0 10 -4 10 -10z m-298 -37 c16
-14 21 -15 28 -3 11 18 58 -33 66 -72 4 -16 13 -28 20 -28 16 0 19 -16 4 -25
-6 -3 -13 1 -16 9 -8 20 -34 21 -34 1 0 -8 -7 -15 -15 -15 -8 0 -15 5 -15 10
0 6 7 13 15 16 23 9 18 21 -12 36 -16 7 -29 23 -31 36 -3 17 -10 22 -33 22
-28 0 -37 9 -22 23 11 11 25 8 45 -10z m813 -11 c6 -13 20 -25 33 -29 40 -10
18 -28 -34 -28 -42 0 -49 3 -50 20 -1 11 -4 30 -8 43 -7 21 -5 23 21 20 18 -2
32 -11 38 -26z m-89 -129 c-3 -8 -6 -17 -6 -19 0 -2 -4 -4 -9 -4 -11 0 -23 29
-16 40 9 15 37 -1 31 -17z m-454 -8 c0 -5 -5 -11 -11 -13 -6 -2 -11 4 -11 13
0 9 5 15 11 13 6 -2 11 -8 11 -13z m-342 -91 c14 -42 9 -50 -19 -34 -14 7 -21
21 -21 39 0 53 22 51 40 -5z m250 36 c0 -5 -4 -10 -10 -10 -5 0 -10 5 -10 10
0 6 5 10 10 10 6 0 10 -4 10 -10z m60 -10 c0 -5 -4 -10 -10 -10 -5 0 -10 5
-10 10 0 6 5 10 10 10 6 0 10 -4 10 -10z m155 -95 c0 -26 -21 -30 -28 -6 -2
11 -2 22 1 26 11 10 27 -2 27 -20z m555 5 c-11 -21 -48 -45 -57 -36 -9 9 32
55 50 56 15 0 16 -3 7 -20z m-1180 -14 c0 -3 -4 -8 -10 -11 -5 -3 -10 -1 -10
4 0 6 5 11 10 11 6 0 10 -2 10 -4z m295 -6 c-3 -5 -10 -10 -16 -10 -5 0 -9 5
-9 10 0 6 7 10 16 10 8 0 12 -4 9 -10z m710 0 c-3 -5 -11 -10 -16 -10 -6 0 -7
5 -4 10 3 6 11 10 16 10 6 0 7 -4 4 -10z m-587 -31 c-2 -6 -8 -10 -13 -10 -5
0 -11 4 -13 10 -2 6 4 11 13 11 9 0 15 -5 13 -11z m-123 -69 c-5 -8 -11 -8
-17 -2 -6 6 -7 16 -3 22 5 8 11 8 17 2 6 -6 7 -16 3 -22z m-265 -20 c0 -5 -7
-10 -15 -10 -8 0 -15 5 -15 10 0 6 7 10 15 10 8 0 15 -4 15 -10z m180 -21 c0
-27 -2 -30 -15 -19 -8 7 -15 21 -15 31 0 11 7 19 15 19 10 0 15 -10 15 -31z
m235 21 c3 -5 -1 -10 -9 -10 -9 0 -16 5 -16 10 0 6 4 10 9 10 6 0 13 -4 16
-10z m-115 -47 c0 -33 -24 -25 -28 10 -3 21 0 26 12 21 9 -3 16 -17 16 -31z
m-330 12 c0 -8 -4 -15 -10 -15 -5 0 -10 7 -10 15 0 8 5 15 10 15 6 0 10 -7 10
-15z m474 0 c-4 -8 -10 -12 -15 -9 -14 8 -10 24 6 24 9 0 12 -6 9 -15z m-324
-40 c0 -28 -15 -34 -24 -9 -10 25 -7 34 9 34 9 0 15 -9 15 -25z m440 -39 c0
-3 -4 -8 -10 -11 -5 -3 -10 -1 -10 4 0 6 5 11 10 11 6 0 10 -2 10 -4z m450
-66 c0 -5 -4 -10 -9 -10 -6 0 -13 5 -16 10 -3 6 1 10 9 10 9 0 16 -4 16 -10z
m-155 -170 c3 -5 1 -10 -4 -10 -6 0 -11 5 -11 10 0 6 2 10 4 10 3 0 8 -4 11
-10z"/>
<path d="M2433 3659 c-18 -3 -43 -13 -57 -22 l-24 -16 -7 -273 c-7 -282 7
-801 25 -943 14 -111 29 -180 43 -198 35 -47 278 -68 389 -34 31 9 59 21 62
26 3 4 1 25 -5 46 -8 29 -8 40 2 46 7 4 58 10 114 14 57 4 107 10 112 14 5 3
18 37 28 74 17 62 22 70 61 93 42 25 43 27 63 117 27 120 41 211 41 267 0 43
-4 50 -63 110 -68 70 -96 130 -132 278 -16 65 -21 74 -50 88 -38 18 -59 59
-50 96 6 23 0 28 -67 61 -90 45 -182 77 -218 77 -15 0 -56 16 -92 35 -77 40
-130 54 -175 44z"/>
<path d="M9440 3660 c0 -5 5 -10 11 -10 5 0 7 5 4 10 -3 6 -8 10 -11 10 -2 0
-4 -4 -4 -10z"/>
<path d="M9703 3643 c-14 -5 -18 -33 -5 -33 5 0 16 6 26 13 15 11 16 15 5 19
-8 3 -20 3 -26 1z"/>
<path d="M7340 3635 c0 -18 19 -40 26 -32 4 4 0 15 -9 24 -9 10 -17 13 -17 8z"/>
<path d="M7436 3618 c-11 -10 -28 -18 -39 -18 -20 0 -20 -10 -1 -79 5 -17 4
-22 -4 -17 -7 4 -12 2 -12 -4 0 -7 7 -10 15 -7 15 7 29 -8 31 -33 3 -43 5 -50
14 -50 6 0 10 24 10 53 l1 52 24 -27 c29 -33 31 -34 45 -8 9 17 6 25 -19 50
-35 36 -38 36 -44 8 -3 -22 -4 -22 -12 -4 -6 13 -5 21 3 24 7 2 12 15 12 28 0
14 4 22 10 19 14 -9 12 4 -3 19 -10 10 -16 9 -31 -6z"/>
<path d="M9655 3600 c-3 -5 1 -10 9 -10 9 0 16 5 16 10 0 6 -4 10 -9 10 -6 0
-13 -4 -16 -10z"/>
<path d="M10340 3600 c0 -5 7 -10 16 -10 8 0 12 5 9 10 -3 6 -10 10 -16 10 -5
0 -9 -4 -9 -10z"/>
<path d="M6416 3525 c7 -33 14 -101 14 -152 0 -50 5 -104 11 -120 6 -15 15
-77 19 -136 4 -66 12 -113 20 -120 10 -10 11 -8 5 8 -4 11 -11 65 -16 120 -5
55 -13 152 -18 215 -15 165 -21 206 -36 227 -11 15 -11 7 1 -42z"/>
<path d="M3184 3513 c9 -17 20 -35 26 -38 18 -11 10 10 -16 40 l-25 30 15 -32z"/>
<path d="M9750 3511 c0 -6 5 -13 10 -16 6 -3 10 1 10 9 0 9 -4 16 -10 16 -5 0
-10 -4 -10 -9z"/>
<path d="M10180 3501 c0 -12 6 -21 16 -21 9 0 14 7 12 17 -5 25 -28 28 -28 4z"/>
<path d="M7610 3474 c-10 -11 -9 -14 8 -14 25 0 37 16 18 23 -8 3 -20 -1 -26
-9z"/>
<path d="M10090 3468 c0 -32 17 -46 26 -23 4 9 0 24 -10 33 -15 15 -16 14 -16
-10z"/>
<path d="M10340 3469 c0 -5 5 -7 10 -4 6 3 10 8 10 11 0 2 -4 4 -10 4 -5 0
-10 -5 -10 -11z"/>
<path d="M3161 3451 c8 -11 56 -74 107 -141 52 -66 109 -144 128 -173 19 -28
34 -47 34 -41 0 24 -260 374 -278 374 -2 0 2 -9 9 -19z"/>
<path d="M10316 3451 c-4 -7 -5 -15 -2 -18 9 -9 19 4 14 18 -4 11 -6 11 -12 0z"/>
<path d="M7580 3439 c0 -5 5 -7 10 -4 6 3 10 8 10 11 0 2 -4 4 -10 4 -5 0 -10
-5 -10 -11z"/>
<path d="M8195 3440 c3 -5 8 -10 11 -10 2 0 4 5 4 10 0 6 -5 10 -11 10 -5 0
-7 -4 -4 -10z"/>
<path d="M2146 3390 c4 -25 10 -63 15 -85 7 -32 8 -26 4 28 -2 37 -9 75 -15
85 -7 12 -8 5 -4 -28z"/>
<path d="M9180 3245 c-231 -138 -306 -188 -311 -206 -4 -13 -7 -18 -8 -11 -1
6 -6 12 -11 12 -13 0 -223 -129 -232 -143 -3 -6 -13 -11 -20 -13 -13 -1 -286
-168 -335 -203 -16 -12 -24 -31 -29 -71 -4 -30 -18 -77 -32 -104 -16 -30 -28
-72 -30 -106 -4 -52 -2 -58 18 -63 22 -6 22 -6 3 -37 l-18 -31 -5 26 -5 27
-25 -19 c-27 -21 -70 -36 -70 -24 0 10 32 72 53 101 9 13 17 40 16 60 0 32 -4
26 -51 -65 -28 -55 -54 -102 -59 -103 -5 -2 -7 -18 -4 -35 4 -18 -1 -63 -10
-102 -9 -38 -19 -84 -23 -102 -4 -17 -19 -41 -34 -53 -16 -12 -28 -26 -28 -31
0 -5 -18 -25 -40 -45 -52 -48 -53 -69 -3 -59 54 10 78 24 64 38 -6 6 -11 18
-11 26 0 12 3 12 12 3 14 -14 53 -16 77 -2 23 12 35 80 20 113 -8 18 -8 30 2
48 12 23 12 23 20 4 7 -18 8 -18 8 -2 1 10 -5 20 -12 22 -13 5 -16 150 -3 162
3 4 6 -1 6 -10 0 -24 75 -24 89 1 10 16 10 16 11 0 0 -10 6 -18 14 -18 24 0
-11 -58 -46 -76 -50 -26 -25 -26 35 0 65 29 82 17 40 -29 -23 -25 -24 -28 -9
-37 20 -11 12 -28 -15 -28 -19 0 -99 -75 -99 -93 0 -8 42 14 95 50 11 7 23 13
28 13 14 0 -52 -89 -88 -117 -19 -16 -35 -32 -35 -37 0 -6 5 -5 12 2 16 16 28
15 28 -3 0 -8 7 -15 15 -15 10 0 15 10 15 31 0 17 4 28 10 24 6 -3 10 -17 10
-30 0 -13 5 -27 11 -31 16 -9 669 -13 669 -4 0 4 93 10 206 13 174 5 209 9
225 23 11 9 19 23 19 31 0 7 7 13 15 13 8 0 15 -5 15 -11 0 -6 9 -9 20 -6 16
4 20 0 20 -19 0 -19 5 -24 25 -24 31 0 32 16 3 40 -18 14 -22 26 -19 63 1 25
-2 55 -8 66 -9 15 -8 28 4 53 l15 33 -5 -46 c-4 -46 15 -93 31 -76 17 17 1
153 -17 142 -11 -7 -12 -25 6 180 19 224 19 225 -5 225 -12 0 -26 -12 -35 -30
-17 -33 -36 -38 -55 -15 -16 19 -6 42 24 56 19 9 25 21 31 65 3 30 9 54 13 54
4 0 17 3 30 6 18 5 22 2 22 -15 0 -12 5 -19 10 -16 6 3 10 17 10 31 0 14 -3
23 -8 20 -4 -2 5 147 20 332 30 378 31 392 21 391 -5 0 -145 -83 -313 -184z
m30 -140 c12 -15 7 -45 -7 -45 -19 1 -45 30 -40 45 8 19 31 19 47 0z m-164
-20 c21 -32 14 -39 -26 -30 -35 8 -50 32 -29 46 23 15 38 10 55 -16z m77 18
c2 -5 7 -25 11 -45 7 -37 6 -38 -21 -38 -15 0 -35 5 -43 10 -13 9 -13 12 3 24
9 7 17 23 17 35 0 20 24 30 33 14z m87 -154 c0 -20 -21 -49 -35 -49 -8 0 -15
3 -15 8 0 4 -3 17 -6 30 -6 19 -3 22 25 22 17 0 31 -5 31 -11z m-120 -65 c0
-17 -22 -14 -28 4 -2 7 3 12 12 12 9 0 16 -7 16 -16z m31 -36 c-1 -5 -1 -18
-1 -29 0 -18 -2 -19 -15 -9 -20 17 -20 52 1 48 8 -2 15 -6 15 -10z m129 -16
c0 -16 -6 -37 -14 -47 -13 -18 -15 -17 -25 19 -12 45 -8 56 20 56 14 0 19 -7
19 -28z m-350 -7 c0 -8 -2 -15 -4 -15 -2 0 -6 7 -10 15 -3 8 -1 15 4 15 6 0
10 -7 10 -15z m115 -23 c6 -4 15 -22 22 -40 16 -45 -9 -56 -44 -18 -34 37 -16
86 22 58z m-431 -27 c-4 -8 -10 -12 -15 -9 -14 8 -10 24 6 24 9 0 12 -6 9 -15z
m356 -14 c0 -4 -3 -11 -7 -14 -8 -9 -34 13 -28 24 6 9 35 1 35 -10z m333 5 c8
-19 -3 -57 -14 -50 -12 7 -12 64 0 64 5 0 11 -6 14 -14z m-833 -16 c0 -5 -7
-10 -15 -10 -8 0 -15 5 -15 10 0 6 7 10 15 10 8 0 15 -4 15 -10z m925 -70 c0
-31 -25 -37 -59 -14 -41 26 -34 46 17 42 37 -3 42 -6 42 -28z m-1040 11 c7
-12 -32 -34 -48 -27 -7 2 -4 5 6 5 9 1 17 8 17 16 0 17 16 20 25 6z m25 -25
c0 -3 -4 -8 -10 -11 -5 -3 -10 -1 -10 4 0 6 5 11 10 11 6 0 10 -2 10 -4z m733
-6 c7 -6 24 -19 40 -31 36 -27 34 -40 -5 -36 -48 6 -88 28 -88 47 0 30 28 41
53 20z m159 -12 c10 -17 10 -58 0 -58 -17 0 -87 41 -86 50 1 6 2 15 3 21 2 15
72 4 83 -13z m68 -70 c0 -22 -11 -28 -38 -21 -28 7 -28 28 0 47 24 17 38 7 38
-26z m-910 22 c0 -5 -2 -10 -4 -10 -3 0 -8 5 -11 10 -3 6 -1 10 4 10 6 0 11
-4 11 -10z m630 3 c-1 -23 -70 -73 -100 -73 -24 0 -25 8 -5 35 23 30 105 60
105 38z m-650 -29 c0 -17 -22 -14 -28 4 -2 7 3 12 12 12 9 0 16 -7 16 -16z
m148 -27 c25 -10 28 -16 21 -30 -6 -9 -19 -17 -29 -17 -10 0 -22 -4 -25 -10
-6 -9 -55 -15 -55 -6 0 2 7 20 15 40 17 39 27 43 73 23z m-95 -38 c-4 -4 -18
-6 -31 -2 -18 4 -20 8 -11 19 8 10 16 11 31 3 12 -6 16 -15 11 -20z m775 22
c9 -5 35 -17 57 -27 22 -11 42 -20 44 -21 2 -1 -4 -9 -13 -18 -20 -20 -20 -39
-1 -55 16 -13 21 -56 8 -63 -5 -3 -17 -1 -29 3 -16 6 -23 20 -28 60 -5 39 -12
53 -25 57 -17 4 -41 41 -41 63 0 12 6 12 28 1z m-182 -12 c3 -6 -8 -26 -26
-44 -28 -29 -34 -31 -56 -21 -32 15 -30 27 9 53 36 24 63 28 73 12z m-414 -34
c0 -5 -5 -11 -11 -13 -6 -2 -11 4 -11 13 0 9 5 15 11 13 6 -2 11 -8 11 -13z
m523 -19 c15 -23 15 -26 -2 -43 -27 -27 -43 -17 -43 28 0 46 21 53 45 15z
m-922 -54 c-4 -18 -8 -20 -19 -11 -10 8 -11 16 -3 31 14 25 30 10 22 -20z
m277 22 c0 -8 -4 -12 -10 -9 -5 3 -10 10 -10 16 0 5 5 9 10 9 6 0 10 -7 10
-16z m720 -19 c0 -3 -6 -14 -12 -25 -10 -16 -10 -24 0 -40 30 -48 1 -130 -46
-130 -24 0 -24 1 -17 48 4 26 10 70 14 97 9 66 17 78 42 65 10 -6 19 -13 19
-15z m-940 -35 c0 -5 -4 -10 -9 -10 -6 0 -13 5 -16 10 -3 6 1 10 9 10 9 0 16
-4 16 -10z m53 -18 c-6 -24 -23 -30 -23 -9 0 13 21 39 26 34 2 -2 1 -13 -3
-25z m27 -59 c0 -5 -12 -16 -25 -26 -25 -18 -25 -18 -25 8 0 20 5 25 25 25 14
0 25 -3 25 -7z m972 -40 c22 -20 24 -43 3 -43 -8 0 -15 5 -15 10 0 6 -7 10
-17 10 -15 0 -15 -1 0 -18 22 -24 21 -32 -1 -32 -10 0 -27 -7 -38 -15 -21 -16
-64 -20 -64 -7 0 5 13 22 30 38 16 16 30 34 30 40 0 15 22 34 39 34 8 0 23 -7
33 -17z m-1027 -24 c-10 -15 -25 -10 -19 6 4 8 10 12 15 9 5 -3 7 -10 4 -15z
m981 -124 c7 -41 -4 -147 -15 -140 -5 2 -11 25 -15 51 -3 26 -11 53 -17 60 -7
9 -6 20 6 38 23 35 33 33 41 -9z m-1006 15 c0 -5 -7 -10 -15 -10 -8 0 -15 5
-15 10 0 6 7 10 15 10 8 0 15 -4 15 -10z m28 -48 c2 -15 -2 -22 -12 -22 -20 0
-22 -56 -3 -63 6 -2 9 -7 5 -11 -8 -9 -48 24 -48 40 0 6 7 17 15 24 8 7 15 24
15 37 0 30 24 26 28 -5z m130 -10 c2 -7 -6 -12 -17 -12 -21 0 -27 11 -14 24 9
9 26 2 31 -12z m-108 -57 c0 -8 -4 -15 -10 -15 -5 0 -10 7 -10 15 0 8 5 15 10
15 6 0 10 -7 10 -15z m70 -6 c0 -15 -4 -19 -16 -15 -9 3 -18 6 -20 6 -2 0 -4
7 -4 15 0 8 9 15 20 15 14 0 20 -7 20 -21z m-370 -47 c0 -13 -12 -22 -22 -16
-10 6 -1 24 13 24 5 0 9 -4 9 -8z m323 -39 c-7 -2 -21 -2 -30 0 -10 3 -4 5 12
5 17 0 24 -2 18 -5z m-52 -26 c-13 -13 -26 -3 -16 12 3 6 11 8 17 5 6 -4 6
-10 -1 -17z"/>
<path d="M9715 3390 c-7 -11 42 -26 53 -16 7 8 -17 26 -35 26 -6 0 -15 -4 -18
-10z"/>
<path d="M1845 3360 c3 -5 8 -10 11 -10 2 0 4 5 4 10 0 6 -5 10 -11 10 -5 0
-7 -4 -4 -10z"/>
<path d="M7660 3360 c0 -5 5 -10 10 -10 6 0 10 5 10 10 0 6 -4 10 -10 10 -5 0
-10 -4 -10 -10z"/>
<path d="M8046 3355 c-4 -10 1 -15 14 -15 13 0 18 5 14 15 -4 8 -10 15 -14 15
-4 0 -10 -7 -14 -15z"/>
<path d="M7964 3324 c3 -9 6 -21 6 -27 0 -8 3 -8 11 0 13 13 5 43 -12 43 -6 0
-8 -7 -5 -16z"/>
<path d="M8190 3329 c0 -5 5 -7 10 -4 6 3 10 8 10 11 0 2 -4 4 -10 4 -5 0 -10
-5 -10 -11z"/>
<path d="M1643 3294 c-4 -11 1 -22 13 -31 17 -12 19 -12 22 2 8 38 -22 62 -35
29z"/>
<path d="M8160 3300 c0 -5 5 -10 10 -10 6 0 10 5 10 10 0 6 -4 10 -10 10 -5 0
-10 -4 -10 -10z"/>
<path d="M9750 3290 c0 -5 5 -10 11 -10 5 0 7 5 4 10 -3 6 -8 10 -11 10 -2 0
-4 -4 -4 -10z"/>
<path d="M1760 3275 c7 -8 16 -15 21 -15 5 0 9 7 9 15 0 9 -9 15 -21 15 -18 0
-19 -2 -9 -15z"/>
<path d="M7140 3120 c-231 -138 -281 -171 -262 -176 12 -4 22 -10 22 -15 0
-13 -17 -11 -40 3 -36 23 -39 -2 -14 -127 45 -229 42 -334 -12 -419 -15 -23
-40 -50 -57 -61 -17 -11 -45 -39 -63 -62 -18 -23 -35 -39 -39 -35 -4 4 -5 0
-3 -8 3 -8 -3 -31 -13 -51 -17 -35 -99 -264 -99 -278 0 -4 55 -12 123 -19 67
-6 158 -20 202 -32 81 -20 183 -25 269 -14 75 11 53 24 -41 25 -92 0 -142 11
-112 23 9 4 36 2 60 -3 53 -13 180 -14 161 -2 -10 6 -7 12 12 25 14 9 26 23
26 31 0 17 26 20 35 5 5 -8 11 -7 21 1 12 9 14 5 14 -25 0 -34 1 -35 20 -24
11 7 20 17 20 23 0 6 -9 16 -20 23 -14 8 -20 23 -20 46 0 37 14 54 26 34 11
-17 25 28 18 60 -3 15 -7 37 -10 50 -2 13 -8 21 -12 18 -4 -2 -2 60 5 137 17
212 17 227 -7 227 -13 0 -22 -9 -26 -25 -4 -17 -13 -25 -28 -25 -13 0 -25 3
-28 6 -12 11 6 46 28 54 19 7 23 18 26 56 3 42 6 48 31 55 23 6 27 4 27 -14 0
-11 3 -17 7 -14 3 4 7 55 8 114 1 60 5 153 10 207 6 74 5 97 -4 92 -6 -4 -17
-4 -23 0 -9 6 -5 10 12 14 24 6 25 9 35 138 6 73 8 132 5 132 -3 0 -133 -77
-290 -170z m34 -123 c8 -12 7 -20 -2 -29 -16 -16 -47 13 -38 37 7 19 25 16 40
-8z m-70 -30 c8 -38 -3 -50 -38 -41 -30 7 -33 16 -11 34 8 7 15 21 15 31 0 30
27 11 34 -24z m-82 16 c23 -21 23 -33 -1 -33 -33 0 -51 11 -51 31 0 24 27 25
52 2z m348 2 c0 -8 -4 -15 -9 -15 -13 0 -22 16 -14 24 11 11 23 6 23 -9z
m-190 -120 c0 -3 -7 -17 -16 -31 -13 -19 -20 -22 -30 -13 -8 6 -14 20 -14 30
0 14 7 19 30 19 17 0 30 -2 30 -5z m40 -31 c0 -8 -4 -12 -10 -9 -5 3 -10 10
-10 16 0 5 5 9 10 9 6 0 10 -7 10 -16z m-150 -34 c0 -5 7 -10 15 -10 16 0 20
-27 7 -47 -6 -9 -12 -8 -24 6 -25 30 -32 61 -14 61 9 0 16 -4 16 -10z m140
-47 c0 -27 -15 -62 -22 -53 -13 17 -27 63 -23 71 4 5 15 9 26 9 14 0 19 -7 19
-27z m-315 -3 c3 -5 1 -10 -4 -10 -6 0 -11 5 -11 10 0 6 2 10 4 10 3 0 8 -4
11 -10z m120 -57 c13 -32 13 -33 -9 -33 -25 0 -53 40 -41 60 12 19 36 6 50
-27z m-87 -4 c-2 -6 -8 -10 -13 -10 -5 0 -11 4 -13 10 -2 6 4 11 13 11 9 0 15
-5 13 -11z m302 -14 c0 -14 -4 -25 -10 -25 -5 0 -10 11 -10 25 0 14 5 25 10
25 6 0 10 -11 10 -25z m87 -39 c11 -10 -10 -46 -26 -46 -23 0 -63 38 -55 52 6
9 70 5 81 -6z m-238 -53 c49 -34 51 -43 9 -43 -42 1 -81 30 -72 53 8 23 17 22
63 -10z m115 11 c17 -16 22 -54 7 -54 -12 0 -81 29 -81 34 0 36 46 48 74 20z
m-184 -49 c0 -19 -77 -68 -97 -61 -19 8 -9 21 35 51 43 28 62 31 62 10z m248
-18 c3 -27 -4 -32 -32 -21 -19 7 -21 25 -4 42 18 18 33 9 36 -21z m-28 -69
c14 -7 26 -13 28 -14 2 -1 -3 -11 -10 -23 -10 -17 -10 -25 0 -41 6 -11 12 -28
12 -38 0 -54 -45 -27 -54 33 -4 25 -11 45 -16 45 -15 0 -40 31 -40 50 0 17 4
18 28 10 15 -6 38 -16 52 -22z m-225 11 c4 -5 -8 -24 -26 -41 -20 -19 -34 -27
-37 -20 -2 7 -10 12 -18 12 -8 0 -14 7 -14 15 0 8 6 15 14 15 7 0 19 7 26 15
14 17 46 20 55 4z m101 -44 c16 -24 16 -27 -2 -40 -29 -22 -34 -18 -34 25 0
46 12 51 36 15z m-206 -1 c0 -17 -22 -14 -28 4 -2 7 3 12 12 12 9 0 16 -7 16
-16z m270 -41 c0 -2 -4 -12 -9 -22 -7 -12 -5 -26 5 -46 11 -21 12 -36 4 -64
-13 -47 -13 -51 4 -51 8 0 24 14 36 30 12 17 27 30 35 30 7 0 16 8 19 18 3 10
4 6 3 -8 -1 -17 5 -28 21 -35 12 -5 22 -14 22 -20 0 -14 -38 -17 -45 -4 -4 5
-11 9 -17 9 -6 0 -4 -8 5 -18 20 -21 13 -32 -18 -32 -13 0 -28 -6 -34 -14 -7
-8 -21 -12 -32 -9 -15 4 -17 8 -8 20 15 17 3 30 -31 35 -21 2 -25 8 -24 33 3
58 17 140 26 152 8 11 38 8 38 -4z m-270 -12 c0 -16 -19 -23 -40 -16 -30 10
-24 25 10 25 17 0 30 -4 30 -9z m435 -1 c11 -18 -26 -23 -43 -6 -15 15 -14 16
10 16 15 0 30 -5 33 -10z m-105 -311 c0 -85 -13 -99 -24 -24 -4 25 -11 45 -17
45 -5 0 -9 5 -9 12 0 14 30 48 42 48 4 0 8 -36 8 -81z m110 4 c0 -27 -3 -34
-11 -26 -7 7 -9 23 -5 37 9 37 16 32 16 -11z"/>
<path d="M10126 3261 c-4 -5 -2 -12 3 -15 5 -4 12 -2 15 3 4 5 2 12 -3 15 -5
4 -12 2 -15 -3z"/>
<path d="M10370 3261 c0 -6 5 -13 10 -16 6 -3 10 1 10 9 0 9 -4 16 -10 16 -5
0 -10 -4 -10 -9z"/>
<path d="M7630 3250 c0 -5 12 -10 26 -10 14 0 23 4 19 10 -3 6 -15 10 -26 10
-10 0 -19 -4 -19 -10z"/>
<path d="M6062 3209 c7 -20 34 -33 54 -25 16 6 17 9 4 15 -33 18 -62 23 -58
10z"/>
<path d="M6649 3185 c-6 -40 -4 -53 7 -43 3 3 4 23 2 44 l-3 39 -6 -40z"/>
<path d="M10192 3178 c1 -18 -2 -40 -5 -48 -4 -8 -3 -22 2 -29 8 -12 13 -11
30 10 23 27 27 69 9 87 -22 22 -38 14 -36 -20z"/>
<path d="M1806 3169 c-9 -17 -13 -35 -10 -40 7 -12 34 -12 34 0 0 5 7 17 16
25 14 15 18 14 41 -4 33 -25 39 -25 47 2 7 30 1 34 -61 42 -50 6 -52 6 -67
-25z"/>
<path d="M4680 3129 c0 -11 5 -17 10 -14 6 3 10 13 10 21 0 8 -4 14 -10 14 -5
0 -10 -9 -10 -21z"/>
<path d="M8001 3134 c0 -11 3 -14 6 -6 3 7 2 16 -1 19 -3 4 -6 -2 -5 -13z"/>
<path d="M8220 3140 c0 -5 5 -10 11 -10 5 0 7 5 4 10 -3 6 -8 10 -11 10 -2 0
-4 -4 -4 -10z"/>
<path d="M9557 3131 c-3 -11 1 -22 9 -25 20 -8 28 14 12 31 -14 13 -16 12 -21
-6z"/>
<path d="M1748 3099 c-24 -14 -22 -22 6 -35 28 -13 46 -2 46 28 0 20 -25 23
-52 7z"/>
<path d="M4481 3074 c0 -11 3 -14 6 -6 3 7 2 16 -1 19 -3 4 -6 -2 -5 -13z"/>
<path d="M8053 3040 c-1 -54 5 -60 31 -31 24 26 18 75 -10 79 -18 3 -20 -3
-21 -48z"/>
<path d="M1680 3053 c0 -10 5 -25 10 -33 8 -12 10 -9 10 12 0 15 -4 30 -10 33
-5 3 -10 -2 -10 -12z"/>
<path d="M9715 3040 c-3 -5 1 -10 9 -10 9 0 16 5 16 10 0 6 -4 10 -9 10 -6 0
-13 -4 -16 -10z"/>
<path d="M7486 3025 c-8 -22 -3 -28 19 -23 14 3 14 5 2 22 -13 18 -14 18 -21
1z"/>
<path d="M4390 3020 c0 -5 5 -10 10 -10 6 0 10 5 10 10 0 6 -4 10 -10 10 -5 0
-10 -4 -10 -10z"/>
<path d="M1807 3014 c-14 -14 -7 -25 13 -22 12 2 21 8 21 13 0 12 -24 18 -34
9z"/>
<path d="M9690 3004 c0 -8 5 -12 10 -9 6 3 10 10 10 16 0 5 -4 9 -10 9 -5 0
-10 -7 -10 -16z"/>
<path d="M9780 3011 c0 -12 29 -23 41 -15 18 10 9 24 -16 24 -14 0 -25 -4 -25
-9z"/>
<path d="M9714 2979 c-8 -14 31 -53 45 -45 15 10 14 22 -5 40 -18 19 -30 20
-40 5z"/>
<path d="M1710 2962 c0 -13 23 -32 38 -32 7 0 10 4 7 10 -9 14 -45 32 -45 22z"/>
<path d="M6310 2961 c0 -6 5 -13 10 -16 6 -3 10 1 10 9 0 9 -4 16 -10 16 -5 0
-10 -4 -10 -9z"/>
<path d="M6215 2940 c-18 -20 -18 -21 3 -42 l21 -21 6 26 c4 14 3 33 -2 42 -8
14 -11 14 -28 -5z"/>
<path d="M10340 2944 c0 -8 5 -12 10 -9 6 3 10 10 10 16 0 5 -4 9 -10 9 -5 0
-10 -7 -10 -16z"/>
<path d="M7630 2940 c0 -5 5 -10 10 -10 6 0 10 5 10 10 0 6 -4 10 -10 10 -5 0
-10 -4 -10 -10z"/>
<path d="M1930 2915 c0 -8 5 -15 10 -15 6 0 10 7 10 15 0 8 -4 15 -10 15 -5 0
-10 -7 -10 -15z"/>
<path d="M7686 2921 c-3 -5 5 -11 19 -13 28 -6 34 6 9 16 -20 8 -22 8 -28 -3z"/>
<path d="M7605 2910 c-3 -5 -1 -10 4 -10 6 0 11 5 11 10 0 6 -2 10 -4 10 -3 0
-8 -4 -11 -10z"/>
<path d="M4301 2894 c0 -11 3 -14 6 -6 3 7 2 16 -1 19 -3 4 -6 -2 -5 -13z"/>
<path d="M1790 2890 c0 -5 5 -10 10 -10 6 0 10 5 10 10 0 6 -4 10 -10 10 -5 0
-10 -4 -10 -10z"/>
<path d="M7630 2876 c0 -18 27 -39 40 -31 7 4 7 12 0 26 -12 22 -40 26 -40 5z"/>
<path d="M4275 2870 c-3 -5 -1 -10 4 -10 6 0 11 5 11 10 0 6 -2 10 -4 10 -3 0
-8 -4 -11 -10z"/>
<path d="M8190 2854 c0 -8 5 -12 10 -9 6 3 10 10 10 16 0 5 -4 9 -10 9 -5 0
-10 -7 -10 -16z"/>
<path d="M9566 2828 c-12 -28 -9 -66 4 -71 11 -4 46 30 58 56 15 35 9 47 -24
47 -19 0 -28 -8 -38 -32z"/>
<path d="M4360 2840 c0 -5 5 -10 11 -10 5 0 7 5 4 10 -3 6 -8 10 -11 10 -2 0
-4 -4 -4 -10z"/>
<path d="M6400 2840 c0 -5 5 -10 10 -10 6 0 10 5 10 10 0 6 -4 10 -10 10 -5 0
-10 -4 -10 -10z"/>
<path d="M9652 2828 c6 -18 28 -21 28 -4 0 9 -7 16 -16 16 -9 0 -14 -5 -12
-12z"/>
<path d="M1798 2805 c6 -35 24 -44 20 -9 -2 15 -8 29 -14 31 -7 2 -10 -6 -6
-22z"/>
<path d="M9670 2770 c-12 -16 -19 -34 -16 -39 10 -16 46 -19 60 -5 8 8 19 14
25 14 7 0 7 10 0 30 -14 39 -41 39 -69 0z"/>
<path d="M10370 2786 c0 -8 5 -18 10 -21 6 -3 10 3 10 14 0 12 -4 21 -10 21
-5 0 -10 -6 -10 -14z"/>
<path d="M7531 2759 c9 -17 13 -19 19 -8 11 16 4 29 -16 29 -12 0 -13 -4 -3
-21z"/>
<path d="M2140 2725 c4 -25 10 -49 15 -53 11 -10 -1 78 -13 90 -5 5 -6 -9 -2
-37z"/>
<path d="M4605 2760 c-3 -5 1 -10 10 -10 9 0 13 5 10 10 -3 6 -8 10 -10 10 -2
0 -7 -4 -10 -10z"/>
<path d="M9485 2750 c-18 -20 -18 -21 3 -40 27 -25 34 -25 50 1 11 18 11 24
-4 40 -22 24 -27 24 -49 -1z"/>
<path d="M10092 2732 c-25 -27 -30 -37 -20 -43 19 -13 29 -11 50 8 17 15 19
15 32 -2 12 -17 13 -17 20 8 5 20 1 32 -14 47 -25 25 -28 25 -68 -18z"/>
<path d="M4330 2750 c0 -5 5 -10 10 -10 6 0 10 5 10 10 0 6 -4 10 -10 10 -5 0
-10 -4 -10 -10z"/>
<path d="M4445 2750 c3 -5 10 -10 16 -10 5 0 9 5 9 10 0 6 -7 10 -16 10 -8 0
-12 -4 -9 -10z"/>
<path d="M6700 2750 c0 -5 5 -10 10 -10 6 0 10 5 10 10 0 6 -4 10 -10 10 -5 0
-10 -4 -10 -10z"/>
<path d="M7572 2751 c4 -13 18 -16 19 -4 0 4 -5 9 -11 12 -7 2 -11 -2 -8 -8z"/>
<path d="M3636 2729 c-35 -172 -63 -290 -86 -364 -16 -49 -28 -91 -26 -92 2
-2 15 27 29 64 40 109 106 398 93 410 -3 3 -7 -5 -10 -18z"/>
<path d="M6630 2722 c0 -5 7 -17 15 -28 14 -18 14 -18 15 9 0 17 -5 27 -15 27
-8 0 -15 -4 -15 -8z"/>
<path d="M7590 2700 c-24 -34 -19 -50 15 -50 28 0 51 50 32 69 -17 17 -24 14
-47 -19z"/>
<path d="M3528 2714 c-5 -4 -8 -18 -8 -31 0 -12 -9 -46 -20 -75 -11 -28 -18
-54 -15 -56 4 -5 25 42 44 100 13 39 12 76 -1 62z"/>
<path d="M8220 2711 c0 -6 5 -13 10 -16 6 -3 10 1 10 9 0 9 -4 16 -10 16 -5 0
-10 -4 -10 -9z"/>
<path d="M6340 2690 c0 -5 5 -10 10 -10 6 0 10 5 10 10 0 6 -4 10 -10 10 -5 0
-10 -4 -10 -10z"/>
<path d="M7990 2686 c0 -7 -11 -21 -25 -30 -14 -9 -25 -21 -25 -26 0 -16 32
-12 52 6 16 16 18 16 24 0 9 -23 22 -20 26 7 2 13 -5 29 -19 40 -26 21 -33 21
-33 3z"/>
<path d="M7422 2678 c-14 -14 -16 -28 -3 -28 5 0 11 9 14 20 6 23 5 24 -11 8z"/>
<path d="M7461 2652 c-17 -31 -13 -40 5 -14 9 13 14 26 11 29 -3 2 -10 -4 -16
-15z"/>
<path d="M9686 2652 c-4 -11 -17 -29 -30 -41 -30 -28 -23 -51 15 -51 22 0 32
7 45 33 l17 32 11 -33 c11 -32 12 -33 29 -14 30 33 15 72 -29 72 -13 0 -26 5
-29 10 -10 16 -23 12 -29 -8z"/>
<path d="M1810 2634 c-7 -8 -21 -14 -31 -14 -10 0 -21 -4 -24 -10 -3 -5 -1
-10 5 -10 6 0 24 -9 39 -21 25 -18 31 -19 52 -7 13 7 25 14 27 15 7 3 -30 52
-43 57 -7 2 -19 -2 -25 -10z"/>
<path d="M10120 2631 c0 -10 -7 -24 -15 -31 -21 -18 -19 -40 5 -40 27 0 60 68
39 81 -21 13 -29 11 -29 -10z"/>
<path d="M1935 2620 c-7 -12 2 -30 16 -30 6 0 25 -14 42 -31 l31 -32 8 28 c9
35 5 42 -39 60 -42 18 -50 18 -58 5z"/>
<path d="M10265 2600 c-20 -22 -13 -40 16 -40 14 0 19 7 19 24 0 33 -14 40
-35 16z"/>
<path d="M4090 2600 c0 -5 5 -10 10 -10 6 0 10 5 10 10 0 6 -4 10 -10 10 -5 0
-10 -4 -10 -10z"/>
<path d="M6130 2600 c0 -5 5 -10 10 -10 6 0 10 5 10 10 0 6 -4 10 -10 10 -5 0
-10 -4 -10 -10z"/>
<path d="M7599 2589 c-6 -13 -18 -28 -25 -32 -8 -4 -14 -17 -14 -27 0 -33 54
-27 69 8 l13 27 12 -28 c11 -29 11 -29 29 -9 15 16 16 24 7 41 -6 12 -21 21
-33 21 -13 0 -28 5 -34 11 -8 8 -14 5 -24 -12z"/>
<path d="M7991 2567 c-5 -14 -15 -28 -21 -32 -5 -3 -8 -11 -5 -16 12 -18 34
-9 48 21 13 25 13 31 1 41 -11 9 -16 6 -23 -14z"/>
<path d="M1910 2571 c0 -5 5 -13 10 -16 6 -3 10 -2 10 4 0 5 -4 13 -10 16 -5
3 -10 2 -10 -4z"/>
<path d="M6105 2570 c-3 -5 -2 -10 4 -10 5 0 13 5 16 10 3 6 2 10 -4 10 -5 0
-13 -4 -16 -10z"/>
<path d="M6285 2570 c3 -5 8 -10 11 -10 2 0 4 5 4 10 0 6 -5 10 -11 10 -5 0
-7 -4 -4 -10z"/>
<path d="M1730 2560 c0 -5 7 -10 15 -10 8 0 15 5 15 10 0 6 -7 10 -15 10 -8 0
-15 -4 -15 -10z"/>
<path d="M6063 2553 c-20 -8 -15 -23 7 -23 11 0 20 7 20 15 0 15 -6 17 -27 8z"/>
<path d="M6400 2550 c0 -5 18 -10 41 -10 24 0 38 4 34 10 -3 6 -22 10 -41 10
-19 0 -34 -4 -34 -10z"/>
<path d="M8122 2548 c-18 -18 -14 -38 7 -38 20 0 35 25 25 41 -7 12 -18 11
-32 -3z"/>
<path d="M4300 2525 c0 -15 4 -24 10 -20 6 3 10 12 10 20 0 8 -4 17 -10 20 -6
4 -10 -5 -10 -20z"/>
<path d="M1720 2504 c0 -8 5 -12 10 -9 6 3 10 10 10 16 0 5 -4 9 -10 9 -5 0
-10 -7 -10 -16z"/>
<path d="M4257 2511 c-18 -7 -51 -60 -42 -69 3 -3 21 3 40 14 46 25 48 72 2
55z"/>
<path d="M10027 2514 c-3 -4 -1 -16 5 -27 9 -18 11 -19 20 -4 13 25 -6 49 -25
31z"/>
<path d="M10259 2470 c-15 -25 -41 -74 -59 -110 -18 -36 -35 -67 -39 -70 -3
-3 -6 -34 -6 -70 0 -36 -8 -92 -17 -125 -9 -33 -20 -72 -23 -87 -3 -16 -12
-28 -21 -28 -13 0 -13 4 2 30 10 16 15 33 11 37 -12 12 -29 -14 -32 -48 -1
-20 -15 -48 -34 -70 -37 -45 -38 -49 -6 -49 14 0 25 4 25 8 0 5 24 7 54 4 l55
-4 15 53 c11 35 13 56 6 63 -15 15 -12 62 5 76 13 10 15 9 16 -11 0 -22 1 -22
8 -4 6 14 2 25 -12 37 -17 16 -19 25 -13 79 5 46 4 64 -5 70 -10 6 -9 12 4 27
9 10 17 23 17 29 0 20 35 73 48 73 6 0 12 5 12 11 0 5 -5 7 -10 4 -6 -3 -1 10
11 29 11 20 19 47 17 63 -3 27 -4 27 -29 -17z m-114 -530 c-5 -8 -11 -8 -17
-2 -6 6 -7 16 -3 22 5 8 11 8 17 2 6 -6 7 -16 3 -22z"/>
<path d="M9892 2454 c13 -48 68 -97 68 -61 0 8 -9 22 -19 31 -11 10 -21 28
-23 39 -2 12 -11 23 -20 25 -15 3 -15 -1 -6 -34z"/>
<path d="M10217 2484 c-11 -11 -8 -44 3 -44 15 0 24 30 13 41 -5 5 -12 6 -16
3z"/>
<path d="M7910 2461 c0 -11 5 -23 10 -26 6 -3 10 3 10 14 0 11 -4 23 -10 26
-5 3 -10 -3 -10 -14z"/>
<path d="M4322 2443 c5 -25 28 -28 28 -4 0 12 -6 21 -16 21 -9 0 -14 -7 -12
-17z"/>
<path d="M10152 2451 c2 -7 7 -12 11 -12 12 1 9 15 -3 20 -7 2 -11 -2 -8 -8z"/>
<path d="M7785 2417 c9 -44 65 -89 65 -52 0 8 -5 15 -11 15 -5 0 -15 13 -20
29 -6 16 -17 32 -25 35 -13 5 -14 0 -9 -27z"/>
<path d="M8075 2429 c-4 -11 -4 -23 -2 -26 9 -8 27 7 27 22 0 23 -18 27 -25 4z"/>
<path d="M10106 2433 c-12 -12 -6 -51 10 -57 45 -17 80 5 48 30 -32 24 -51 34
-58 27z"/>
<path d="M4503 2409 c-14 -33 -7 -68 19 -93 14 -13 23 -15 31 -7 8 8 5 17 -10
33 -12 13 -23 39 -25 58 l-4 35 -11 -26z"/>
<path d="M10190 2420 c0 -5 5 -10 11 -10 5 0 7 5 4 10 -3 6 -8 10 -11 10 -2 0
-4 -4 -4 -10z"/>
<path d="M8020 2410 c0 -5 5 -10 10 -10 6 0 10 5 10 10 0 6 -4 10 -10 10 -5 0
-10 -4 -10 -10z"/>
<path d="M6356 2378 c-19 -26 -21 -48 -5 -48 16 0 38 31 39 53 0 24 -16 21
-34 -5z"/>
<path d="M7975 2380 c-9 -28 2 -40 36 -40 34 0 37 15 7 41 -27 24 -35 24 -43
-1z"/>
<path d="M8055 2380 c3 -5 8 -10 11 -10 2 0 4 5 4 10 0 6 -5 10 -11 10 -5 0
-7 -4 -4 -10z"/>
<path d="M4446 2371 c-4 -5 -2 -12 3 -15 5 -4 12 -2 15 3 4 5 2 12 -3 15 -5 4
-12 2 -15 -3z"/>
<path d="M6784 2365 c-9 -22 1 -29 15 -11 8 10 9 16 1 21 -5 3 -13 -1 -16 -10z"/>
<path d="M9456 2346 c-22 -34 -21 -38 12 -34 21 2 27 8 27 27 0 34 -19 37 -39
7z"/>
<path d="M9780 2360 c0 -5 7 -10 16 -10 8 0 12 5 9 10 -3 6 -10 10 -16 10 -5
0 -9 -4 -9 -10z"/>
<path d="M8110 2349 c0 -5 5 -7 10 -4 6 3 10 8 10 11 0 2 -4 4 -10 4 -5 0 -10
-5 -10 -11z"/>
<path d="M7396 2315 c-10 -15 -12 -26 -5 -30 17 -11 39 3 39 24 0 30 -16 33
-34 6z"/>
<path d="M7690 2330 c0 -5 5 -10 11 -10 5 0 7 5 4 10 -3 6 -8 10 -11 10 -2 0
-4 -4 -4 -10z"/>
<path d="M4257 2300 c-19 -23 -15 -40 9 -40 9 0 22 -7 30 -15 17 -16 54 -21
54 -6 0 5 -7 14 -15 21 -8 7 -15 20 -15 30 0 16 -18 30 -39 30 -3 0 -14 -9
-24 -20z"/>
<path d="M4740 2290 c-14 -11 -42 -23 -62 -26 -43 -7 -63 -26 -54 -50 6 -16 8
-16 24 0 10 9 35 16 55 16 33 0 117 34 117 47 0 8 -34 32 -45 32 -5 1 -21 -8
-35 -19z"/>
<path d="M9685 2234 c-4 -43 -12 -85 -17 -91 -15 -19 -36 -16 -43 6 -8 25 -44
38 -56 20 -16 -25 -9 -99 11 -140 21 -40 40 -44 40 -8 0 10 9 24 20 31 11 7
20 18 20 25 0 7 5 13 10 13 6 0 10 -11 10 -24 0 -28 16 -36 73 -36 57 0 80 15
39 25 -27 5 -33 13 -43 48 -6 23 -18 50 -26 59 -17 19 -11 48 10 48 24 0 38
26 31 54 -5 21 -11 25 -26 20 -13 -4 -24 0 -32 12 -12 15 -14 6 -21 -62z"/>
<path d="M7598 2209 c-2 -58 -7 -74 -22 -83 -14 -8 -20 -8 -23 2 -8 20 -34 43
-47 39 -19 -6 -19 -97 1 -134 19 -36 33 -43 33 -17 0 9 11 29 25 45 l24 30 7
-26 c7 -30 38 -40 91 -30 l38 7 -33 13 c-19 9 -32 21 -32 32 0 10 -9 35 -20
56 l-20 37 25 12 c18 8 25 19 25 40 0 23 -4 28 -25 28 -14 0 -25 5 -25 10 0 6
-4 10 -10 10 -5 0 -10 -32 -12 -71z"/>
<path d="M9470 2267 c0 -22 23 -37 57 -37 42 0 42 11 -3 33 -42 20 -54 21 -54
4z"/>
<path d="M10125 2260 c3 -5 8 -10 11 -10 2 0 4 5 4 10 0 6 -5 10 -11 10 -5 0
-7 -4 -4 -10z"/>
<path d="M7406 2253 c-11 -11 26 -43 49 -43 32 0 38 11 12 25 -37 19 -55 24
-61 18z"/>
<path d="M1541 2224 c0 -11 3 -14 6 -6 3 7 2 16 -1 19 -3 4 -6 -2 -5 -13z"/>
<path d="M10282 2214 c-22 -15 -30 -44 -12 -44 11 0 45 48 38 55 -2 3 -14 -2
-26 -11z"/>
<path d="M8136 2197 c-20 -16 -26 -26 -17 -31 11 -7 50 29 51 47 0 10 -2 9
-34 -16z"/>
<path d="M9440 2200 c0 -5 5 -10 10 -10 6 0 10 5 10 10 0 6 -4 10 -10 10 -5 0
-10 -4 -10 -10z"/>
<path d="M1780 2183 c0 -10 10 -23 22 -28 13 -6 26 -24 31 -45 12 -46 28 -55
50 -29 22 28 22 46 -3 54 -11 3 -25 18 -32 33 -16 33 -68 45 -68 15z"/>
<path d="M4325 2191 c-6 -11 9 -23 19 -14 9 9 7 23 -3 23 -6 0 -12 -4 -16 -9z"/>
<path d="M4650 2190 c0 -5 5 -10 10 -10 6 0 10 5 10 10 0 6 -4 10 -10 10 -5 0
-10 -4 -10 -10z"/>
<path d="M7380 2190 c0 -5 5 -10 11 -10 5 0 7 5 4 10 -3 6 -8 10 -11 10 -2 0
-4 -4 -4 -10z"/>
<path d="M10075 2169 c-9 -29 21 -62 35 -39 15 23 12 38 -9 50 -16 8 -21 6
-26 -11z"/>
<path d="M1896 2172 c-3 -6 -1 -14 5 -17 15 -10 25 3 12 16 -7 7 -13 7 -17 1z"/>
<path d="M7950 2146 c0 -20 5 -26 21 -26 15 0 20 5 17 22 -5 34 -38 37 -38 4z"/>
<path d="M9475 2127 c-8 -20 -15 -48 -15 -62 0 -13 -5 -45 -12 -70 -12 -44
-12 -45 22 -80 29 -30 35 -33 43 -19 9 15 4 102 -8 162 -5 21 -3 32 4 32 16 0
13 46 -4 60 -13 10 -17 7 -30 -23z"/>
<path d="M1791 2130 c0 -8 4 -22 9 -30 12 -18 12 -2 0 25 -6 13 -9 15 -9 5z"/>
<path d="M4325 2130 c-3 -5 1 -10 9 -10 9 0 16 5 16 10 0 6 -4 10 -9 10 -6 0
-13 -4 -16 -10z"/>
<path d="M7410 2114 c-6 -14 -10 -34 -10 -45 0 -10 -5 -39 -12 -64 -12 -43
-11 -46 17 -74 15 -17 31 -28 35 -26 18 11 20 87 4 122 -16 32 -16 37 -1 62
12 21 13 31 5 39 -18 18 -28 15 -38 -14z"/>
<path d="M4475 2084 c8 -47 6 -44 33 -37 31 8 27 25 -9 52 l-32 24 8 -39z"/>
<path d="M4388 2103 c6 -2 18 -2 25 0 6 3 1 5 -13 5 -14 0 -19 -2 -12 -5z"/>
<path d="M9907 2083 c-12 -11 -8 -23 8 -23 8 0 15 7 15 15 0 16 -12 20 -23 8z"/>
<path d="M4770 2071 c0 -15 28 -33 40 -26 7 5 5 12 -7 21 -21 16 -33 18 -33 5z"/>
<path d="M7800 2070 c0 -5 5 -10 10 -10 6 0 10 5 10 10 0 6 -4 10 -10 10 -5 0
-10 -4 -10 -10z"/>
<path d="M7956 2034 c-3 -9 -6 -23 -6 -32 1 -15 3 -14 15 2 17 22 20 46 6 46
-5 0 -12 -7 -15 -16z"/>
<path d="M4505 2010 c3 -5 10 -10 16 -10 5 0 9 5 9 10 0 6 -7 10 -16 10 -8 0
-12 -4 -9 -10z"/>
<path d="M7611 1981 c-14 -25 -2 -35 19 -16 15 14 18 14 23 1 3 -8 -1 -17 -9
-20 -15 -6 -20 -56 -5 -56 5 0 14 7 21 15 7 8 18 15 25 15 12 0 25 21 25 40 0
6 -71 40 -85 40 -2 0 -9 -8 -14 -19z"/>
<path d="M4380 1981 c0 -5 7 -12 16 -15 12 -5 15 -14 11 -34 -5 -23 -2 -28 14
-28 24 0 24 11 -2 52 -20 32 -39 45 -39 25z"/>
<path d="M4536 1981 c-8 -12 23 -66 47 -81 28 -17 40 0 29 41 -6 24 -14 34
-28 34 -10 0 -24 3 -31 8 -6 4 -14 3 -17 -2z"/>
<path d="M9697 1983 c-10 -9 -8 -43 2 -43 5 0 14 7 21 15 10 13 15 13 21 3 5
-7 0 -20 -12 -31 -21 -20 -23 -26 -9 -47 8 -12 11 -12 28 3 10 9 24 17 31 17
13 0 31 40 24 53 -5 9 -71 37 -88 37 -6 0 -15 -3 -18 -7z"/>
<path d="M9810 1980 c0 -5 5 -10 11 -10 5 0 7 5 4 10 -3 6 -8 10 -11 10 -2 0
-4 -4 -4 -10z"/>
<path d="M4444 1949 c-13 -21 12 -29 29 -9 16 19 16 20 -3 20 -10 0 -22 -5
-26 -11z"/>
<path d="M4667 1934 c-14 -14 -7 -35 11 -32 9 2 17 10 17 17 0 16 -18 25 -28
15z"/>
<path d="M7285 1880 c-18 -8 -17 -9 8 -9 16 -1 26 3 22 9 -3 6 -7 10 -8 9 -1
0 -11 -4 -22 -9z"/>
<path d="M7385 1880 c-4 -6 7 -10 27 -10 25 0 29 3 18 10 -19 13 -37 13 -45 0z"/>
<path d="M7970 1880 c0 -5 5 -10 11 -10 5 0 7 5 4 10 -3 6 -8 10 -11 10 -2 0
-4 -4 -4 -10z"/>
<path d="M7805 1849 c-11 -17 1 -21 15 -4 8 9 8 15 2 15 -6 0 -14 -5 -17 -11z"/>
<path d="M11053 1823 c9 -2 23 -2 30 0 6 3 -1 5 -18 5 -16 0 -22 -2 -12 -5z"/>
<path d="M5216 1662 c-3 -6 -1 -14 5 -17 15 -10 25 3 12 16 -7 7 -13 7 -17 1z"/>
<path d="M5156 1601 c-4 -5 -2 -12 3 -15 5 -4 12 -2 15 3 4 5 2 12 -3 15 -5 4
-12 2 -15 -3z"/>
<path d="M5409 1577 c-22 -26 -30 -30 -40 -19 -20 18 -39 15 -39 -8 0 -11 6
-20 14 -20 8 0 22 -7 30 -15 14 -14 18 -14 41 1 14 9 25 22 25 29 0 6 9 20 20
30 11 10 17 22 14 26 -11 18 -40 8 -65 -24z"/>
<path d="M5089 1564 c-10 -13 -10 -17 2 -25 19 -12 25 -11 40 7 10 13 10 17
-2 25 -19 12 -25 11 -40 -7z"/>
<path d="M5275 1510 c-3 -5 1 -10 10 -10 9 0 13 5 10 10 -3 6 -8 10 -10 10 -2
0 -7 -4 -10 -10z"/>
<path d="M11330 3040 l0 -140 113 0 c69 0 122 5 137 13 82 41 78 226 -6 257
-14 6 -75 10 -135 10 l-109 0 0 -140z"/>
</g>
</svg>
